<?xml version="1.0" encoding="UTF-8"?>
<svg id="Layer_1" data-name="Layer 1" xmlns="http://www.w3.org/2000/svg" version="1.1" viewBox="0 0 300 300">
  <defs>
    <style>
      .cls-1 {
        fill: #002b22;
      }

      .cls-1, .cls-2 {
        stroke-width: 0px;
      }

      .cls-2 {
        fill: #efff3d;
      }
    </style>
  </defs>
  <path class="cls-1" d="M67.7,99.9l2.2,1.1c0,.1-.2.5-.8,1.1-.8.7-1.6,1.2-2.5,1.4-1,.2-1.9-.1-2.7-.9-.4-.3-.7-.7-1-1.2-.3-.4-.4-.9-.5-1.3-.2-1.1,0-2,.8-2.7.5-.6,1.4-1.1,2.4-1.4.4-.1.9-.2,1.5-.3l.3,2.3c-.2,0-.4,0-.6,0-.5,0-.9.2-1.2.5-.3.2-.4.5-.5.9,0,.4,0,.8.2,1.1.4.5.8.8,1.2.7.4,0,.9-.5,1.3-1.1Z"/>
  <path class="cls-2" d="M143.6,252.8c-18.2,0-27.4-3.3-31.9-5-.4-.1-.7-.3-1-.4-9.5-3.2-17.5-8.5-23.7-15.8h0c-.2-.4-.4-.6-.5-.7,0,0-.1,0-.2.1h0c-1.8.9-3.5,1-5.2,1.2-.7,0-1.3.1-2.1.2l-11.2,1.6,4.5-7.5h-16.6l10.2-9c-1.1-1-1.9-2.3-2.2-3.5v-.2c0,0-.1-.2-.1-.2,0-.4-.1-.9,0-1.3-6.4-5.3-9.6-12.2-9.8-21.2v-.8c0-4.6,1.1-11,4.3-16.1-1.6.6-3.2,1.1-4.9,1.7l-9.8,3.5,2.8-10c.2-.7.6-1.5,1.3-3.3,2.1-4.7,6.4-14.6,8.3-24.7,1.2-5.9,3.7-11,6.1-16,.8-1.6,1.6-3.2,2.3-4.8-1.1-.3-2.1-.5-3.2-.8l-5.7-1.4,1.8-5.3c0-.3.1-.6.3-1.1l.9-2.8,2.9-.7c.6-.1,1.1-.3,1.7-.4.7-.2,1.4-.3,2.1-.5.4-.1.9-.2,1.4-.3.9-.2,1.8-.4,2.6-.6,0,0,.2,0,.3,0l.8-.2c.4,0,.9-.2,1.3-.2.5,0,1-.2,1.5-.2.3,0,.7,0,1,0,2.4,0,4.4,1.2,5.9,2,.1,0,.3.2.4.2,3.3,1.7,6.2,2.5,8.9,2.7-.9-1-1.8-2-2.6-3.1-1-1.1-3.8-4.4-2.7-8.5,1-4.2,5.2-5.7,6.6-6.3,9-3.5,19-8.4,25.2-18.2h0c0-.1,0-.2,0-.2.1-.2.3-.4.6-.7.2-.2.4-.4.6-.6h0c.6-.6,1.3-1,2.2-1.4.3-.1.6-.2.8-.3h.1c.2-.1.4-.2.7-.3l.7-.2h0c.3,0,.7-.1,1-.1h.1c4.9-.3,10-.6,15-.6h.1c3.1,0,6.2.3,9.4.5.4,0,.8,0,1.2,0-.3-1.4-.6-3.1-.6-5v-10.8l8.6,6.5c.4.3.9.5,1.5.9,2.1,1.1,4.1,2.3,5.9,4.5l1.4-7.6,7.2,7.2c.4.4.9.9,1.3,1.3,3.2,3.1,7.6,7.4,8.4,13.9,6.5-1.3,12.4-4.1,18-8.6l4.2-3.4,3.4,4.3c.7.9,2.1,3.3.3,6.6-.3.5-.6,1-1.1,1.7-.7,1.1-1.8,2.6-3.1,4.2-.1.2-.3.4-.4.6,8.4,1.3,15.4,4.6,22.2,7.9,4.6,2.2,9.4,4.5,14.6,6.1l19.2,5.9-19.6,4.5c-.9.2-1.8.4-2.7.6,5.7,5.8,7.8,11.9,9.8,17.4,1.2,3.5,2.4,6.8,4.4,9.8l8.1,12.2-14.1-4c-.1,0-.2,0-.4-.1-2.1,9.6-3.5,18-4.7,26.6.3,2.1,4.2,8.7,7.6,12l5.3,5.3-6.7,3.4c-1.1.5-2,.6-2.7.6s-.4,0-.7,0c0,4.5-1,9.2-2.8,14,0,.2,0,.4,0,.6,0,.7.2,1.6.1,2.6,0,1.6,0,2.4,2,4.5l4.3,4.3-4.8,3.8c-1.3,1-2.9,1.5-4.9,1.5s-4.4-.5-6.7-1c-.2,0-.3,0-.5-.1-2,1.9-4.9,3.6-7.8,4.8.4.6,2.5,3.6,2.5,3.6l4.2,5.9-6.9,2.3c-2.9,1-5.8,1.5-8.9,1.5s-1,0-1.5,0l.9,1.3-8.6,1.2c-.9.1-1.9.2-2.8.2-4.9,0-8.7-1.9-11.9-4.4-8.4,5-18,8.3-29,10.3h-.2s-.2,0-.2,0c-5.6.5-11,.8-15.9.8h0Z"/>
  <path class="cls-2" d="M90.2,120c-6.2,0-11.8-2.3-17.3-7h0c0,0,0-.2,0-.2-.1,0-.2-.1-.2-.1h0c0,0,0-.1,0-.1-.1,0-.2-.2-.2-.2h-.2c0-.1-.2-.3-.2-.3h0s-.2,0-.2,0h0s0,0,0,0h-.2s0,0-.1,0c0,0,0,0,0,0h-.2s-.1,0-.1,0c-.1,0-.2,0-.3,0h0c-4,.6-7.1.8-10.1.8s-5.5-.3-8-.8h0c-10-2.2-14.7-7.3-16.8-11.2-2.2-4-4.1-11-.3-21.3,3.2-8.8,10.3-14.6,16.8-19.1h0c1-.7,2-1.3,2.9-1.9.3-.2.7-.4,1.1-.7.2-.1.4-.3.6-.4.3-.2.6-.3.8-.5.4-.2.8-.4,1.2-.7.4-.2.8-.4,1.1-.6.3-.2.7-.3,1-.5.3-.2.7-.3,1-.5,1.5-.7,3.1-1.4,4.6-2,.3-.1.6-.2.9-.3,0,0,.2,0,.3-.1.4-.2.9-.3,1.3-.4l.8-.4h.4s.4-.1.4-.1c.8-.3,1.7-.6,2.7-.8l.7-.3h.6c.1,0,.2,0,.3,0h.5c.2-.2.3-.2.5-.2.1,0,.2,0,.3,0h.1s.1,0,.1,0c.1,0,.3,0,.4,0,.1,0,.3,0,.4,0,.6-.1,1.2-.3,1.8-.4.4,0,.7-.1,1.1-.2.3,0,.6-.1,1-.2.5,0,1-.2,1.6-.3h0c.1,0,.3,0,.5,0,.3,0,.7-.1,1-.2h.1c.6-.1,1.1-.2,1.7-.3.5,0,1-.1,1.4-.2,1.9-.2,3.8-.4,5.7-.5h1.4c.5-.1,1-.1,1.5-.2h0c.8,0,1.5,0,2.2,0,.2,0,.4,0,.5,0,.6,0,1.2,0,1.9,0,.5,0,.9,0,1.4,0,1.1,0,2.2,0,3.2,0,0,0,.2,0,.4,0,.3,0,.7,0,1,0,.4,0,.8,0,1.1.1.2,0,.5,0,.8.1.2,0,.5,0,.5,0,.6.1,1.1.2,1.7.4.3,0,.6.1.8.2,0,0,0,0,0,0,.2,0,.3.1.5.2.4.1.9.3,1.3.5.2.1.5.2.8.4s0,0,.1,0c.2,0,.4.2.5.3.4.2.8.5,1.2.7,0,0,.2.1.2.1.4.2.8.5,1.1.8.1.1.3.2.5.4,0,0,.2.2.2.2h0c0,.1.2.2.3.3.2.1.3.3.5.4.3.3.5.5.7.8h0c.2.2.3.4.5.6.2.2.4.5.6.7.2.3.4.5.5.7.2.3.3.5.5.7.2.2.3.5.5.8l.3.5h0c.3.6.5,1.1.7,1.7.2.5.4,1.1.6,1.7.2.5.3,1,.4,1.5h0c0,.2,0,.3,0,.5.1.6.2,1.1.3,1.5.2,1.5.3,3.1.2,4.6h0c0,.2,0,.4,0,.7,0,.1,0,.3,0,.4h0c0,0,0,.4,0,.4,0,.4-.1.8-.2,1.2,0,.3,0,.6-.1.8h0c0,.3-.1.7-.2,1-.1.5-.2,1-.4,1.4,0,0,0,.2,0,.2h0c0,.1-.3,1-.3,1-.1.4-.3.7-.4,1.1-.2.4-.3.7-.4,1h0c0,.2-.1.3-.2.4-.2.3-.3.6-.5.9-3.9,6.8-9.6,12.4-17.4,17.1-3.7,2.2-7.6,4-11.2,5.7,1,1.5,2.4,3,4,4.7,1,1.1,2.2,2.3,3.3,3.7l5.5,6.4-8.2,2.3c-2.5.7-4.9,1-7.3,1h0Z"/>
  <path class="cls-2" d="M50.9,145.5c-3,0-5.5-2-6.2-4.9-.5-2.2-.7-2.3-2.9-2.9-2.9-.7-4.9-3.3-4.9-6.2s2-5.5,4.9-6.2c2.2-.5,2.3-.7,2.9-2.9.7-2.9,3.3-4.9,6.2-4.9s5.5,2,6.2,4.9c.5,2.2.7,2.3,2.9,2.9,2.9.7,4.9,3.3,4.9,6.2s-2,5.5-4.9,6.2c-2.2.5-2.3.7-2.9,2.9-.7,2.9-3.3,4.9-6.2,4.9h0Z"/>
  <path class="cls-2" d="M249.2,190c-3.4,0-6.2-2.4-6.7-5.8-.6-3.7-1.2-4.5-4.8-5.7-3-1-4.8-3.9-4.5-7,.3-3.1,2.7-5.6,5.8-6.1,3.7-.6,4.5-1.2,5.7-4.8.9-2.7,3.5-4.6,6.4-4.6s6.2,2.4,6.7,5.8c.6,3.7,1.2,4.5,4.8,5.7,3,1,4.8,3.9,4.5,7-.3,3.1-2.7,5.6-5.8,6.1-3.7.6-4.5,1.2-5.7,4.8-.9,2.7-3.5,4.6-6.4,4.6h0Z"/>
  <path class="cls-2" d="M49.9,139.3c-1-4.2-2.7-5.8-6.9-6.9-1.1-.3-1.1-1.7,0-2,4.2-1,5.8-2.7,6.9-6.9.3-1.1,1.7-1.1,2,0,1,4.2,2.7,5.8,6.9,6.9,1.1.3,1.1,1.7,0,2-4.2,1-5.8,2.7-6.9,6.9-.3,1.1-1.7,1.1-2,0Z"/>
  <path class="cls-2" d="M40.2,81.5c2.6-7.3,8.6-12.2,14.8-16.5.9-.6,1.8-1.2,2.7-1.7.3-.2.7-.4,1-.6.2-.1.4-.2.6-.3.3-.1.5-.3.8-.4.4-.2.8-.4,1.1-.6.3-.2.7-.4,1-.5.3-.2.6-.3.9-.5.3-.2.6-.3,1-.5,1.4-.7,2.8-1.3,4.3-1.8.3-.1.6-.2.9-.3,0,0,.2,0,.2,0,.5-.2,1-.4,1.5-.5,0,0,0,0,0,0,.4-.1.8-.3,1.2-.4,1-.3,2-.6,2.9-.9,0,0,0,0,0,0,.3,0,.6-.2.9-.2.2,0,.3,0,.5-.1.3,0,.5-.1.8-.2.3,0,.6-.1.9-.2.6-.1,1.1-.3,1.7-.4.3,0,.7-.1,1-.2.3,0,.6-.1.9-.2.5,0,1-.2,1.5-.3.2,0,.3,0,.5,0,.4,0,.8-.1,1.1-.2.5,0,1.1-.2,1.6-.2.4,0,.9-.1,1.3-.2,1.8-.2,3.6-.4,5.4-.5.5,0,.9,0,1.4,0,.5,0,.9,0,1.4,0h0c.7,0,1.5,0,2.2,0,.1,0,.2,0,.4,0,.6,0,1.2,0,1.8,0h0c.4,0,.9,0,1.3,0,1.1,0,2.1,0,3.2,0,0,0,0,0,.1,0h0c.3,0,.7,0,1,0,.3,0,.6,0,.8,0,.2,0,.4,0,.6,0,.2,0,.3,0,.5,0,.4,0,.9.2,1.3.3.1,0,.3,0,.4.1,0,0,0,0,0,0,.2,0,.3.1.5.2.3,0,.6.2.8.3.2,0,.4.2.6.3,0,0,0,0,0,0,.1,0,.2.1.4.2.3.2.6.3.8.5,0,0,0,0,.1,0,.3.2.5.4.8.6.1,0,.2.2.3.3,0,0,0,0,0,0,.1,0,.2.2.3.3.1,0,.2.2.3.3.2.2.3.3.5.5.1.2.3.3.4.5.1.2.3.3.4.5.1.2.2.3.4.5.1.2.2.3.3.5.1.2.2.3.3.5,0,.1.2.3.2.4.2.4.4.8.5,1.2.2.4.3.8.4,1.1.1.4.2.8.3,1.1,0,.1,0,.2,0,.4,0,.4.2.8.2,1.2.2,1.2.2,2.4.2,3.6,0,.2,0,.3,0,.5,0,.2,0,.4,0,.6h0c0,.3,0,.7-.1,1,0,.2,0,.4,0,.6,0,.3-.1.5-.2.8,0,.4-.2.7-.3,1.1,0,.3-.2.6-.3.9,0,0,0,0,0,0-.1.3-.2.6-.3.9,0,.2-.2.5-.3.7,0,0,0,.2-.1.3-.1.2-.3.5-.4.7-3.7,6.6-9.2,11.4-15.5,15.1-3.5,2.1-7.2,3.8-10.8,5.5-4.9,2.3-5.4,2.9-2.4,7.5,2,3.1,4.8,5.6,7.9,9.3-7.9,2.2-14.1,0-19.6-4.8-.2-.2-.3-.3-.5-.5-.2-.2-.4-.3-.5-.4-.2-.1-.3-.2-.5-.3,0,0,0,0,0,0-.2,0-.3-.2-.5-.3-.2-.1-.4-.2-.6-.3,0,0,0,0,0,0-.1,0-.3-.1-.4-.1,0,0,0,0,0,0-.2,0-.3,0-.5-.1-.2,0-.4,0-.6-.1h0c-.2,0-.3,0-.5,0-.1,0-.2,0-.3,0-.1,0-.3,0-.4,0s-.4,0-.6,0c0,0-.2,0-.3,0-.2,0-.5,0-.7,0-5.3.7-11,1.2-16.1,0-13.5-3-17.9-12.3-13.2-25.4h0Z"/>
  <path class="cls-2" d="M244,189.7c-.2,0-4.6,0-7.3-2.3,1.7,6.9.8,13.7-1.7,20.3-.5,1.3,0,2.9,0,4.4,0,2.4,0,5,3.6,8.6-1.6,1.3-9.1-1.3-11.6-1.2-.4,0-.6.2,0,.7-1.4,2.9-10.4,7.2-14.3,6.2,2.3,3.4,4.6,6.6,7.4,10.5-6.9,2.4-13.6,1.1-21.4-2.6,1.8,2.5,2.8,4.1,4.4,6.4-5.8.8-9.6-1.9-13.4-5.6-9.3,6.2-19.6,9.7-30.5,11.7-30,2.7-42.3-2.8-46.6-4.3-8.4-2.8-15.7-7.6-21.4-14.2-2.2-2.6-4.1-3.5-7.3-1.9-1.4.6-3.2.5-5.7.9,1.5-2.5,2.5-4.1,3.6-6h-11.9c2.5-2.2,4.7-4.3,7.9-7.2-1.4-.5-2.8-1.1-4-1.7-1,1.1-1.8,2-1.8,2-2.7,0-3.2-1.6-3.2-1.6-.1-.7.3-1.6.9-2.5-7-4.4-10.6-10.4-10.7-19.2v-.7c0-4.9,1.5-10.8,4.6-14.6,1.5-1.7,3.7-2.8,5-4.6,1.5-2,2.3-5.2,3.2-7.5-7.5,2.6-13.6,4.7-20.5,7.2.5-1.6,7.1-14.8,9.8-28.5,1.8-9.1,7.4-16.7,10.3-25.7-2.4-.5-5.8-1.4-9.2-2.2,0-.3,0-.5.2-.8,1.3-.3,2.5-.6,3.8-.9.4-.1.9-.2,1.3-.3.8-.2,1.7-.4,2.5-.6,0,0,.1,0,.2,0l.8-.2c.4,0,.8-.2,1.2-.2.5,0,.9-.2,1.4-.2,1.2-.2,2.7.9,4,1.6,6.9,3.5,13.8,4.8,21.6,1.1-3.2-3.5-6-6.6-8.6-9.7-2.5-2.8-2.5-4.6,1.6-6.2,11-4.3,21.2-9.9,27.9-20.4,0,0,0-.1.2-.2,0,0,.1-.1.2-.2.2-.2.6-.4.9-.5.1,0,.2,0,.4-.1.1,0,.3,0,.4-.1h0c.3,0,.5-.1.8-.2,4.9-.3,9.8-.5,14.7-.5,4.7,0,9.5.5,14.6.8,3.7-1.5.9-6.1.9-10.6,3.6,2.7,8.2,1.8,12.5,18.3.4,0,2.9-13.8,2.9-13.8,4.6,4.6,10.1,8.7,7.7,17.4,10.5-.5,19.3-4.1,27.2-10.6.4.5-7.1,10.3-11,14.7,18.9-1.5,29.9,9.1,46.3,14.1-5.1,1.2-9.1,2.2-13.6,3.4,17.2,10.2,14.6,21.9,21.8,32.8-1.3-.4-3.1-.8-5.9-1.5-2.6,11.2-4.5,21.4-6,32.6-.5,3.7,5.5,12.7,9.1,16.4h0Z"/>
  <path class="cls-2" d="M260.5,175.4c-5.7.9-8.1,2.9-10,8.3-.5,1.4-2.4,1.2-2.6-.2-.9-5.7-2.9-8.1-8.3-10-1.4-.5-1.2-2.4.2-2.6,5.7-.9,8.1-2.9,10-8.3.5-1.4,2.4-1.2,2.6.2.9,5.7,2.9,8.1,8.3,10,1.4.5,1.2,2.4-.2,2.6Z"/>
  <path class="cls-1" d="M234.9,173.3c1.5-11.2,3.4-21.4,6-32.6,2.8.7,4.6,1.2,5.9,1.5-7.2-10.8-4.6-22.6-21.8-32.8,4.5-1.2,8.5-2.2,13.6-3.4-16.4-5-27.4-15.6-46.3-14.1,3.9-4.4,11.4-14.2,11-14.7-7.9,6.5-16.8,10.1-27.2,10.6,2.4-8.7-3.1-12.9-7.7-17.4,0,0-2.6,13.7-2.9,13.8-4.3-16.5-8.9-15.6-12.5-18.3,0,4.6,2.7,9.1-.9,10.6-5.1-.3-9.8-.7-14.6-.8-4.8,0-9.7.3-14.7.5-.2,0-.5,0-.8.2h0c-.1,0-.3,0-.4.1-.1,0-.2,0-.4.1-.3.2-.7.3-.9.5,0,0-.1.1-.2.2,0,0-.1.1-.2.2-6.6,10.5-16.8,16.1-27.9,20.4-4.1,1.5-4.1,3.4-1.6,6.2,2.6,3.2,5.5,6.3,8.6,9.7-7.7,3.7-14.7,2.4-21.6-1.1-1.3-.7-2.8-1.8-4-1.6-.5,0-.9.1-1.4.2-.4,0-.8.1-1.2.2l-.8.2c0,0-.1,0-.2,0-.8.2-1.7.4-2.5.6-.4,0-.9.2-1.3.3-1.3.3-2.5.6-3.8.9,0,.3,0,.5-.2.8,3.4.8,6.8,1.6,9.2,2.2-2.9,9-8.6,16.6-10.3,25.7-2.7,13.7-9.3,26.8-9.8,28.5,6.9-2.5,13-4.6,20.5-7.2-.9,2.3-1.7,5.5-3.2,7.5-1.3,1.7-3.6,2.8-5,4.6-3.1,3.7-4.6,9.7-4.6,14.6v.7c.1,8.8,3.7,14.8,10.7,19.2,1.2.8,2.6,1.5,4,2.2,1.2.6,2.6,1.1,4,1.7-3.2,2.9-5.5,5-7.9,7.2h11.9c-1.2,1.9-2.2,3.6-3.6,6,2.6-.4,4.4-.3,5.7-.9,3.2-1.5,5.1-.7,7.3,1.9,5.7,6.6,13,11.4,21.4,14.2,4.3,1.5,16.6,7,46.6,4.3,10.9-1.9,21.2-5.5,30.5-11.7,3.8,3.6,7.6,6.4,13.4,5.6-1.5-2.3-2.6-3.8-4.4-6.4,7.8,3.7,14.5,5,21.4,2.6-2.7-3.8-5.1-7.1-7.4-10.5,3.9,1,12.9-3.3,14.3-6.2-.6-.5-.4-.7,0-.7,2.5,0,10,2.5,11.6,1.2-3.6-3.6-3.7-6.2-3.6-8.6,0-1.5-.5-3.1,0-4.4,2.6-6.6,3.5-13.4,1.7-20.3,2.8,2.3,7.1,2.4,7.3,2.3-3.6-3.6-9.7-12.7-9.1-16.4h0ZM189.5,169.2c7.5,9.1,4.3,21.4-6.5,25.6,0,0-.2,0-.3.1-2.8,1.1-14.8,1.2-17.5.4-6.1-2-10.6-5.7-11.8-12.2h0s0,0,0,0c0-.1,0-.2,0-.4-.9-5.2.7-9.3,3.7-12.7,0,0,0,0,0,0,1.1-1.2,2.3-2.3,3.7-3.4,4-3,8.9-4.3,13.7-4.2h0c5.8.2,11.4,2.6,15,6.9h0ZM184,161.3c-12-3.8-22.1-1.3-31.1,8.9-1.2-3-2.3-5.1-2.9-7.3-1.5-4.6,0-7.1,4.6-6.8,8.6.5,17.2,1.6,25.8,2.6,1.4.2,2.5,1.4,3.6,2.5ZM153.3,136.8c1.6-2.7,4.1-2.5,7.9-1,4.9,2,7.6,4.8,9.9,8.7,1.6,2.5,3.5,5.1,5.1,7.6.5.7.8,1.4,1.4,2.3-9.2-.8-18.1-1.5-27-2.5-.9,0-2.5-1.7-2.4-2.3,1.5-4.4,2.6-9,5-12.8h0ZM145,166.4c4.4,2.7,6.1,6.3,5,10.7-1.6,6.8,1,12.6,6.6,17.3,6.2,5.2,20.8,5.2,29.5,2.1,10.8-3.9,12.9-15.6,6.7-26.4,1.5.3,2.3.5,3.9.9-1.8-3.5-3.4-6.3-5-9.3.8-.2,1.4-.4,1.4-.3,6.5,8.8,11.2,18.1,9.3,29.5-.7,4.3-3,7.3-7.3,8.1-14.2,3-28.3,1.8-42.2-1.9-5-1.4-8-5.3-8.9-10.7-1-6.7-1.1-13.4,1-20ZM140.5,167.4c-.4.5-1.5,1.2-1.9,1-.7-.3-1.5-1.2-1.7-2-.4-1.8-.3-3.6-.5-5.6-.3-1.7-.7-3.5-1.1-5.4,5.2,1.5,7.8,7.8,5.3,11.9ZM106.4,175.1s0,0,.1-.1c0,0,0,0,.1-.1,0,0,.2-.2.3-.3.2-.2.5-.4.8-.6.1,0,.2-.2.4-.2.3-.1.6-.3.9-.4.7-.2,1.3-.2,1.9,0,.6.1,1.2.5,1.7.9.5.5.9,1.2,1.1,1.9,0,.4.1.7.2,1.1,0,.1,0,.3,0,.4,0,.6-.2,1.2-.5,1.7-.3.4-.7.9-1.2,1.1-.6.3-1,.4-1.7.4-.4,0-.8,0-1.2-.1-.4,0-.8-.3-1.2-.4-.2,0-.4-.2-.6-.3-.3-.2-.7-.5-.9-.8-.4-.4-.7-.8-.8-1.4-.1-.5-.2-1.1,0-1.6.2-.5.3-.7.7-1.2h0ZM98.3,161.2c3.9-1.8,5.5.2,7.4,3.3-3.1,1.8-6,3.6-9.3,5.6-1.1-3.6-2.8-6.6,1.9-8.8h0ZM89.3,170.2c3.6,1.2,5.8,2.5,5.2,7.4-.9,7.1,5.6,12.8,13.3,12.8s12.9-6.6,12.8-13.8c0-1.9.3-3.8.5-6.8-.5-.4-1.8-1-2.5-2-.6-1-.6-2.5-.9-3.7,1.5,0,3.4-.7,4.2,0,7.3,5.6,7.3,16.3,1,23-9.2,10-28.8,7.3-34.6-5.3,1.4,0,2.5,0,4.1.3-3.7-4.3-4.7-8.2-3-11.7h0ZM83,177.1c5.1,16.7,21.3,23.2,36.2,16.3,11.1-5.2,14.7-16.4,8-26.6-1.4-2.1-3.2-3.9-4.7-5.9,0-.3,0-.7.3-.9,2-1.5,4.2-3,6.3-4.6,1.1,2.4,2.6,4.6,3.2,7.2,2,8.9.8,17.8-1.8,26.5-1.5,4.8-5.1,7.5-9.8,7.6-7.9.3-15.9.5-23.8-.3-11.4-1.3-14.8-6.4-13.7-19.3ZM227.6,214.3c-3.1-1.8-2.2-3.2-2-6.5,0-1.8-.5-4.4-1.7-5.4-1.5-1.1-3.9-1-6-1-1,0-2,.6-3,1.1,2.5-4.5,5-8.9,7.5-13.4-5.3,3.3-8.4,8-9.8,13.7-2.1,7.9,2.4,12.4,10.3,10.5,3,3.8.5,5.8-6.2,7.3-.8-1.7-1.8-4.5-2.6-6.2-.5,0-3.1.9-3.6.9.9,2.7,2.5,4.5,1.8,7.3-1.8-.2-5.8-.5-8.2-.7.4-2.2.7-3.7,1-5.3-1.9,1-2.7,2.5-3.9,3.6-5,4.7-9.5,10.5-15.3,13.9-24.3,14.2-50,14.3-75.9,4.6-14.2-5.3-23.1-15.7-25.1-31.2,0-1.2-.8-2.4-1.3-3.6-.4,0-.7.2-1.1.4v6.4c-2.4,0-4.5-.3-6.4-.7-1.8-.4-3.3-.9-4.7-1.6-5-2.5-7.9-6.9-9.9-13.1-.8-2.6-1.3-5.4-1.2-8.2,0-.8.1-1.7.5-2.5h0c.7-1.7,1.6-3.4,2.7-4.9,0,0,0,0,0,0,1.6-2.1,3.5-3.9,5.7-5,7.1,1.2,9.3,3.3,11.1,11.2.2.9.4,1.7.7,2.6.6,1.7,1.3,3.2,2.2,4.5,2.4,3.4,5.9,5.5,10.7,6.1,7.6.8,15.2,1.6,22.8,1.4,12.3-.5,17.3-5.4,20-17.6.4-1.3.7-2.6,1.2-3.8.4,0,.8,0,1.3,0,.2,2.3.3,4.6.5,6.8.8,6.5,2.8,12.1,9.8,14,14.8,4.1,30,5.6,45.3,3,5-.8,9.1-3.3,10.9-8.7,1,1.5,1.7,2.6,2.5,3.7,1.1-2,1.2-3.9,1.4-5.8.7-6.4,6.2-11.5,12.3-11.6,4.6,0,11.8,6.1,12.6,10.8,1.1,8-1.1,16.9-6.9,23h0ZM214.7,202.7c1.2.3,2.4.5,3.5.9,1.4.5,2.7,1,4.1,1.5-.7,1.2-1.4,3.2-2.4,3.5-1.5.4-3.7,0-4.7-1.1-.8-.9-.4-3.1-.5-4.7h0Z"/>
  <path class="cls-1" d="M104.5,207.8c1.1,6.5,3.2,13.2,10.7,16.8,14.4,6.9,29.3,8,44.3,2.6,6.4-2.4,10.4-7.3,12.3-13.7-22.4-4.5-44.6-7.3-67.3-5.6ZM107.8,210.3c20.2-1.5,39.4,1.1,59.1,5.3-7.4,3.5-54-.5-59.1-5.3Z"/>
  <path class="cls-1" d="M118.9,64.9c0-.4-.1-.8-.2-1.2,0-.1,0-.2,0-.4,0-.4-.2-.8-.3-1.1-.1-.4-.3-.8-.4-1.1-.2-.4-.3-.8-.5-1.2,0-.1-.2-.3-.2-.4,0-.2-.2-.4-.3-.5s-.2-.3-.3-.5c-.1-.2-.2-.3-.4-.5-.1-.2-.2-.3-.4-.5-.1-.2-.3-.3-.4-.5-.2-.2-.3-.3-.5-.5-.1-.1-.2-.2-.3-.3,0,0-.2-.2-.3-.3,0,0,0,0,0,0-.1,0-.2-.2-.3-.3-.2-.2-.5-.4-.8-.6,0,0,0,0-.1,0-.3-.2-.6-.3-.8-.5-.1,0-.2-.1-.4-.2,0,0,0,0,0,0-.2,0-.4-.2-.6-.3-.3-.1-.5-.2-.8-.3-.2,0-.3-.1-.5-.2,0,0,0,0,0,0-.1,0-.2,0-.4-.1-.4-.1-.8-.2-1.3-.3-.2,0-.3,0-.5,0-.2,0-.4,0-.6,0-.3,0-.5,0-.8,0-.3,0-.6,0-1,0h0s0,0-.1,0c-1.1,0-2.1,0-3.2,0s-.9,0-1.3,0h0c-.6,0-1.2,0-1.8,0-.1,0-.2,0-.4,0-.7,0-1.5,0-2.2,0h0c-.5,0-.9,0-1.4,0-.4,0-.9,0-1.4,0-1.8.1-3.6.3-5.4.5-.4,0-.9,0-1.3.2-.5,0-1.1.1-1.6.2-.4,0-.8.1-1.1.2-.2,0-.3,0-.5,0-.5,0-1,.2-1.5.3-.3,0-.6.1-.9.2-.3,0-.7.1-1,.2-.6.1-1.1.2-1.7.4-.3,0-.6.1-.9.2-.3,0-.5.1-.8.2-.2,0-.3,0-.5.1-.3,0-.6.1-.9.2,0,0,0,0,0,0-1,.3-2,.6-2.9.9-.4.1-.8.2-1.2.4,0,0,0,0,0,0-.5.2-1,.3-1.5.5,0,0-.2,0-.2,0-.3.1-.6.2-.9.3-1.4.6-2.9,1.2-4.3,1.8-.3.1-.6.3-1,.5-.3.2-.6.3-.9.5-.3.2-.7.3-1,.5-.4.2-.8.4-1.1.6-.3.1-.5.3-.8.4-.2.1-.4.2-.6.3-.3.2-.7.4-1,.6-.9.5-1.8,1.1-2.7,1.7-6.2,4.3-12.1,9.2-14.8,16.5-4.7,13.1-.3,22.4,13.2,25.4,5.1,1.1,10.8.6,16.1,0,.3,0,.5,0,.7,0,0,0,.2,0,.3,0,.2,0,.4,0,.6,0s.3,0,.4,0c.1,0,.2,0,.3,0,.2,0,.3,0,.5,0h0c.2,0,.4,0,.6.1.2,0,.3,0,.5.1,0,0,0,0,0,0,.1,0,.3,0,.4.1,0,0,0,0,0,0,.2,0,.4.2.6.3.2,0,.3.2.5.3,0,0,0,0,0,0,.2,0,.3.2.5.3.2.1.4.3.5.4.2.1.3.3.5.5,5.5,4.7,11.7,7,19.6,4.8-3.1-3.6-5.9-6.2-7.9-9.3-3-4.6-2.5-5.2,2.4-7.5,3.6-1.6,7.4-3.4,10.8-5.5,6.3-3.7,11.7-8.6,15.5-15.1.1-.2.3-.5.4-.7,0,0,0-.2.1-.3.1-.2.2-.5.3-.7.1-.3.2-.6.3-.9,0,0,0,0,0,0,.1-.3.2-.6.3-.9.1-.3.2-.7.3-1.1,0-.3.1-.5.2-.8,0-.2,0-.4,0-.6,0-.3,0-.7.1-1h0c0-.2,0-.4,0-.6,0-.2,0-.3,0-.5,0-1.2,0-2.4-.2-3.6h0ZM115.1,73.2c-2.8,5.1-7.4,9.7-12,13.4-4.5,3.5-10,5.6-15.2,8.2-4.8,2.3-5.6,3.6-3.3,8.6,0,0,0,0,0,.1.4,1.2,1.1,2.1,1.6,2.8,1.1,1.7,2.3,3.4,3.6,5.3h0c-2.3,0-4.6-.5-7.4-1.6-2.2-1-4.2-2.4-6-4.3-1.9-2.2-3.6-2.3-6.2-1.7-7,1.5-14.1,2.2-20.8-1.3-6.5-3.3-9-7.7-8.2-14.4h0c0-.6.2-1.2.3-1.9.4-2.2,1.2-4.3,2.2-6.1,1.6-3,3.9-5.6,6.5-8,11.4-10.3,24.4-15.3,38.4-16.7,1.7-.2,3.4-.3,5.2-.4.3,0,.7,0,1,0,1.4,0,2.8,0,4.2,0,1.2,0,2.4,0,3.6,0h0c1.5,0,2.9.2,4.4.3.3,0,.5,0,.8,0,7.6,1.1,11.6,10,7.4,17.6h0Z"/>
  <path class="cls-1" d="M79,194.9c0-.2-.1-.3-.2-.5-.6-1.4-1.3-2.8-2.1-4h0c-2-3-4.6-5.3-8.1-6.7-.7-.3-1.5-.3-2.3-.2,0,0-.1,0-.2,0-.3,0-.6,0-.9,0,0,.4-.1.7-.2,1.1.1,0,.2,0,.3.2.7.3,1.4.7,2.2,1,4.3,1.7,7.6,4.5,8.8,9.1.2.9-.7,2-1,3-.9-.7-2.4-1.3-2.7-2.2-.5-1.4-.1-3.1-.1-4.7-.5,0-.9,0-1.4-.2-.2,2.2-.9,4.6-.3,6.6.8,2.7,2.4,5.9,6,4.4,3.1-1.3,3.1-4.1,2.1-6.9,0,0,0,0,0,0h0Z"/>
  <path class="cls-1" d="M174.3,166.8c-.7,0-1.3-.1-2-.1-4.8,0-8.9,2.3-11.5,5.8,0,0,0,0,0,0-1.8,2.4-2.8,5.5-2.9,8.8,0,.3,0,.7,0,1,0,0,0,0,0,0,.5,6.2,6.8,11.2,14.2,11.1,3.3,0,6.3-1,8.7-2.9,3.4-2.5,5.5-6.5,5.6-11.2,0-6.6-5.2-11.8-12.2-12.6ZM174.9,182.3c-.3.3-.6.5-.9.8-.2.1-.4.2-.6.3-.2,0-.4.2-.6.2-.4.1-.9.2-1.3.2-.5,0-1,0-1.4-.2-.6-.2-1.1-.5-1.5-.9-.4-.4-.7-.9-.9-1.5-.3-.7-.2-1.7,0-2.4.3-.8.7-1.6,1.4-2.1.2-.2.5-.4.7-.5.3-.1.5-.3.8-.4.2,0,.3,0,.5-.1,0,0,0,0,.1,0,.4-.1.9-.2,1.4-.2.6,0,1.1.2,1.7.4.8.4,1.4,1.3,1.7,2.2.4,1.5,0,3.2-1.1,4.4h0Z"/>
  <path class="cls-1" d="M103.1,57s0,0-.1,0v.2c0,0,0,0,.1-.1h0Z"/>
  <path class="cls-1" d="M58.8,132.4c-4.2,1-5.8,2.7-6.9,6.9-.3,1.1-1.7,1.1-2,0-1-4.2-2.7-5.8-6.9-6.9-1.1-.3-1.1-1.7,0-2,4.2-1,5.8-2.7,6.9-6.9.3-1.1,1.7-1.1,2,0,1,4.2,2.7,5.8,6.9,6.9,1.1.3,1.1,1.7,0,2Z"/>
  <path class="cls-1" d="M260.5,175.4c-5.7.9-8.1,2.9-10,8.3-.5,1.4-2.4,1.2-2.6-.2-.9-5.7-2.9-8.1-8.3-10-1.4-.5-1.2-2.4.2-2.6,5.7-.9,8.1-2.9,10-8.3.5-1.4,2.4-1.2,2.6.2.9,5.7,2.9,8.1,8.3,10,1.4.5,1.2,2.4-.2,2.6Z"/>
  <path class="cls-1" d="M79,207.3c-.4.1-1.8,1.4-3.2,2.8-.7.8-1.5,1.6-2.2,2.3-1,1.1-1.8,2-1.8,2-2.7,0-3.2-1.6-3.2-1.6-.1-.7.3-1.6.9-2.5.4-.6.9-1.2,1.5-1.8,1.6-1.7,3.5-3.2,3.5-3.2,0,0,5.5,1.8,4.4,2.1h0Z"/>
  <path class="cls-1" d="M58.7,81.6l-1.9,1,5.3,11.5-5.2,2.4-4.4-11.6-3,1.6-1.4-3.5,9-4.7,1.6,3.3h0Z"/>
  <path class="cls-1" d="M59,78.1l4.4-1.7,1.6,3.2,2.4-5.4c1,.4,1.8.8,2.3,1,1.6.7,2.3,1.1,2.3,1.1l-2.9,6.5,6.9,1.6c-.2.7-.5,1.4-.8,2.3-.5,1.5-.7,2.3-.7,2.3l-4.9-1,1.1,2.2-5.2,2.4-6.5-14.5h0Z"/>
  <path class="cls-1" d="M74.7,78.4l-.3-.3c-.3-.4-.5-.9-.7-1.3-.6-1.5-.4-2.9.5-4.2.7-1,1.9-2,3.6-2.9.8-.4,1.6-.8,2.4-1l2,5.1c.1-.1,0-.2-.5-.2-.5,0-1,0-1.5.1-1.5.4-2,1-1.5,1.9,0,.3.4.5,1.1.5h2.1c2.1.2,3.4.8,4,2,.2.4.3.9.4,1.4.2,1,0,2-.5,2.8-1,1.7-2.6,2.9-4.8,3.6-.8.3-1.5.4-2.2.5-.6,0-.9,0-.8,0l-1.2-3.3c.4,0,.9-.2,1.3-.3,1-.3,1.7-.8,2.1-1.4.2-.4.2-.7-.1-.8-.2,0-.6-.2-1.4-.3-1.8-.2-3-.8-3.6-1.7,0,0,0,0,0,0h0Z"/>
  <path class="cls-1" d="M96.2,71.2l-4.3,2-4.1-8.9,4.4-2.6,4,9.4ZM96.8,78.5c.6-.3,1.1-.9,1.3-1.7.2-.8.2-1.6-.1-2.2-.3-.6-.8-1-1.4-1.1-.6,0-1.2,0-1.9.3-.6.3-1,.8-1.2,1.6-.1.7,0,1.4.3,2.1.6,1.3,1.6,1.6,3,1Z"/>
  <path class="cls-1" d="M103.3,68l-4.3,2-4.1-8.9,4.4-2.6,4,9.4ZM103.8,75.3c.6-.3,1.1-.9,1.3-1.7.2-.8.2-1.6-.1-2.2-.3-.6-.8-1-1.4-1.1-.6,0-1.2,0-1.9.3-.6.3-1,.8-1.2,1.6-.1.7,0,1.4.3,2.1.6,1.3,1.6,1.6,3,1Z"/>
</svg>