<?xml version="1.0" encoding="UTF-8"?>
<svg id="Layer_1" data-name="Layer 1" xmlns="http://www.w3.org/2000/svg" version="1.1" viewBox="0 0 450 450">
  <defs>
    <style>
      .cls-1 {
        fill: #002b22;
      }

      .cls-1, .cls-2 {
        stroke-width: 0px;
      }

      .cls-2 {
        fill: #efff3d;
      }
    </style>
  </defs>
  <path class="cls-1" d="M92.2,115.7l6.9-2.4,10.4,20.6-7.5,3.6-3.7-8.6-3.5,1.6,3.5,8.6-7.1,3.1-8.7-22.3,6.6-2.3,3.5,7.9,3.4-1.5-3.7-8.2h0Z"/>
  <path class="cls-1" d="M119.1,129.4l-7.8,3.5-8.4-21.9,6.2-3.3,10,21.6h0Z"/>
  <path class="cls-1" d="M132.2,112.4l-6.4,3.1-6.1-13.3,6.6-3.9,5.9,14.2ZM133,123.3c.9-.4,1.6-1.3,2-2.6.3-1.2.3-2.3-.2-3.4-.4-.9-1.1-1.5-2.1-1.7-.9-.1-1.9,0-2.9.5-.9.4-1.5,1.2-1.8,2.4-.2,1.1,0,2.2.4,3.2.9,2,2.4,2.5,4.6,1.5h0Z"/>
  <path class="cls-1" d="M142.8,107.6l-6.4,3.1-6.1-13.3,6.6-3.9,5.9,14.2ZM143.6,118.5c.9-.4,1.6-1.3,2-2.6.3-1.2.3-2.3-.2-3.4-.4-.9-1.1-1.5-2.1-1.7-.9-.1-1.8,0-2.9.5-.9.4-1.5,1.2-1.8,2.4-.2,1.1,0,2.2.4,3.2.9,2,2.4,2.5,4.6,1.5h0Z"/>
  <path class="cls-2" d="M215.4,377.9c-27.1,0-40.8-5-47.4-7.3-.6-.2-1.1-.4-1.5-.5-14-4.7-25.8-12.5-35-23.3h0c-.8-1.1-1.3-1.5-1.6-1.7-.2,0-.6.2-1.2.5h0c-2.4,1.2-4.8,1.4-7.3,1.6-1,0-2,.2-3.2.3l-13.9,2,6.5-10.9h-23.7s13.6-12.1,13.8-12.3c-2.2-1.4-3.6-3.5-4.1-5.5v-.3c0,0-.1-.3-.1-.3-.1-.8-.2-1.6,0-2.3-9.7-7.7-14.5-17.9-14.7-31.2v-1.1c-.1-7.6,2-18.5,8.4-26.2h0c.2-.2.3-.4.5-.6-3.8,1.3-7.6,2.6-11.5,4.1l-12.2,4.3,3.5-12.5c.3-.9.7-2,1.9-4.8,3.1-7.2,9.6-22,12.6-37.4,1.7-8.7,5.4-16.3,9-23.7,1.4-3,2.8-5.9,4.1-8.8-2.1-.5-4.3-1-6.3-1.5l-7.1-1.7,2.2-6.7c0-.3.2-.9.4-1.5l1.2-3.5,3.6-.9c.8-.2,1.7-.4,2.5-.6,1.1-.3,2.1-.5,3.2-.8.7-.2,1.4-.3,2-.5,1.4-.3,2.7-.6,3.9-.9.1,0,.3,0,.4,0l1.2-.2c.6-.1,1.3-.2,1.9-.4.8-.1,1.5-.3,2.2-.4.4,0,.9,0,1.4,0,3.3,0,6.1,1.7,8.1,2.9.2.1.5.3.7.4,5.7,2.9,10.6,4.2,15.2,4.2s1.1,0,1.7,0c-2-2.3-4-4.5-5.8-6.8-1.4-1.6-5.2-6.1-3.8-11.5,1.4-5.6,7.1-7.7,9-8.5,13.7-5.3,28.9-12.8,38.5-27.9v-.2c0,0,.2-.1.2-.1.2-.2.4-.6.7-.9.3-.3.5-.5.8-.8h0c.8-.8,1.8-1.4,2.9-1.9.4-.2.8-.3,1.1-.4h.1c.3-.1.6-.3,1-.4l.9-.2h0c.5-.1,1-.2,1.5-.2h.1c7.3-.4,14.9-.8,22.4-.8h.1c4.7,0,9.2.4,14.1.7,1.2,0,2.3.2,3.5.2,0-.4-.2-.9-.2-1.2-.4-2.3-.9-4.8-.9-7.7v-13.5l10.8,8.1c.6.5,1.4.9,2.4,1.4,3.6,1.9,7.1,4.2,10.3,8.8l2.2-11.8,9,9c.7.7,1.3,1.3,2,1.9,5.1,5,11.7,11.4,12.4,21.4,10.5-1.8,20.1-6.2,29-13.5l5.3-4.3,4.3,5.3c1.1,1.4,2.6,4.3.3,8.3-.4.7-.9,1.4-1.5,2.4-1.1,1.6-2.7,3.8-4.5,6.3-.7.9-1.4,1.8-2.1,2.7,13.4,1.6,24.5,6.9,35.2,12,7,3.3,14.2,6.8,22.1,9.2l24,7.3-24.5,5.7c-2.3.5-4.4,1-6.5,1.5,9.6,9.1,13,18.6,16.1,27.3,1.9,5.3,3.7,10.4,6.8,15.1l10.1,15.3-17.6-5c-.6-.2-1.2-.3-2-.5-3.3,15.1-5.6,28.2-7.3,41.5.2,3,6.4,13.7,11.7,19l6.6,6.6-8.4,4.2c-1.3.7-2.6.7-3.5.7s-1.2,0-2.4-.2c.1,7.2-1.3,14.6-4.2,22.3,0,.3,0,.9.1,1.3.1,1,.2,2.3.2,3.7,0,2.6-.1,4.3,3.4,7.8l5.4,5.4-6,4.7c-1.7,1.3-3.8,2-6.5,2s-6.4-.7-9.8-1.5c-.5,0-1-.2-1.5-.3-3.2,3.3-8.3,6.2-13.4,8.1,1,1.4,2,2.8,3.1,4.3l7,9.8-8.6,2.9c-4.2,1.5-8.5,2.2-12.8,2.2s-3.2,0-4.9-.3l1.7,2.5-10.7,1.5c-1.3.2-2.7.3-4,.3-7.3,0-12.9-3-17.7-6.9-12.7,7.6-27.1,12.8-43.9,15.7h-.3c0,0-.3,0-.3,0-8.4.8-16.4,1.1-23.8,1.1h0Z"/>
  <path class="cls-2" d="M135.3,178.7c-9,0-17.1-3.3-25-10.1h-.1c0,0-.1-.2-.1-.2-.2-.2-.3-.3-.3-.3h0c0,0,0-.2,0-.2-.2-.2-.3-.3-.4-.3,0,0-.2-.2-.3-.2l-.4-.3h0c0,0,0,0,0-.1,0,0,0,0-.1,0h-.4c0-.1,0-.1,0-.1h-.3c0,0-.2,0-.2,0h-.3s-.2,0-.2,0-.1,0-.3,0h-.3s0,0,0,0h-.1c-.1,0-.4,0-.6,0h0c-5.9.8-10.6,1.2-14.9,1.2s-8.1-.4-11.6-1.1h0c-11.7-2.6-19.8-8-24.3-16.2-4.6-8.3-4.7-19-.4-30.8,4.7-12.9,15.1-21.4,24.6-28h0c1.5-1.1,2.9-2,4.3-2.8.5-.3,1.1-.7,1.7-1,.3-.2.6-.4.9-.6h0c.4-.3.8-.5,1.2-.7.6-.3,1.2-.7,1.8-1,.6-.3,1.2-.6,1.6-.9.5-.3,1-.5,1.5-.8.5-.2,1-.5,1.6-.7,2.3-1.1,4.6-2.1,6.8-2.9.4-.2.9-.3,1.3-.5h.1c.1,0,.2-.1.3-.2.7-.2,1.3-.5,1.9-.7l1-.5h.5c0,0,.8-.2.8-.2,1.3-.4,2.7-.8,4.1-1.2l.8-.4h.7c.2,0,.4-.1.6-.2l.7-.2c.2,0,.5-.1.7-.2.2,0,.3,0,.5-.1h.1s.2,0,.2,0c.2,0,.4,0,.6-.1.2,0,.4,0,.6-.1.9-.2,1.8-.4,2.7-.6.5-.1,1.1-.2,1.6-.3.5-.1,1-.2,1.4-.3.8-.1,1.5-.3,2.3-.4h0c.3,0,.5,0,.8-.1.5,0,1-.2,1.5-.2h.2c.8-.2,1.7-.3,2.5-.4.7-.1,1.4-.2,2.1-.3,2.8-.3,5.7-.6,8.4-.8h2c.7-.2,1.5-.2,2.2-.2h0c1.1,0,2.2,0,3.2-.1.3,0,.5,0,.7,0,.9,0,1.9,0,2.8,0,.7,0,1.4,0,2.1,0,1.6,0,3.3,0,4.8,0,.2,0,.4,0,.6,0,.5,0,1,0,1.5,0,.6,0,1.1,0,1.6.2.3,0,.7,0,1.2.2.3,0,.5,0,.7.1.8.2,1.6.3,2.4.6.4,0,.8.2,1.1.3,0,0,0,0,.2,0,.2,0,.5.2.7.2.6.2,1.2.4,1.9.7.4.2.8.3,1.2.5,0,0,.1,0,.2.1.3.1.5.3.7.4.6.3,1.1.6,1.7,1,0,0,.2.2.2.2.5.3,1.1.7,1.6,1.1.2.2.4.3.7.5,0,0,.3.2.3.2h0c.1.2.3.3.5.5.2.2.5.4.7.6.4.4.7.7,1.1,1.1h0c.2.3.5.6.7.8.3.3.5.6.8,1,.3.4.5.7.7,1,.3.4.5.7.7,1,.2.4.4.7.7,1.1l.4.7h0c.4.9.7,1.6,1,2.4.3.7.6,1.5.9,2.4.2.8.4,1.5.6,2.1h0c0,.3,0,.5.1.7.2.8.3,1.5.4,2.2.3,2.2.4,4.4.3,6.6h0c0,.3,0,.6,0,1,0,.2,0,.4,0,.7h0c0,0,0,.5,0,.5,0,.6-.1,1.2-.2,1.8,0,.4-.1.8-.2,1.1h0c0,.5-.2,1-.3,1.5-.2.7-.3,1.4-.5,2,0,.2-.1.4-.2.6h0c0,.1-.4,1.3-.4,1.3-.2.5-.4,1-.6,1.5-.2.5-.4,1-.6,1.4v.2c-.2.2-.2.3-.3.5-.2.5-.5.9-.7,1.3-5.7,10-14.1,18.2-25.6,25.1-5.5,3.4-11.4,6.1-16.9,8.5-.4.2-.8.4-1.2.6.1.2.3.5.5.8h0c1.6,2.6,3.8,5,6.4,7.7,1.5,1.6,3.2,3.5,5,5.5l6.9,8.1-10.2,2.8c-3.6,1-7.2,1.5-10.6,1.5h0Z"/>
  <path class="cls-2" d="M76.4,216.9c-3.8,0-7.1-2.6-8.1-6.4-.9-3.8-1.5-4.4-5.4-5.3-3.7-.9-6.3-4.2-6.3-8s2.6-7.1,6.4-8.1c3.8-.9,4.4-1.5,5.3-5.4.9-3.7,4.2-6.3,8-6.3s7.1,2.6,8.1,6.4c.9,3.8,1.5,4.4,5.4,5.3,3.7.9,6.3,4.2,6.3,8s-2.6,7.1-6.4,8.1c-3.8.9-4.4,1.5-5.3,5.4-.9,3.7-4.2,6.3-8,6.3h0Z"/>
  <path class="cls-2" d="M373.7,283.7c-4.4,0-8.1-3.2-8.7-7.5-.9-6.1-2.2-7.6-8-9.7-3.9-1.3-6.3-5.1-5.9-9.2.4-4,3.5-7.3,7.5-7.9,6.1-.9,7.6-2.2,9.7-8,1.3-3.6,4.5-5.9,8.3-5.9s8.1,3.2,8.7,7.5c.9,6.1,2.2,7.6,8,9.7,3.9,1.3,6.3,5.1,5.9,9.2-.4,4.1-3.5,7.3-7.5,7.9-6.1.9-7.6,2.2-9.7,8-1.3,3.6-4.5,5.9-8.3,5.9Z"/>
  <path class="cls-2" d="M74.9,209c-1.5-6.3-4-8.8-10.3-10.3-1.6-.4-1.6-2.6,0-3,6.3-1.5,8.8-4,10.3-10.3.4-1.6,2.6-1.6,3,0,1.5,6.3,4,8.8,10.3,10.3,1.6.4,1.6,2.6,0,3-6.3,1.5-8.8,4-10.3,10.3-.4,1.6-2.6,1.6-3,0Z"/>
  <path class="cls-2" d="M60.2,122.2c4-10.9,12.8-18.3,22.1-24.7,1.3-.9,2.7-1.8,4-2.6.5-.3,1-.6,1.5-.9.3-.2.6-.4.9-.5.4-.2.8-.4,1.1-.6.6-.3,1.1-.6,1.7-.9.5-.3,1-.5,1.5-.8.5-.2.9-.5,1.4-.7.5-.2,1-.5,1.4-.7,2.1-1,4.2-1.9,6.4-2.7.4-.2.8-.3,1.3-.5.1,0,.2,0,.4-.1.7-.3,1.5-.5,2.3-.8,0,0,0,0,0,0,.6-.2,1.2-.4,1.7-.6,1.4-.5,2.9-.9,4.4-1.3,0,0,0,0,0,0,.4-.1.9-.2,1.3-.4.3,0,.5-.1.8-.2.4-.1.8-.2,1.2-.3.4,0,.9-.2,1.3-.3.8-.2,1.7-.4,2.5-.6.5-.1,1-.2,1.5-.3.4,0,.9-.2,1.3-.3.7-.1,1.5-.3,2.2-.4.2,0,.5,0,.7-.1.6,0,1.1-.2,1.7-.3.8-.1,1.6-.2,2.4-.3.7,0,1.3-.2,2-.2,2.7-.3,5.4-.6,8.1-.7.7,0,1.4,0,2-.1.7,0,1.3,0,2,0h0c1.1,0,2.2,0,3.3-.1.2,0,.4,0,.5,0,.9,0,1.8,0,2.7,0h0c.7,0,1.3,0,2,0,1.6,0,3.2,0,4.8,0,0,0,.1,0,.2,0h0c.5,0,1,0,1.5,0,.4,0,.8,0,1.2.1.3,0,.6,0,.9.1.2,0,.5,0,.7.1.7.1,1.3.3,1.9.5.2,0,.4,0,.6.2,0,0,0,0,.1,0,.3,0,.5.2.8.3.4.1.8.3,1.3.5.3.1.6.3.9.4,0,0,0,0,.1,0,.2,0,.4.2.5.3.4.2.9.5,1.3.8,0,0,.1,0,.2.1.4.3.8.5,1.2.8.2.1.4.3.5.4,0,0,0,0,0,0,.2.1.3.3.5.4.2.1.4.3.5.5.2.2.5.5.7.7.2.2.4.5.6.7.2.2.4.5.6.7.2.2.4.5.5.7.2.2.3.5.5.8.2.3.3.5.5.8.1.2.2.4.4.7.3.6.6,1.2.8,1.8.2.6.4,1.1.6,1.7.2.6.3,1.1.5,1.7,0,.2,0,.4.1.5.1.6.2,1.1.3,1.7.3,1.8.4,3.6.3,5.4,0,.2,0,.5,0,.7,0,.3,0,.6,0,.9h0c0,.5-.1,1-.2,1.5,0,.3,0,.6-.1.9,0,.4-.2.8-.3,1.2-.1.5-.3,1.1-.4,1.6-.1.5-.3.9-.4,1.4,0,0,0,0,0,0-.2.4-.3.9-.5,1.3-.1.4-.3.7-.5,1.1,0,.1-.1.3-.2.4-.2.4-.4.7-.6,1.1-5.6,9.8-13.8,17.1-23.2,22.7-5.2,3.1-10.8,5.7-16.3,8.2-7.4,3.4-8.1,4.4-3.6,11.2,3,4.6,7.2,8.5,11.9,13.9-11.9,3.3-21.2-.1-29.4-7.2-.3-.2-.5-.5-.8-.7-.3-.2-.5-.5-.8-.6-.2-.2-.5-.4-.7-.5,0,0,0,0,0,0-.2-.1-.5-.3-.7-.4-.3-.2-.6-.3-.9-.4,0,0,0,0,0,0-.2,0-.4-.2-.6-.2,0,0-.1,0-.1,0-.2,0-.4-.1-.7-.2-.3,0-.6-.1-.8-.2h0c-.2,0-.5,0-.7,0-.2,0-.3,0-.5,0-.2,0-.4,0-.6,0s-.6,0-.9,0c-.1,0-.3,0-.4,0-.4,0-.7,0-1.1.1-7.9,1.1-16.5,1.8-24.2.1-20.2-4.5-26.9-18.4-19.8-38.1h0Z"/>
  <path class="cls-2" d="M365.9,284.6c-.3.1-6.8,0-11-3.5,2.6,10.4,1.2,20.5-2.6,30.5-.7,1.9.1,4.4,0,6.6-.1,3.6,0,7.4,5.4,12.9-2.5,1.9-13.7-2-17.4-1.8-.5,0-1,.3,0,1.1-2,4.4-15.6,10.8-21.4,9.3,3.4,5.1,7,10,11.1,15.7-10.4,3.5-20.3,1.6-32.1-4,2.7,3.8,4.2,6.1,6.6,9.6-8.7,1.2-14.3-2.9-20.1-8.3-13.9,9.3-29.4,14.6-45.8,17.5-45.1,4.1-63.5-4.2-69.9-6.4-12.6-4.2-23.5-11.3-32.1-21.3-3.3-4-6.1-5.2-10.9-2.9-2,1-4.8.8-8.6,1.4,2.2-3.7,3.7-6.1,5.5-9h-17.9c3.7-3.3,7.1-6.4,11.9-10.8-2.1-.8-4.1-1.6-6-2.5-1.5,1.7-2.7,3-2.7,3-4.1,0-4.7-2.4-4.7-2.4-.2-1.1.4-2.4,1.4-3.8-10.6-6.6-15.9-15.7-16.1-28.8v-1.1c-.1-7.4,2.2-16.3,6.8-21.9,2.2-2.6,5.6-4.2,7.5-6.8,2.2-3,3.4-7.8,4.8-11.2-11.2,4-20.3,7.1-30.7,10.8.7-2.5,10.6-22.1,14.7-42.7,2.7-13.6,11.1-25.1,15.5-38.6-3.6-.8-8.7-2-13.8-3.3.1-.4.1-.8.3-1.2,1.9-.5,3.8-.9,5.7-1.4.6-.2,1.3-.3,2-.5,1.2-.3,2.5-.6,3.7-.8,0,0,.2,0,.2,0l1.3-.2c.6-.1,1.2-.2,1.8-.3.7-.1,1.4-.2,2-.3,1.8-.3,4.1,1.4,6,2.5,10.4,5.2,20.8,7.2,32.4,1.6-4.8-5.2-9-9.8-13-14.6-3.7-4.2-3.7-7,2.5-9.3,16.5-6.4,31.8-14.9,41.8-30.6,0,0,.1-.2.2-.3,0,0,.2-.2.3-.3.4-.3.8-.6,1.3-.8.2,0,.4-.1.5-.2.2,0,.4-.1.6-.2h0c.4-.1.8-.2,1.2-.2,7.4-.4,14.8-.8,22-.8,7.1.1,14.2.8,21.9,1.2,5.5-2.3,1.4-9.1,1.4-15.9,5.5,4.1,12.3,2.7,18.8,27.5.5-.1,4.4-20.7,4.4-20.7,6.8,6.8,15.1,13,11.6,26.2,15.7-.7,29-6.1,40.8-15.8.5.7-10.7,15.4-16.5,22,28.3-2.3,44.8,13.7,69.4,21.2-7.6,1.8-13.7,3.3-20.3,5.1,25.7,15.2,21.9,32.9,32.6,49.2-1.9-.5-4.6-1.2-8.9-2.3-3.8,16.8-6.8,32.2-9,49-.8,5.6,8.2,19.1,13.7,24.6h0Z"/>
  <path class="cls-2" d="M390.7,263.1c-8.6,1.3-12.2,4.3-15.1,12.5-.7,2-3.7,1.8-4-.4-1.3-8.6-4.3-12.2-12.5-15.1-2-.7-1.8-3.7.4-4,8.6-1.3,12.2-4.3,15.1-12.5.7-2,3.7-1.8,4,.4,1.3,8.6,4.3,12.2,12.5,15.1,2,.7,1.8,3.7-.4,4Z"/>
  <path class="cls-1" d="M352.3,260c2.2-16.8,5.1-32.2,9-49,4.2,1.1,7,1.8,8.9,2.3-10.8-16.3-6.9-33.9-32.6-49.2,6.7-1.8,12.7-3.3,20.3-5.1-24.6-7.5-41.1-23.4-69.4-21.2,5.9-6.6,17.1-21.3,16.5-22-11.9,9.7-25.1,15.2-40.8,15.8,3.6-13.1-4.7-19.3-11.6-26.2,0,0-3.9,20.6-4.4,20.7-6.5-24.8-13.3-23.4-18.8-27.5,0,6.8,4.1,13.7-1.4,15.9-7.6-.4-14.8-1.1-21.9-1.2-7.2,0-14.6.4-22,.8-.4,0-.8.1-1.2.2h0c-.2,0-.4.1-.6.2-.2,0-.4.1-.5.2-.5.2-1,.5-1.4.8-.1,0-.2.2-.3.3,0,0-.2.2-.2.3-10,15.7-25.3,24.2-41.8,30.6-6.1,2.3-6.1,5.1-2.5,9.3,4,4.8,8.2,9.4,13,14.6-11.6,5.6-22,3.6-32.4-1.6-1.9-1.1-4.2-2.7-6-2.5-.7,0-1.3.2-2,.3-.6.1-1.2.2-1.8.3l-1.3.2c0,0-.2,0-.2,0-1.2.3-2.5.5-3.7.8-.7.1-1.3.3-2,.5-1.9.5-3.8.9-5.7,1.4-.1.4-.1.8-.3,1.2,5.1,1.2,10.2,2.5,13.8,3.3-4.4,13.5-12.8,25-15.5,38.6-4,20.6-14,40.2-14.7,42.7,10.4-3.7,19.5-6.8,30.7-10.8-1.4,3.4-2.6,8.2-4.8,11.2-1.9,2.6-5.3,4.2-7.5,6.8-4.6,5.6-7,14.5-6.8,21.9v1.1c.2,13.2,5.5,22.2,16.1,28.8,1.9,1.2,3.9,2.2,6.1,3.2,1.9.9,3.9,1.7,6,2.5-4.8,4.4-8.2,7.5-11.9,10.8h17.9c-1.8,2.9-3.3,5.3-5.5,9,3.8-.5,6.6-.4,8.6-1.4,4.8-2.3,7.6-1.1,10.9,2.9,8.6,10,19.5,17.1,32.1,21.3,6.4,2.2,24.9,10.5,69.9,6.4,16.4-2.9,31.8-8.2,45.8-17.5,5.7,5.5,11.3,9.6,20.1,8.3-2.3-3.4-3.8-5.7-6.6-9.6,11.7,5.6,21.7,7.5,32.1,4-4.1-5.7-7.6-10.7-11.1-15.7,5.9,1.5,19.4-4.9,21.4-9.3-1-.8-.5-1.1,0-1.1,3.7-.1,14.9,3.8,17.4,1.8-5.5-5.5-5.5-9.4-5.4-12.9.1-2.2-.7-4.6,0-6.6,3.8-10,5.2-20.1,2.6-30.5,4.2,3.5,10.7,3.6,11,3.5-5.5-5.5-14.5-19-13.7-24.6h0ZM284.2,253.8c11.2,13.7,6.5,32.1-9.8,38.3-.1,0-.3.1-.5.2-4.2,1.6-22.1,1.8-26.2.5-9.2-2.9-15.8-8.6-17.6-18.3h0c0,0,0,0,0-.1,0-.2,0-.4,0-.5-1.3-7.8,1-14,5.6-19.1,0,0,0,0,0,0,1.6-1.8,3.5-3.5,5.6-5,6-4.5,13.3-6.5,20.5-6.2h0c8.7.3,17.1,3.8,22.5,10.3h0ZM276,242c-18-5.7-33.2-1.9-46.7,13.4-1.8-4.5-3.4-7.6-4.4-10.9-2.2-6.8,0-10.7,7-10.2,13,.7,25.8,2.5,38.7,4,2,.3,3.8,2,5.5,3.8ZM230,205.1c2.5-4.1,6.1-3.7,11.9-1.5,7.4,3,11.3,7.2,14.9,13.1,2.5,3.8,5.2,7.6,7.7,11.3.7,1.1,1.2,2,2,3.4-13.8-1.2-27.2-2.2-40.4-3.7-1.4-.1-3.8-2.6-3.6-3.4,2.2-6.6,4-13.5,7.5-19.3h0ZM217.6,249.7c6.6,4,9.2,9.4,7.5,16.1-2.5,10.2,1.5,18.8,10,26,9.3,7.9,31.2,7.9,44.2,3.1,16.3-5.9,19.4-23.4,10.1-39.6,2.2.4,3.4.8,5.9,1.4-2.7-5.2-5.1-9.4-7.5-13.9,1.2-.3,2-.5,2-.4,9.7,13.2,16.8,27.2,13.9,44.2-1.1,6.4-4.5,10.9-10.9,12.2-21.3,4.5-42.5,2.7-63.4-2.9-7.5-2-12-7.9-13.4-16.1-1.5-10.1-1.6-20.1,1.5-30ZM210.7,251.2c-.5.8-2.3,1.8-2.9,1.5-1.1-.4-2.3-1.8-2.6-3-.5-2.7-.4-5.5-.8-8.3-.4-2.6-1.1-5.2-1.6-8.1,7.8,2.3,11.7,11.7,7.9,17.9ZM159.6,262.6c0,0,.1-.1.2-.2,0,0,.1-.1.2-.2.1-.1.3-.3.4-.4.4-.3.8-.6,1.2-.9.2-.1.4-.2.6-.3.4-.2.9-.4,1.4-.5,1-.3,1.9-.3,2.9,0,.9.2,1.8.8,2.5,1.4.8.8,1.3,1.8,1.6,2.8.1.5.2,1.1.3,1.6,0,.2,0,.4,0,.7,0,.9-.2,1.8-.7,2.6-.4.7-1.1,1.4-1.8,1.7-.9.4-1.5.6-2.5.6-.6,0-1.3,0-1.9-.2-.6-.1-1.2-.4-1.8-.7-.3-.1-.6-.3-.9-.5-.5-.3-1-.7-1.4-1.1-.6-.7-1-1.3-1.2-2.1-.2-.7-.2-1.7,0-2.4.3-.8.5-1.1,1-1.7h0ZM147.5,241.7c5.9-2.7,8.2.3,11.1,4.9-4.6,2.7-9,5.3-13.9,8.3-1.6-5.5-4.2-10,2.9-13.2h0ZM134,255.3c5.3,1.8,8.7,3.7,7.8,11.1-1.4,10.7,8.3,19.3,19.9,19.3s19.4-10,19.3-20.8c-.1-2.9.4-5.7.7-10.2-.7-.5-2.7-1.5-3.8-3-1-1.5-1-3.7-1.4-5.6,2.2-.1,5.1-1.1,6.3,0,10.9,8.3,11,24.4,1.6,34.5-13.8,15-43.2,11-52-8,2,.1,3.7.1,6.1.4-5.6-6.5-7.1-12.3-4.5-17.6h0ZM124.6,265.6c7.6,25,31.9,34.8,54.3,24.4,16.7-7.8,22.1-24.7,12-39.9-2-3.1-4.8-5.9-7.1-8.9.1-.4,0-1.1.4-1.4,3-2.3,6.3-4.5,9.4-6.8,1.6,3.5,4,7,4.8,10.8,3,13.4,1.2,26.8-2.7,39.7-2.2,7.2-7.6,11.2-14.8,11.5-11.9.4-23.9.8-35.6-.4-17.1-1.9-22.1-9.6-20.6-29ZM341.4,321.4c-4.6-2.7-3.3-4.8-3.1-9.8.1-2.7-.7-6.6-2.6-8.1-2.2-1.6-5.9-1.5-9-1.5-1.5-.1-3,1-4.5,1.6,3.7-6.7,7.5-13.4,11.2-20.1-7.9,4.9-12.6,12-14.8,20.5-3.1,11.9,3.6,18.6,15.4,15.7,4.6,5.7.7,8.7-9.3,10.9-1.2-2.6-2.7-6.8-3.9-9.4-.8-.1-4.6,1.4-5.5,1.4,1.4,4.1,3.8,6.7,2.7,10.9-2.7-.3-8.7-.8-12.3-1,.5-3.3,1.1-5.6,1.5-7.9-2.9,1.5-4.1,3.7-5.9,5.5-7.5,7.1-14.2,15.7-22.9,20.9-36.5,21.3-75,21.4-113.9,7-21.3-7.9-34.7-23.5-37.7-46.8-.1-1.8-1.2-3.6-1.9-5.3-.5.1-1.1.3-1.6.5v9.6c-3.5,0-6.7-.4-9.5-1-2.6-.6-5-1.4-7.1-2.5-7.5-3.7-11.9-10.4-14.8-19.7-1.2-4-1.9-8.1-1.7-12.3,0-1.3.2-2.5.7-3.8h0c1.1-2.6,2.4-5.1,4.1-7.3,0,0,0,0,0,0,2.4-3.2,5.3-5.8,8.6-7.5,10.7,1.8,13.9,4.9,16.7,16.8.3,1.3.7,2.6,1.1,3.8.8,2.5,2,4.7,3.3,6.7,3.5,5.1,8.8,8.3,16.1,9.1,11.3,1.2,22.8,2.5,34.1,2,18.4-.8,26-8.1,30-26.4.5-1.9,1.1-3.8,1.8-5.7.5,0,1.2.1,1.9.1.3,3.4.4,6.8.8,10.2,1.2,9.7,4.2,18.2,14.8,21,22.3,6.1,44.9,8.5,68,4.5,7.5-1.2,13.7-4.9,16.4-13.1,1.5,2.2,2.6,4,3.8,5.6,1.6-3,1.8-5.9,2-8.7,1.1-9.6,9.3-17.2,18.4-17.3,6.8-.1,17.8,9.1,18.8,16.3,1.6,12-1.7,25.3-10.3,34.5h0ZM322,304c1.8.4,3.6.8,5.2,1.4,2,.7,4.1,1.5,6.1,2.2-1.1,1.8-2,4.8-3.6,5.2-2.2.5-5.6-.1-7.1-1.6-1.2-1.4-.5-4.6-.7-7.1h0Z"/>
  <path class="cls-1" d="M156.8,311.7c1.6,9.7,4.8,19.8,16,25.1,21.6,10.4,44,12,66.5,3.8,9.6-3.6,15.6-10.9,18.4-20.6-33.6-6.7-66.9-10.9-100.9-8.3ZM161.7,315.5c30.3-2.2,59.1,1.6,88.6,7.9-11.1,5.2-81-.8-88.6-7.9Z"/>
  <path class="cls-1" d="M178.4,97.3c0-.6-.2-1.2-.3-1.7,0-.2,0-.4-.1-.5-.1-.6-.3-1.1-.5-1.7-.2-.6-.4-1.2-.6-1.7-.2-.6-.5-1.2-.8-1.8-.1-.2-.2-.4-.4-.7-.1-.3-.3-.5-.5-.8s-.3-.5-.5-.8c-.2-.2-.3-.5-.5-.7-.2-.2-.4-.5-.6-.7-.2-.2-.4-.5-.6-.7-.2-.3-.5-.5-.7-.7-.2-.2-.3-.3-.5-.5-.1-.1-.3-.3-.5-.4,0,0,0,0,0,0-.2-.1-.3-.3-.5-.4-.4-.3-.8-.6-1.2-.8,0,0-.1,0-.2-.1-.4-.3-.8-.5-1.3-.8-.2,0-.4-.2-.5-.3,0,0,0,0-.1,0-.3-.1-.6-.3-.9-.4-.4-.2-.8-.4-1.3-.5-.3,0-.5-.2-.8-.3,0,0,0,0-.1,0-.2,0-.4-.1-.6-.2-.6-.2-1.3-.3-1.9-.4-.2,0-.5,0-.7-.1-.3,0-.6,0-.9-.1-.4,0-.8,0-1.2-.1-.5,0-1,0-1.5,0h0c0,0-.1,0-.2,0-1.6,0-3.2,0-4.8,0s-1.3,0-2,0h0c-.9,0-1.8,0-2.7,0-.2,0-.4,0-.5,0-1.1,0-2.2,0-3.3.1h0c-.7,0-1.4,0-2,0-.7,0-1.4,0-2,.1-2.7.2-5.4.4-8.1.7-.7,0-1.3.1-2,.2-.8,0-1.6.2-2.4.3-.6,0-1.1.2-1.7.3-.2,0-.5,0-.7.1-.7.1-1.5.3-2.2.4-.5,0-.9.2-1.3.3-.5,0-1,.2-1.5.3-.9.2-1.7.4-2.5.6-.4,0-.9.2-1.3.3-.4.1-.8.2-1.2.3-.3,0-.5.1-.8.2-.4.1-.9.2-1.3.4,0,0,0,0,0,0-1.5.4-3,.8-4.4,1.3-.6.2-1.2.4-1.7.6,0,0,0,0,0,0-.8.3-1.5.5-2.3.8-.1,0-.2,0-.4.1-.4.2-.9.3-1.3.5-2.2.8-4.3,1.7-6.4,2.7-.5.2-1,.4-1.4.7-.5.2-.9.5-1.4.7-.5.2-1,.5-1.5.8-.6.3-1.1.6-1.7.9-.4.2-.8.4-1.1.6-.3.2-.6.3-.9.5-.5.3-1,.6-1.5.9-1.3.8-2.7,1.7-4,2.6-9.3,6.4-18.2,13.8-22.1,24.7-7.1,19.7-.4,33.6,19.8,38.1,7.7,1.6,16.3,1,24.2-.1.4,0,.8-.1,1.1-.1.1,0,.3,0,.4,0,.3,0,.6,0,.9,0s.4,0,.6,0c.2,0,.3,0,.5,0,.2,0,.5,0,.7,0h0c.3,0,.6,0,.8.2.2,0,.4.1.7.2,0,0,0,0,.1,0,.2,0,.4.1.6.2,0,0,0,0,0,0,.3.1.6.3.9.4.2.1.5.3.7.4,0,0,0,0,0,0,.2.1.5.3.7.5.3.2.5.4.8.6.3.2.5.4.8.7,8.2,7.1,17.5,10.5,29.4,7.2-4.6-5.5-8.9-9.3-11.9-13.9-4.5-6.8-3.8-7.8,3.6-11.2,5.5-2.5,11.1-5.1,16.3-8.2,9.4-5.6,17.6-12.8,23.2-22.7.2-.4.4-.7.6-1.1,0-.1.1-.2.2-.4.2-.3.3-.7.5-1.1.2-.4.4-.8.5-1.3,0,0,0,0,0,0,.2-.4.3-.9.4-1.4.2-.5.3-1.1.4-1.6,0-.4.2-.8.3-1.2,0-.3.1-.6.1-.9,0-.5.1-1,.2-1.5h0c0-.3,0-.6,0-.9,0-.2,0-.5,0-.7,0-1.8,0-3.6-.3-5.4h0ZM172.6,109.8c-4.2,7.6-11.1,14.5-18,20.1-6.7,5.2-15,8.5-22.8,12.3-7.2,3.4-8.5,5.3-4.9,12.8,0,0,0,.1,0,.2.6,1.7,1.6,3.2,2.4,4.2,1.6,2.5,3.5,5.1,5.4,8h-.1c-3.4,0-7-.7-11.1-2.4-3.3-1.5-6.3-3.6-8.9-6.4-2.9-3.3-5.3-3.4-9.3-2.6-10.5,2.3-21.2,3.3-31.3-1.9-9.8-5-13.5-11.5-12.3-21.6h0c0-.9.2-1.9.4-2.8.6-3.3,1.7-6.4,3.2-9.2,2.4-4.5,5.8-8.4,9.7-12,17-15.5,36.6-22.9,57.6-25,2.6-.3,5.2-.4,7.8-.5.5,0,1,0,1.5,0,2.1,0,4.2,0,6.3,0,1.8,0,3.6,0,5.4.1h0c2.2,0,4.4.2,6.6.4.4,0,.8,0,1.2.1,11.4,1.7,17.3,15,11.1,26.4h0Z"/>
  <path class="cls-1" d="M118.4,292.4c0-.2-.2-.5-.3-.7-.9-2.2-1.9-4.2-3.1-6h0c-2.9-4.5-6.9-7.9-12.2-10.1-1-.4-2.2-.4-3.4-.3,0,0-.2,0-.2,0-.5,0-.9,0-1.3,0,0,.5-.2,1.1-.3,1.7.2,0,.3.1.5.2,1.1.5,2.1,1,3.2,1.5,6.5,2.5,11.4,6.7,13.2,13.6.3,1.3-1,3-1.5,4.5-1.4-1.1-3.6-1.9-4-3.3-.7-2.2-.2-4.7-.2-7.1-.7,0-1.4-.1-2.1-.2-.2,3.3-1.4,6.9-.5,10,1.1,4,3.6,8.9,9,6.7,4.7-1.9,4.7-6.1,3.2-10.3,0,0,0,0,0,0h0Z"/>
  <path class="cls-1" d="M261.4,250.3c-1-.1-2-.2-3-.2-7.2,0-13.4,3.4-17.3,8.7,0,0,0,0,0,0-2.6,3.6-4.2,8.2-4.3,13.2,0,.5,0,1,0,1.5,0,0,0,0,0,0,.8,9.3,10.2,16.8,21.4,16.6,5,0,9.5-1.6,13.1-4.3,5.1-3.8,8.3-9.8,8.3-16.8,0-9.9-7.8-17.7-18.3-18.9ZM262.3,273.5c-.4.4-.9.8-1.4,1.1-.3.2-.6.3-.9.4-.3.1-.6.2-.9.3-.6.2-1.3.3-2,.2-.7,0-1.5-.1-2.2-.4-.9-.3-1.6-.7-2.3-1.4-.7-.6-1-1.4-1.3-2.2-.4-1.1-.4-2.5,0-3.6.4-1.2,1.1-2.3,2.1-3.1.4-.3.7-.6,1.1-.8.4-.2.8-.4,1.2-.5.2-.1.5-.1.8-.2,0,0,.1,0,.2,0,.7-.2,1.4-.3,2.1-.3,1,0,1.7.2,2.6.7,1.3.6,2.2,2,2.5,3.3.7,2.3-.1,4.8-1.7,6.6h0Z"/>
  <path class="cls-1" d="M154.7,85.5c0,0-.1,0-.2,0v.3c.1,0,.1-.1.2-.2h0Z"/>
  <path class="cls-1" d="M88.2,198.6c-6.3,1.5-8.8,4-10.3,10.3-.4,1.6-2.6,1.6-3,0-1.5-6.3-4-8.8-10.3-10.3-1.6-.4-1.6-2.6,0-3,6.3-1.5,8.8-4,10.3-10.3.4-1.6,2.6-1.6,3,0,1.5,6.3,4,8.8,10.3,10.3,1.6.4,1.6,2.6,0,3Z"/>
  <path class="cls-1" d="M390.7,263.1c-8.6,1.3-12.2,4.3-15.1,12.5-.7,2-3.7,1.8-4-.4-1.3-8.6-4.3-12.2-12.5-15.1-2-.7-1.8-3.7.4-4,8.6-1.3,12.2-4.3,15.1-12.5.7-2,3.7-1.8,4,.4,1.3,8.6,4.3,12.2,12.5,15.1,2,.7,1.8,3.7-.4,4Z"/>
  <path class="cls-1" d="M118.5,310.9c-.7.2-2.7,2-4.7,4.1-1.1,1.1-2.3,2.4-3.3,3.4-1.5,1.7-2.7,3-2.7,3-4.1,0-4.7-2.4-4.7-2.4-.2-1.1.4-2.4,1.4-3.8.6-.9,1.4-1.8,2.2-2.7,2.4-2.6,5.2-4.8,5.2-4.8,0,0,8.2,2.7,6.6,3.1h0Z"/>
  <path class="cls-1" d="M92.2,115.7l6.9-2.4,10.4,20.6-7.5,3.6-3.7-8.6-3.5,1.6,3.5,8.6-7.1,3.1-8.7-22.3,6.6-2.3,3.5,7.9,3.4-1.5-3.7-8.2h0Z"/>
  <path class="cls-1" d="M119.1,129.4l-7.8,3.5-8.4-21.9,6.2-3.3,10,21.6h0Z"/>
  <path class="cls-1" d="M132.2,112.4l-6.4,3.1-6.1-13.3,6.6-3.9,5.9,14.2ZM133,123.3c.9-.4,1.6-1.3,2-2.6.3-1.2.3-2.3-.2-3.4-.4-.9-1.1-1.5-2.1-1.7-.9-.1-1.9,0-2.9.5-.9.4-1.5,1.2-1.8,2.4-.2,1.1,0,2.2.4,3.2.9,2,2.4,2.5,4.6,1.5h0Z"/>
  <path class="cls-1" d="M142.8,107.6l-6.4,3.1-6.1-13.3,6.6-3.9,5.9,14.2ZM143.6,118.5c.9-.4,1.6-1.3,2-2.6.3-1.2.3-2.3-.2-3.4-.4-.9-1.1-1.5-2.1-1.7-.9-.1-1.8,0-2.9.5-.9.4-1.5,1.2-1.8,2.4-.2,1.1,0,2.2.4,3.2.9,2,2.4,2.5,4.6,1.5h0Z"/>
</svg>