<?xml version="1.0" encoding="UTF-8"?>
<svg id="Layer_1" data-name="Layer 1" xmlns="http://www.w3.org/2000/svg" version="1.1" viewBox="0 0 500 500">
  <defs>
    <style>
      .cls-1 {
        fill: #002b22;
      }

      .cls-1, .cls-2 {
        stroke-width: 0px;
      }

      .cls-2 {
        fill: #efff3d;
      }
    </style>
  </defs>
  <path class="cls-2" d="M431.2,297.6c0,0,0,.2,0,.3.5,4.2,8.5,17.4,15.2,24.1l7.5,7.5,3.1,3.1-13.4,6.7c-2.1,1-4,1.2-5.5,1.2s-.7,0-1.4,0c-.1,9.1-2,18.4-5.6,28.2,0,.4,0,.8.1,1.2.2,1.4.3,3.2.2,5.2-.1,3.1-.1,4.9,4,9.1l8.7,8.7-9.7,7.5c-2.6,2-5.8,3-9.8,3s-8.9-1-13.5-2c-.3,0-.7-.1-1-.2-4,3.9-9.8,7.3-15.7,9.7.9,1.3,5.1,7.1,5.1,7.1l8.5,11.9-13.8,4.7c-5.9,2-11.7,3-17.8,3s-2,0-2.9,0l1.8,2.6-17.2,2.4c-1.9.3-3.8.4-5.6.4-9.9,0-17.4-3.8-23.9-8.8-16.9,10-36.1,16.7-58.3,20.6h-.4c0,0-.4.1-.4.1-11.2,1-22,1.5-32,1.5h0c-36.5,0-55.1-6.7-64-9.9-.8-.3-1.4-.5-2-.7-19-6.4-35-17.1-47.7-31.7v-.2c-.6-.5-1-.9-1.2-1.2-.1,0-.3.1-.4.2h-.2c-3.5,1.7-7,2-10.4,2.4-1.3.1-2.7.3-4.1.5l-22.4,3.2,9-15.1h-33.3l20.4-18.1c-2.3-2-3.8-4.5-4.4-7v-.5c-.1,0-.2-.5-.2-.5-.1-.9-.2-1.7-.2-2.6-12.9-10.5-19.4-24.6-19.6-42.6v-1.5c-.2-9.3,2.1-22.1,8.7-32.3-3.2,1.1-6.4,2.3-9.8,3.5l-19.7,7,5.6-20.1c.4-1.5,1.1-3.1,2.7-6.7,3.8-8.7,11.3-25.9,15.6-44.3.4-1.8.8-3.6,1.2-5.4,1.2-6.2,3.2-12,5.5-17.6.5-1.3,1.1-2.6,1.6-3.8,1.5-3.4,3.1-6.6,4.6-9.9.1-.3.3-.6.4-.9,1.6-3.3,3.1-6.5,4.6-9.7-2.2-.5-4.3-1-6.4-1.5l-11.4-2.8,3.5-10.6c0-.1,0-.2,0-.3,0-.5.2-1.1.5-1.8l1.9-5.7,5.8-1.4c1.1-.3,2.2-.6,3.4-.8,1.4-.4,2.8-.7,4.2-1,.4-.1.9-.2,1.3-.3,0,0,.2,0,.2,0,.4,0,.8-.2,1.2-.3,1.8-.4,3.6-.8,5.2-1.2.2,0,.4,0,.6-.1l1.6-.3c.9-.2,1.8-.3,2.6-.5,1.1-.2,2.1-.4,3.1-.5.7-.1,1.4-.1,2.1-.1,2.5,0,4.8.6,6.8,1.5,1.9.8,3.5,1.8,5,2.6.3.2.6.3.8.5,6.7,3.3,12.4,5,17.8,5.3-1.8-2-3.5-4.1-5.2-6.1-1.8-2.1-6.8-7.9-5.8-15.3,0-.6.2-1.1.3-1.7.5-2.1,1.5-3.9,2.7-5.5,3.3-4.4,8.5-6.3,10.5-7.1,8.3-3.2,17.1-7.1,25.4-12.2,9.6-6,18.5-13.7,25.3-24.4l.2-.3.2-.2c.3-.4.6-.9,1.1-1.4.4-.4.8-.8,1.2-1.2h.1c1.1-1,2.3-1.8,3.7-2.5,0,0,0,0,.1,0,.2,0,.4-.2.6-.3.6-.3,1.2-.5,1.6-.6h.2c.4-.2.9-.4,1.5-.5l1.4-.4h.2c.7-.1,1.4-.2,2.1-.3h.2c1.2,0,2.5-.2,3.7-.2,8.7-.5,17.6-.9,26.3-.9h.2c6.3.1,12.4.5,18.9,1,.8,0,1.6.1,2.3.2-.5-2.8-1.1-6.3-1.1-9.9v-21.7l17.3,13c.7.5,1.8,1.1,3,1.7,4.2,2.2,8.1,4.7,11.9,9.1l2.9-15.2,14.5,14.5c.9.9,1.8,1.7,2.6,2.6,6.4,6.2,15.2,14.8,16.9,27.8,13.1-2.5,24.9-8.3,36.1-17.4l8.5-6.9,6.8,8.5c1.4,1.7,4.3,6.5.6,13.2-.5.9-1.2,2-2.1,3.4-1.5,2.2-3.6,5.2-6.1,8.5-.3.4-.6.8-.9,1.1,16.9,2.6,30.9,9.3,44.6,15.8,9.3,4.4,18.9,9,29.4,12.2l38.6,11.8-39.3,9.1c-1.9.4-3.7.9-5.5,1.3,11.4,11.7,15.7,23.8,19.6,35,2.5,7,4.8,13.6,8.9,19.8l16.3,24.5-28.3-8.1c-.2,0-.5-.1-.8-.2-2.7,12.6-4.9,24.1-6.7,35.3-.6,3.9-1.2,7.7-1.8,11.6-.3,2.1-.6,4.1-.8,6.2Z"/>
  <polygon class="cls-2" points="73.6 137.8 63.3 142.6 54.4 119.3 48.3 122.4 45.4 115.5 63.5 106.1 66.7 112.7 63 114.7 73.6 137.8"/>
  <path class="cls-2" d="M80.4,134.7l-13.1-29.1,8.8-3.4,3.3,6.4,4.8-10.8c2,.8,3.6,1.5,4.7,2,3.2,1.4,4.7,2.1,4.6,2.2l-5.8,13.1,13.9,3.2c-.5,1.3-1,2.9-1.6,4.7-1,3.1-1.5,4.6-1.4,4.6l-9.9-2,2.2,4.4-10.4,4.7Z"/>
  <path class="cls-2" d="M113.9,97v-.3c0,0,.1.2,0,.3Z"/>
  <path class="cls-2" d="M97,103c-1.1-3-.8-5.8,1-8.4,1.4-2.1,3.8-4,7.1-5.7,1.6-.8,3.2-1.5,4.7-2.1l3.9,9.9c-.2,0-.5-.1-1-.1-.9,0-1.9,0-3,.3-3,.7-4,2-3.1,3.8.1.6.9.9,2.1,1l4.2.2c4.2.2,6.8,1.5,8,3.8.4.9.7,1.8.8,2.7.3,2.1,0,3.9-1,5.6-1.9,3.4-5.2,5.8-9.7,7.3-1.5.5-3,.8-4.4,1-1.2.1-1.8,0-1.7-.1l-2.4-6.6c.9-.1,1.8-.4,2.6-.7,1.9-.7,3.3-1.6,4.1-2.7.5-.8.4-1.3-.2-1.6-.3-.2-1.3-.3-2.8-.5-3.6-.5-6-1.7-7.3-3.5,0,0,0,0-.2-.1l-.5-.6c-.6-.8-1-1.7-1.4-2.7Z"/>
  <polygon class="cls-2" points="133.5 96 125.3 78.2 134.1 72.9 142.1 91.9 133.5 96"/>
  <path class="cls-2" d="M145.5,98.6c.6,1.3.7,2.8.2,4.5-.5,1.7-1.4,2.8-2.6,3.4-2.9,1.3-4.9.7-6.1-2-.6-1.4-.8-2.8-.5-4.3.3-1.6,1.1-2.6,2.4-3.2,1.4-.7,2.7-.9,3.9-.7,1.3.2,2.3,1,2.8,2.2Z"/>
  <path class="cls-2" d="M155.7,63.5v-.3s0,0,.2.1c0,0-.1.2-.2.2Z"/>
  <polygon class="cls-2" points="147.6 89.5 139.5 71.7 148.3 66.4 156.3 85.4 147.6 89.5"/>
  <path class="cls-2" d="M156.9,89.9c1.3.2,2.3,1,2.8,2.2.6,1.3.7,2.8.2,4.5-.5,1.7-1.4,2.8-2.6,3.4-2.9,1.3-4.9.7-6.1-2-.6-1.4-.8-2.8-.5-4.3.3-1.6,1.1-2.6,2.3-3.2,1.4-.7,2.7-.9,3.9-.7Z"/>
  <path class="cls-2" d="M198.3,77.6c-.1-.9-.3-1.9-.6-3.1,0-.3-.1-.6-.2-.9h0c-.2-1-.5-2-.8-3-.4-1.2-.8-2.3-1.2-3.3-.4-1.1-.9-2.1-1.4-3.2v-.2c0,0-.7-1-.7-1-.3-.6-.6-1.1-.9-1.6-.2-.4-.5-.9-.9-1.4-.3-.4-.6-.9-1-1.4-.4-.5-.7-1-1.1-1.4-.3-.4-.6-.7-.9-1.1h0c-.5-.6-.9-1.1-1.5-1.6-.3-.3-.6-.6-.9-.9-.2-.2-.4-.4-.6-.5h-.1c0-.1-.4-.4-.4-.5-.3-.3-.6-.5-.9-.7-.8-.6-1.5-1.1-2.3-1.6,0,0-.3-.2-.3-.2-.7-.5-1.5-.9-2.3-1.4-.3-.2-.7-.4-1-.5,0,0-.2,0-.3-.1-.6-.3-1.2-.5-1.7-.8-.9-.4-1.7-.7-2.6-1-.3-.1-.7-.2-1-.3,0,0-.1,0-.2,0-.5-.2-1.1-.4-1.6-.5-1.1-.3-2.2-.5-3.3-.8,0,0-.7-.1-1-.2-.6-.1-1.2-.2-1.7-.3-.7,0-1.5-.2-2.3-.2-.7,0-1.4-.1-2.1-.1-.4,0-.7,0-.9,0-2.1,0-4.3,0-6.5,0s-1.9,0-2.8,0c-1.2,0-2.5,0-3.8,0-.3,0-.6,0-1,0-1.3,0-2.8,0-4.3.1h0c-1,0-2,0-3,.1l-2.7.2c-3.7.2-7.5.6-11.4,1-1,.1-1.9.2-2.9.4-1.2.1-2.3.3-3.5.5h-.2c-.7.1-1.3.2-2,.3-.4,0-.8.1-1.1.2h-.1c-1,.2-2.1.4-3.1.6-.7.1-1.3.2-2,.4-.7.1-1.4.3-2.2.4-1.2.3-2.4.5-3.6.8-.3,0-.6.1-.9.2-.3,0-.5.1-.8.2h-.2c0,0-.2.1-.2.1-.2,0-.4.1-.7.2-.3,0-.7.2-.9.2l-.9.3c-.2,0-.4,0-.6.1h-1.1l-1.3.7c-1.9.5-3.7,1.1-5.4,1.6,0,0-.7.2-.8.2h-.8l-1.6.8c-.8.3-1.7.6-2.5.9-.1,0-.6.2-.6.2-.6.2-1.2.5-1.8.7-3.1,1.2-6.2,2.5-9.3,4-.7.3-1.4.7-2.1,1-.7.3-1.4.7-2.1,1-.6.3-1.4.7-2.2,1.2-.8.4-1.6.9-2.4,1.3-.5.3-1.1.6-1.7.9-.4.2-.9.5-1.3.8-.8.5-1.6.9-2.3,1.4-1.8,1.1-3.7,2.3-5.8,3.7h0c-13,9.1-27.2,20.7-33.6,38.4-7.5,20.8-3.8,34.7.6,42.8,4.3,7.8,13.6,18,33.7,22.5h0c3,.7,6.1,1.1,9.4,1.3,2.1.1,4.3.2,6.5.2,3.9,0,8-.2,12.7-.7,0,0,0,0,0,0,2.3-.2,4.8-.5,7.4-.9h0c.2,0,.4,0,.7-.1h.7c.1,0,.2,0,.2,0h.5s.1,0,.1,0h.1s.2,0,.2,0h.5c0,.1,0,.2,0,.2l.5.3.3.2c0,0,.2.2.5.4h.1c0,.1.2.3.2.3,0,0,0,0,.3.3l.2.2.2.2c10.9,9.4,22.2,14,34.7,14h0c4.7,0,9.7-.7,14.6-2.1l16.4-4.5-11-12.9c-2.4-2.8-4.7-5.3-6.7-7.5-3.1-3.4-5.9-6.4-8-9.4,7.4-3.3,15.1-6.9,22.6-11.4,15.7-9.3,27.1-20.5,34.9-34.2.3-.5.6-1.1,1-1.8.1-.2.2-.5.4-.7v-.2c.3-.5.6-1.1,1-1.9.2-.5.4-.9.6-1.4,0,0,0,0,0,0,0-.2.2-.5.3-.7l.7-1.8v-.2c0-.2.1-.3.2-.5.3-.9.5-1.7.7-2.8.2-.7.3-1.4.4-2h0c0-.5.2-1,.3-1.7,0-.4.1-.9.2-1.3,0-.4.1-.7.1-1.1v-.6c0,0,0-.1,0-.1,0-.3,0-.5,0-.8,0-.5,0-.9,0-1.2h0c.1-3.1,0-6.3-.5-9.3ZM31.5,126.1h0c.1-1.2.3-2.5.6-3.8.8-4.5,2.3-8.5,4.3-12.3,3.3-6.1,7.8-11.3,13-16.1,22.8-20.8,49-30.7,77.2-33.5,3.4-.4,6.9-.6,10.4-.7.7,0,1.4,0,2,0,2.8,0,5.6-.1,8.4,0,2.4,0,4.8,0,7.2.2h0c2.9.1,5.9.3,8.8.6.5,0,1,.1,1.6.2,15.3,2.3,23.2,20.1,14.9,35.3h0c-5.7,10.2-14.8,19.4-24.1,26.9-.2.2-.4.3-.6.5-8.3,5.2-17,9-25.4,12.2-2.1.8-7.2,2.7-10.5,7.1-2.6,2-3.6,4-3,7.2-1,7.4,4,13.2,5.8,15.3,1.7,2.1,3.4,4.1,5.2,6.1-5.4-.3-11.1-2-17.8-5.3-.3-.2-.6-.3-.8-.5-1.4-.8-3.1-1.8-5-2.6-.5-.5-1-1-1.5-1.6-3.8-4.4-7.1-4.6-12.4-3.5-14.1,3.1-28.3,4.4-41.9-2.6-13.1-6.7-18-15.4-16.5-28.9Z"/>
  <path class="cls-2" d="M51.1,240.9c-6,0-11.1-4.1-12.5-9.9-1.1-4.4-1.4-4.7-5.8-5.8-5.8-1.4-9.8-6.5-9.8-12.5s4.1-11.1,9.9-12.5c4.4-1.1,4.7-1.4,5.8-5.8,1.4-5.8,6.5-9.8,12.5-9.8s11.1,4.1,12.5,9.9c1.1,4.4,1.4,4.7,5.8,5.8,5.8,1.4,9.8,6.5,9.8,12.5s-4.1,11.1-9.9,12.5c-4.4,1.1-4.7,1.4-5.8,5.8-1.4,5.8-6.5,9.8-12.5,9.8h0Z"/>
  <path class="cls-2" d="M449.1,330.4c-6.8,0-12.5-4.9-13.4-11.6-1.1-7.5-2.4-9-9.5-11.5-6-2.1-9.7-7.9-9.1-14.1.6-6.3,5.3-11.2,11.6-12.2,7.5-1.1,9-2.4,11.5-9.5,1.9-5.5,7.1-9.2,12.8-9.2s12.5,4.9,13.5,11.6c1.1,7.5,2.4,9,9.5,11.5,6,2.1,9.7,7.9,9.1,14.1-.6,6.3-5.3,11.2-11.6,12.2-7.5,1.1-9,2.4-11.5,9.5-1.9,5.5-7.1,9.2-12.8,9.2h0Z"/>
  <path class="cls-2" d="M49.1,228.5c-2.1-8.4-5.4-11.7-13.8-13.8-2.1-.5-2.1-3.5,0-4,8.4-2.1,11.7-5.4,13.8-13.8.5-2.1,3.5-2.1,4,0,2.1,8.4,5.4,11.7,13.8,13.8,2.1.5,2.1,3.5,0,4-8.4,2.1-11.7,5.4-13.8,13.8-.5,2.1-3.5,2.1-4,0Z"/>
  <polygon class="cls-2" points="63 114.7 73.6 137.8 63.3 142.6 54.4 119.3 48.3 122.4 45.4 115.5 63.5 106.1 66.7 112.7 63 114.7"/>
  <path class="cls-2" d="M87.6,115.1l13.9,3.2c-.5,1.3-1,2.9-1.6,4.7-1,3.1-1.5,4.6-1.4,4.6l-9.9-2,2.2,4.4-10.4,4.7-13.1-29.1,8.8-3.4,3.3,6.4,4.8-10.8c2,.8,3.6,1.5,4.7,2,3.2,1.4,4.7,2.1,4.6,2.2l-5.8,13.1Z"/>
  <path class="cls-2" d="M113.9,97v-.3c0,0,.1.2,0,.3Z"/>
  <path class="cls-2" d="M121.7,108.4c.3,2.1,0,3.9-1,5.6-1.9,3.4-5.2,5.8-9.7,7.3-1.5.5-3,.8-4.4,1-1.2.1-1.8,0-1.7-.1l-2.4-6.6c.9-.1,1.8-.4,2.6-.7,1.9-.7,3.3-1.6,4.1-2.7.5-.8.4-1.3-.2-1.6-.3-.2-1.3-.3-2.8-.5-3.6-.5-6-1.7-7.3-3.5,0,0,0,0-.2-.1l-.5-.6c-.6-.8-1-1.7-1.4-2.7-1.1-3-.8-5.8,1-8.4,1.4-2.1,3.8-4,7.1-5.7,1.6-.8,3.2-1.5,4.7-2.1l3.9,9.9c-.2,0-.5-.1-1-.1-.9,0-1.9,0-3,.3-3,.7-4,2-3.1,3.8.1.6.9.9,2.1,1l4.2.2c4.2.2,6.8,1.5,8,3.8.4.9.7,1.8.8,2.7Z"/>
  <polygon class="cls-2" points="142.1 91.9 133.5 96 125.3 78.2 134.1 72.9 142.1 91.9"/>
  <path class="cls-2" d="M145.5,98.6c.6,1.3.7,2.8.2,4.5-.5,1.7-1.4,2.8-2.6,3.4-2.9,1.3-4.9.7-6.1-2-.6-1.4-.8-2.8-.5-4.3.3-1.6,1.1-2.6,2.4-3.2,1.4-.7,2.7-.9,3.9-.7,1.3.2,2.3,1,2.8,2.2Z"/>
  <path class="cls-2" d="M155.7,63.5v-.3s0,0,.2.1c0,0-.1.2-.2.2Z"/>
  <polygon class="cls-2" points="156.3 85.4 147.6 89.5 139.5 71.7 148.3 66.4 156.3 85.4"/>
  <path class="cls-2" d="M157.3,100.1c-2.9,1.3-4.9.7-6.1-2-.6-1.4-.8-2.8-.5-4.3.3-1.6,1.1-2.6,2.3-3.2,1.4-.7,2.7-.9,3.9-.7,1.3.2,2.3,1,2.8,2.2.6,1.3.7,2.8.2,4.5-.5,1.7-1.4,2.8-2.6,3.4Z"/>
  <path class="cls-2" d="M187.5,79.1c-.1-.8-.3-1.6-.4-2.3,0-.3-.1-.5-.2-.7-.2-.8-.4-1.5-.6-2.3-.2-.8-.5-1.6-.8-2.3-.3-.8-.7-1.6-1.1-2.4-.2-.3-.3-.6-.5-.9-.2-.4-.4-.7-.6-1.1-.2-.3-.4-.7-.7-1-.2-.3-.5-.7-.7-1-.2-.3-.5-.7-.8-1-.3-.3-.5-.6-.8-.9-.3-.3-.6-.7-1-1-.2-.2-.5-.4-.7-.6-.2-.2-.4-.4-.6-.6,0,0,0,0,0,0-.2-.2-.5-.4-.7-.5-.5-.4-1-.8-1.6-1.1,0,0-.2-.1-.3-.2-.5-.4-1.1-.7-1.7-1-.2-.1-.5-.3-.7-.4,0,0-.1,0-.2-.1-.2,0-.4-.2-.6-.3-.2,0-.4-.2-.6-.3-.4-.2-.7-.3-1.1-.4-.2,0-.3-.1-.5-.2,0,0,0,0,0,0-.2,0-.4-.1-.5-.2,0,0-.1,0-.2,0-.1,0-.2,0-.3-.1,0,0-.1,0-.2,0-.2,0-.5-.2-.7-.2-.4-.1-.8-.2-1.3-.3-.4-.1-.8-.2-1.3-.3-.2,0-.4,0-.6,0-.1,0-.3,0-.4,0-.2,0-.3,0-.5,0,0,0,0,0-.1,0-.2,0-.4,0-.6,0-.3,0-.5,0-.8,0,0,0,0,0,0,0-.3,0-.5,0-.8,0-.2,0-.5,0-.7,0-.1,0-.2,0-.4,0-.3,0-.6,0-.9,0h0c0,0-.2,0-.2,0-2.1,0-4.3,0-6.4,0s-1.8,0-2.7,0h0c-1.2,0-2.5,0-3.7,0-.3,0-.5,0-.7,0-1.5,0-2.9,0-4.4.1h0c-.9,0-1.8,0-2.7.1-.9,0-1.8.1-2.7.2-3.6.2-7.2.5-10.8,1-.9,0-1.8.2-2.7.3-1.1.1-2.2.3-3.3.5-.7.1-1.5.2-2.3.4-.3,0-.6,0-1,.1-1,.2-2,.4-3,.5-.6.1-1.2.2-1.8.4-.7.1-1.4.3-2,.4-1.2.2-2.3.5-3.4.7-.6.1-1.2.3-1.8.4-.5.1-1.1.3-1.6.4-.3,0-.7.2-1,.3-.6.1-1.2.3-1.8.5,0,0,0,0,0,0-2,.5-3.9,1.1-5.9,1.8-.8.3-1.6.5-2.3.8,0,0,0,0,0,0-1,.3-2,.7-3,1.1-.2,0-.3.1-.5.2-.6.2-1.2.4-1.7.7-2.9,1.1-5.8,2.3-8.6,3.7-.6.3-1.3.6-1.9.9-.6.3-1.3.6-1.9.9-.7.3-1.3.7-2,1-.8.4-1.5.8-2.3,1.3-.5.3-1,.6-1.5.9-.4.2-.8.5-1.2.7-.7.4-1.4.8-2.1,1.2-1.8,1.1-3.6,2.3-5.4,3.5-12.4,8.6-24.3,18.5-29.6,33.1h0c-9.1,25.1-1.4,43.2,22.8,50,1.2.4,2.5.7,3.8,1,.5.1,1,.2,1.6.3,7.3,1.3,15.2,1.2,22.8.4,2.6-.2,5.3-.6,7.8-.9.5,0,1-.1,1.5-.2.2,0,.4,0,.5,0,.4,0,.8,0,1.2,0s.6,0,.9,0c.2,0,.5,0,.7,0,.3,0,.7,0,1,.1h0c.2,0,.4,0,.7.1.2,0,.4,0,.6.1.1,0,.2,0,.4,0,.1,0,.3,0,.5.1,0,0,0,0,0,0,0,0,0,0,.1,0,.3,0,.5.2.8.3,0,0,0,0,0,0,.4.2.8.4,1.2.6.3.2.6.3.9.5,0,0,0,0,0,0,.3.2.6.4,1,.7.4.3.7.5,1.1.9.3.3.7.6,1,.9,5.3,4.6,11,8.1,17.2,9.9.6.2,1.2.3,1.8.5.3,0,.5.1.8.2.7.1,1.3.3,2,.4,5.4.8,11.2.5,17.5-1.2-6.2-7.3-11.9-12.4-15.9-18.6-6-9.1-5.1-10.4,4.7-15,7.3-3.3,14.8-6.8,21.8-11,12.6-7.5,23.6-17.2,31.1-30.3.3-.5.5-.9.8-1.4,0-.2.2-.3.3-.5.2-.5.4-.9.6-1.4.2-.5.5-1.1.7-1.7,0,0,0,0,0,0,.2-.6.4-1.2.6-1.8.2-.7.4-1.4.6-2.1,0,0,0,0,0,0,.1-.5.2-1,.3-1.5,0-.4.1-.8.2-1.2.1-.7.2-1.3.3-2h0c0-.4,0-.8,0-1.2,0-.3,0-.7,0-1,.1-2.4,0-4.8-.4-7.2ZM129.8,135.4c-2.1.8-7.2,2.7-10.5,7.1-2.6,2-3.6,4-3,7.2-1,7.4,4,13.2,5.8,15.3,1.7,2.1,3.4,4.1,5.2,6.1-5.4-.3-11.1-2-17.8-5.3-.3-.2-.6-.3-.8-.5-1.4-.8-3.1-1.8-5-2.6-.5-.5-1-1-1.5-1.6-3.8-4.4-7.1-4.6-12.4-3.5-14.1,3.1-28.3,4.4-41.9-2.6-13.1-6.7-18-15.4-16.5-28.9h0c.1-1.2.3-2.5.6-3.8.8-4.5,2.3-8.5,4.3-12.3,3.3-6.1,7.8-11.3,13-16.1,22.8-20.8,49-30.7,77.2-33.5,3.4-.4,6.9-.6,10.4-.7.7,0,1.4,0,2,0,2.8,0,5.6-.1,8.4,0,2.4,0,4.8,0,7.2.2h0c2.9.1,5.9.3,8.8.6.5,0,1,.1,1.6.2,15.3,2.3,23.2,20.1,14.9,35.3h0c-5.7,10.2-14.8,19.4-24.1,26.9-.2.2-.4.3-.6.5-8.3,5.2-17,9-25.4,12.2Z"/>
  <path class="cls-2" d="M438.6,329.7c-.4.2-9.1,0-14.7-4.7,3.5,13.9,1.6,27.4-3.5,40.8-.9,2.6.2,5.8,0,8.8-.2,4.8-.1,10,7.2,17.3-3.3,2.6-18.3-2.6-23.3-2.5-.7,0-1.3.4,0,1.5-2.7,5.8-20.8,14.4-28.7,12.4,4.6,6.8,9.3,13.3,14.8,21-13.9,4.8-27.2,2.2-43-5.3,3.7,5.1,5.7,8.2,8.8,12.8-11.7,1.6-19.2-3.8-26.9-11.1-18.6,12.4-39.3,19.6-61.2,23.4-60.3,5.5-85-5.7-93.6-8.6-16.8-5.7-31.4-15.2-43-28.5-4.4-5.3-8.2-6.9-14.6-3.8-2.7,1.3-6.4,1.1-11.5,1.8,2.9-4.9,4.9-8.2,7.3-12.1h-23.9c4.9-4.4,9.5-8.6,15.9-14.4-2.8-1-5.5-2.2-8-3.3-2.1,2.2-3.6,4-3.6,4-5.5,0-6.3-3.3-6.3-3.3-.2-1.4.6-3.2,1.8-5-14.1-8.8-21.3-20.9-21.5-38.6v-1.5c-.2-9.9,2.9-21.8,9.1-29.2,2.9-3.5,7.5-5.7,10.1-9.1,2.9-4,4.6-10.4,6.4-15-15,5.3-27.2,9.5-41.1,14.4.9-3.3,14.2-29.6,19.6-57.1,3.6-18.2,14.9-33.5,20.8-51.6-4.8-1.1-11.7-2.7-18.5-4.4.2-.5.2-1.1.4-1.6,2.5-.6,5.1-1.3,7.6-1.9.9-.2,1.7-.4,2.6-.6,1.7-.4,3.3-.8,5-1.1.1,0,.2,0,.3,0l1.7-.3c.8-.2,1.6-.3,2.5-.5.9-.2,1.8-.3,2.7-.4,2.4-.4,5.5,1.8,8,3.3,13.9,6.9,27.8,9.7,43.3,2.2-6.4-6.9-12.1-13.2-17.4-19.6-4.9-5.7-4.9-9.3,3.3-12.4,22.1-8.6,42.6-19.9,55.9-40.9,0-.1.2-.3.3-.4.1-.1.2-.3.4-.4.5-.4,1.1-.8,1.8-1.1.2-.1.5-.2.7-.3.3,0,.5-.2.8-.3h0c.5-.2,1.1-.3,1.6-.3,9.9-.5,19.7-1.1,29.4-1.1,9.5.2,19,1.1,29.2,1.6,7.4-3,1.9-12.2,1.9-21.3,7.3,5.5,16.5,3.7,25.1,36.8.7-.2,5.9-27.7,5.9-27.7,9.1,9.1,20.2,17.5,15.5,35,21-.9,38.7-8.2,54.7-21.2.7.9-14.3,20.7-22.1,29.4,37.9-3,60,18.3,92.9,28.3-10.2,2.4-18.3,4.4-27.2,6.8,34.4,20.4,29.2,44,43.7,65.8-2.6-.7-6.2-1.6-11.9-3.1-5.1,22.5-9.1,43-12,65.5-1.1,7.5,11,25.6,18.3,32.9h0Z"/>
  <path class="cls-2" d="M471.8,301c-11.5,1.7-16.3,5.7-20.1,16.7-1,2.7-4.9,2.4-5.3-.5-1.7-11.5-5.7-16.3-16.7-20.1-2.7-1-2.4-4.9.5-5.3,11.5-1.7,16.3-5.7,20.1-16.7,1-2.7,4.9-2.4,5.3.5,1.7,11.5,5.7,16.3,16.7,20.1,2.7,1,2.4,4.9-.5,5.3Z"/>
  <path class="cls-1" d="M420.3,296.8c2.9-22.5,6.9-43,12-65.5,5.7,1.5,9.3,2.4,11.9,3.1-14.4-21.8-9.3-45.4-43.7-65.8,9-2.4,17-4.4,27.2-6.8-32.9-10.1-54.9-31.3-92.9-28.3,7.9-8.8,22.8-28.5,22.1-29.4-15.9,13-33.6,20.3-54.7,21.2,4.8-17.5-6.3-25.9-15.5-35,0,0-5.2,27.5-5.9,27.7-8.7-33.2-17.8-31.3-25.1-36.8,0,9.1,5.5,18.3-1.9,21.3-10.2-.5-19.7-1.5-29.2-1.6-9.7,0-19.6.5-29.4,1.1-.5,0-1,.1-1.6.3h0c-.3,0-.5.2-.8.3-.3,0-.5.2-.7.3-.7.3-1.3.7-1.8,1.1-.1.1-.3.3-.4.4-.1.1-.2.3-.3.4-13.3,21-33.8,32.4-55.9,40.9-8.2,3.1-8.2,6.8-3.3,12.4,5.3,6.4,11,12.6,17.4,19.6-15.5,7.5-29.4,4.8-43.3-2.2-2.6-1.5-5.7-3.7-8-3.3-.9.1-1.8.3-2.7.4-.8.1-1.6.3-2.5.5l-1.7.3c-.1,0-.2,0-.3,0-1.7.3-3.3.7-5,1.1-.9.2-1.8.4-2.6.6-2.6.6-5.1,1.3-7.6,1.9-.2.5-.2,1.1-.4,1.6,6.8,1.6,13.7,3.3,18.5,4.4-5.8,18.1-17.2,33.4-20.8,51.6-5.4,27.5-18.7,53.8-19.6,57.1,13.9-4.9,26.1-9.1,41.1-14.4-1.8,4.6-3.5,11-6.4,15-2.6,3.5-7.1,5.7-10.1,9.1-6.2,7.5-9.3,19.4-9.1,29.2v1.5c.3,17.6,7.4,29.8,21.5,38.6,2.5,1.6,5.2,3,8.1,4.3,2.5,1.2,5.2,2.3,8,3.3-6.4,5.8-11,10.1-15.9,14.4h23.9c-2.4,3.8-4.4,7.1-7.3,12.1,5.1-.7,8.8-.5,11.5-1.8,6.4-3.1,10.2-1.5,14.6,3.8,11.5,13.3,26.1,22.8,43,28.5,8.6,2.9,33.3,14.1,93.6,8.6,21.9-3.8,42.6-11,61.2-23.4,7.7,7.3,15.2,12.8,26.9,11.1-3.1-4.6-5.1-7.7-8.8-12.8,15.7,7.5,29.1,10.1,43,5.3-5.5-7.7-10.2-14.3-14.8-21,7.9,2,26-6.6,28.7-12.4-1.3-1.1-.7-1.5,0-1.5,4.9-.2,20,5,23.3,2.5-7.3-7.3-7.4-12.5-7.2-17.3.2-2.9-.9-6.2,0-8.8,5.1-13.3,6.9-26.9,3.5-40.8,5.6,4.7,14.3,4.8,14.7,4.7-7.3-7.3-19.4-25.4-18.3-32.9h0ZM329.2,288.5c15,18.3,8.7,43-13.1,51.3-.2,0-.4.2-.6.2-5.7,2.2-29.6,2.4-35.1.7-12.3-3.9-21.2-11.5-23.6-24.5h0c0,0,0-.1,0-.1,0-.2,0-.5-.1-.7-1.8-10.4,1.4-18.7,7.5-25.6,0,0,0,0,0,0,2.2-2.4,4.7-4.6,7.5-6.7,8-6,17.9-8.6,27.5-8.3h0c11.6.4,22.9,5.1,30.1,13.8h0ZM318.3,272.8c-24.1-7.7-44.4-2.6-62.5,17.9-2.4-6-4.6-10.2-5.8-14.6-2.9-9.1,0-14.3,9.3-13.7,17.4.9,34.5,3.3,51.7,5.3,2.7.4,5.1,2.7,7.3,5.1ZM256.7,223.4c3.3-5.5,8.2-4.9,15.9-2,9.9,4,15.2,9.7,19.9,17.5,3.3,5.1,6.9,10.2,10.2,15.2.9,1.5,1.6,2.7,2.7,4.6-18.5-1.6-36.4-2.9-54.1-4.9-1.8-.2-5.1-3.5-4.8-4.6,2.9-8.8,5.3-18.1,10.1-25.8h0ZM240,283c8.9,5.4,12.2,12.5,10.1,21.6-3.3,13.7,2,25.2,13.3,34.7,12.5,10.5,41.7,10.5,59.2,4.2,21.8-7.9,26-31.3,13.5-53,2.9.5,4.6,1.1,7.9,1.8-3.7-6.9-6.8-12.6-10.1-18.6,1.6-.4,2.7-.7,2.7-.5,13,17.7,22.5,36.4,18.6,59.2-1.5,8.6-6,14.6-14.6,16.3-28.5,6-56.8,3.7-84.8-3.8-10.1-2.7-16.1-10.6-17.9-21.6-2-13.5-2.2-26.9,2-40.2ZM230.9,285c-.7,1.1-3.1,2.4-3.8,2-1.5-.5-3.1-2.4-3.5-4-.7-3.7-.5-7.3-1.1-11.1-.5-3.5-1.5-6.9-2.2-10.8,10.4,3.1,15.7,15.7,10.6,23.9ZM162.5,300.3c0,0,.1-.2.2-.2,0,0,.2-.2.3-.2.2-.2.3-.4.5-.6.5-.5,1-.8,1.6-1.2.2-.2.5-.3.7-.4.6-.3,1.2-.6,1.8-.7,1.3-.4,2.6-.3,3.9,0,1.2.2,2.5,1,3.3,1.9,1,1,1.7,2.4,2.1,3.8.2.7.3,1.4.4,2.2,0,.3,0,.6,0,.9,0,1.2-.3,2.4-1,3.5-.6.9-1.4,1.8-2.4,2.3-1.2.6-2,.8-3.4.9-.8,0-1.7,0-2.5-.3-.8-.2-1.6-.5-2.4-.9-.4-.2-.9-.4-1.3-.7-.6-.4-1.3-.9-1.8-1.5-.7-.9-1.3-1.7-1.6-2.8-.3-1-.3-2.2,0-3.2.4-1.1.6-1.5,1.4-2.3h0ZM146.3,272.4c7.9-3.7,11,.4,14.8,6.6-6.2,3.7-12.1,7.1-18.6,11.1-2.2-7.3-5.7-13.3,3.8-17.7h0ZM128.2,290.5c7.1,2.4,11.7,4.9,10.4,14.8-1.8,14.3,11.1,25.8,26.7,25.8s26-13.3,25.8-27.8c-.2-3.8.5-7.7.9-13.7-.9-.7-3.7-2-5.1-4-1.3-2-1.3-4.9-1.8-7.5,2.9-.2,6.8-1.5,8.4,0,14.6,11.1,14.7,32.6,2.1,46.1-18.5,20.1-57.8,14.7-69.5-10.7,2.7.2,4.9.2,8.2.5-7.4-8.7-9.4-16.5-6-23.6h0ZM115.6,304.4c10.2,33.4,42.7,46.5,72.6,32.6,22.3-10.4,29.5-33,16-53.5-2.7-4.2-6.4-7.9-9.5-11.9.2-.5,0-1.5.5-1.8,4-3.1,8.4-6,12.6-9.1,2.2,4.8,5.3,9.3,6.4,14.4,4,17.9,1.6,35.8-3.7,53.2-2.9,9.7-10.2,15-19.7,15.4-15.9.5-32,1.1-47.7-.5-22.8-2.6-29.6-12.8-27.6-38.7ZM405.7,379.1c-6.2-3.7-4.5-6.5-4.1-13.1.2-3.7-.9-8.8-3.5-10.8-2.9-2.2-7.9-2-12.1-2-2-.2-4,1.3-6,2.2,4.9-9,10.1-17.9,15-26.9-10.6,6.6-16.8,16.1-19.7,27.4-4.2,15.9,4.8,24.9,20.7,21,6.1,7.6.9,11.7-12.4,14.6-1.6-3.5-3.6-9-5.2-12.5-1.1-.2-6.2,1.8-7.3,1.8,1.8,5.5,5.1,9,3.7,14.6-3.7-.4-11.6-1-16.5-1.4.7-4.4,1.5-7.5,2-10.6-3.8,2-5.5,4.9-7.9,7.3-10.1,9.5-19,21-30.7,28-48.8,28.5-100.3,28.7-152.4,9.3-28.5-10.6-46.4-31.4-50.4-62.7-.2-2.4-1.6-4.8-2.6-7.1-.7.2-1.5.4-2.2.7v12.8c-4.7,0-9-.5-12.8-1.4-3.5-.8-6.7-1.9-9.5-3.3-10-5-15.9-13.9-19.8-26.3-1.7-5.3-2.5-10.9-2.3-16.5,0-1.7.3-3.4,1-5h0c1.4-3.5,3.3-6.8,5.5-9.8,0,0,0,0,0,0,3.2-4.3,7.1-7.8,11.5-10.1,14.3,2.4,18.6,6.6,22.3,22.5.4,1.8.9,3.5,1.4,5.1,1.1,3.3,2.6,6.3,4.5,9,4.7,6.8,11.8,11.1,21.5,12.2,15.2,1.6,30.5,3.3,45.7,2.7,24.7-1.1,34.7-10.8,40.2-35.3.7-2.6,1.5-5.1,2.4-7.7.7,0,1.6.2,2.6.2.4,4.6.5,9.1,1.1,13.7,1.6,13,5.7,24.3,19.7,28.1,29.8,8.2,60.1,11.3,91,6,10.1-1.6,18.3-6.6,21.9-17.5,2,2.9,3.5,5.3,5.1,7.5,2.2-4,2.4-7.9,2.7-11.7,1.5-12.8,12.4-23,24.7-23.2,9.1-.2,23.8,12.2,25.2,21.8,2.2,16.1-2.3,33.9-13.8,46.1h0ZM379.9,355.7c2.4.5,4.8,1.1,6.9,1.8,2.7.9,5.5,2,8.2,2.9-1.5,2.4-2.7,6.4-4.8,6.9-2.9.7-7.5-.2-9.5-2.2-1.6-1.8-.7-6.2-.9-9.5h0Z"/>
  <path class="cls-1" d="M158.7,366c2.2,13,6.4,26.5,21.4,33.6,28.9,13.9,58.9,16.1,89,5.1,12.8-4.8,20.8-14.6,24.7-27.6-45-9-89.6-14.6-135.1-11.1ZM165.3,371.1c40.6-2.9,79.1,2.2,118.6,10.6-14.8,6.9-108.4-1.1-118.6-10.6Z"/>
  <path class="cls-1" d="M187.6,79.1h0c-.1-.8-.3-1.6-.4-2.3,0-.3-.1-.5-.2-.7-.2-.8-.4-1.5-.6-2.3-.2-.8-.5-1.6-.8-2.3-.3-.8-.7-1.6-1.1-2.4-.2-.3-.3-.6-.5-.9-.2-.4-.4-.7-.6-1.1-.2-.4-.4-.7-.7-1-.2-.3-.5-.7-.7-1-.2-.3-.5-.7-.8-1-.3-.3-.5-.6-.8-.9-.3-.4-.6-.7-1-1-.2-.2-.5-.4-.7-.6-.2-.2-.4-.4-.6-.6,0,0,0,0,0,0-.2-.2-.5-.4-.7-.5-.5-.4-1-.8-1.6-1.1,0,0-.2-.1-.3-.2-.5-.4-1.1-.7-1.7-1-.2-.1-.5-.3-.7-.4,0,0-.1,0-.2-.1-.2-.1-.4-.2-.7-.3-.2,0-.4-.2-.6-.3-.4-.2-.7-.3-1.1-.5-.2,0-.3-.1-.5-.2,0,0,0,0,0,0-.2,0-.4-.1-.5-.2,0,0-.1,0-.2,0,0,0-.2,0-.3,0,0,0-.1,0-.2,0,0,0,0,0,0,0-.2,0-.5-.2-.7-.2-.4-.1-.9-.2-1.3-.3-.4-.1-.8-.2-1.3-.3-.2,0-.4,0-.6,0-.1,0-.2,0-.4,0-.2,0-.4,0-.6,0,0,0,0,0-.1,0-.2,0-.4,0-.6,0-.3,0-.5,0-.8-.1,0,0,0,0,0,0-.3,0-.5,0-.8,0-.6,0-1.3,0-2-.1h0c0,0-.2,0-.2,0-2.1,0-4.3,0-6.4,0s-1.8,0-2.7,0h0c-1.2,0-2.5,0-3.7,0-.3,0-.5,0-.7,0-1.5,0-2.9,0-4.4.1h0c-.9,0-1.8,0-2.7.1-.9,0-1.8.1-2.7.2-3.6.2-7.2.5-10.8,1-.9,0-1.8.2-2.7.3-1.1.1-2.2.3-3.3.5-.7.1-1.5.2-2.3.3-.3,0-.6,0-1,.1-1,.2-2,.3-3,.5-.6.1-1.2.2-1.8.3-.7.1-1.4.3-2,.4-1.2.2-2.3.5-3.4.7-.6.1-1.2.3-1.8.4-.5.1-1.1.3-1.6.4-.3,0-.7.2-1,.3-.6.1-1.2.3-1.8.5,0,0,0,0,0,0-2,.5-3.9,1.1-5.9,1.7-.8.3-1.6.5-2.3.8,0,0,0,0,0,0-1,.4-2,.7-3,1.1-.2,0-.3.1-.5.2-.6.2-1.2.4-1.7.7-2.9,1.1-5.8,2.3-8.6,3.7-.6.3-1.3.6-1.9.9-.6.3-1.3.6-1.9,1-.7.3-1.3.7-2,1-.8.4-1.5.8-2.3,1.3-.5.3-1,.6-1.5.9-.4.2-.8.5-1.2.7-.7.4-1.4.8-2,1.2-1.8,1.1-3.6,2.3-5.4,3.5-12.4,8.6-24.3,18.5-29.6,33.1-9,25-1.4,43.1,22.7,50,1.2.4,2.5.7,3.8,1,.5.1,1,.2,1.6.3,7.2,1.3,15,1.2,22.6.5,2.8-.3,5.5-.6,8.2-1,.5,0,1-.1,1.5-.2.2,0,.4,0,.5,0,.4,0,.8,0,1.2,0s.6,0,.9,0c.2,0,.5,0,.7,0,.3,0,.7,0,1,.1h0c.2,0,.4,0,.6,0,.2,0,.4,0,.6.1.1,0,.2,0,.4,0,.2,0,.4,0,.5.2h0c0,0,.1,0,.2,0,.3,0,.5.2.8.3,0,0,0,0,0,0,.4.2.8.4,1.2.6.3.2.6.3.9.5,0,0,0,0,0,0,.3.2.6.4,1,.7.4.3.7.5,1.1.9.3.3.7.6,1,.9,5.3,4.6,10.9,8,17.1,9.9.6.2,1.2.3,1.8.5.3,0,.5.1.8.2.7.1,1.3.3,2,.4,5.4.9,11.2.6,17.6-1.2-6.2-7.3-11.9-12.4-15.9-18.7-6-9.1-5.1-10.4,4.8-15,7.3-3.3,14.8-6.8,21.8-11,12.6-7.5,23.6-17.2,31.1-30.3.3-.5.5-1,.8-1.4,0-.2.2-.3.3-.5.2-.5.4-.9.6-1.4.2-.5.5-1.1.7-1.7,0,0,0,0,0,0,.2-.6.4-1.2.6-1.8.2-.7.4-1.4.6-2.1,0,0,0-.1,0-.2.1-.5.2-.9.3-1.4,0-.4.1-.8.2-1.2.1-.7.2-1.3.3-2h0c0-.4,0-.8,0-1.2,0-.3,0-.7,0-1,.1-2.4,0-4.8-.4-7.2ZM114.2,169.7c-3.8-1.7-7.3-4-10.4-7-.5-.5-1-1-1.5-1.6-3.8-4.4-7.1-4.6-12.4-3.5-14.1,3.1-28.3,4.4-41.9-2.6-13.1-6.7-18-15.4-16.5-28.9h0c.1-1.2.3-2.5.6-3.8.8-4.5,2.3-8.5,4.3-12.3,3.3-6.1,7.8-11.3,13-16.1,22.8-20.8,49-30.7,77.2-33.5,3.4-.4,6.9-.6,10.4-.7.7,0,1.4,0,2,0,2.8,0,5.6-.1,8.4,0,2.4,0,4.8,0,7.2.2h0c2.9.1,5.9.3,8.8.6.5,0,1,.1,1.6.2,15.3,2.3,23.2,20.1,14.9,35.3h0c-5.7,10.2-14.8,19.4-24.1,26.9-.2.2-.4.3-.6.5-8.8,6.7-19.7,11-29.9,16-2.5,1.2-4.5,2.3-6,3.4-2.6,2-3.6,4-3,7.2.3,1.8,1.1,3.9,2.4,6.6,0,0,0,.2.1.3.9,2.3,2.2,4.3,3.2,5.6,2.1,3.4,4.6,6.8,7.2,10.7h-.2c-4.6,0-9.3-1-14.8-3.2Z"/>
  <path class="cls-2" d="M165,60.6c-.5,0-1-.1-1.6-.2-2.9-.2-5.9-.4-8.8-.6h0c-2.4-.1-4.8-.2-7.2-.2-2.8,0-5.6,0-8.4,0-.7,0-1.4,0-2,0-3.5.1-7,.4-10.4.7-28.1,2.9-54.3,12.8-77.2,33.5-5.2,4.8-9.8,10-13,16.1-2,3.8-3.5,7.8-4.3,12.3-.2,1.3-.4,2.5-.6,3.8h0c-1.5,13.5,3.4,22.2,16.5,28.9,13.5,6.9,27.8,5.7,41.9,2.6,5.3-1.1,8.6-.9,12.4,3.5.5.5,1,1.1,1.5,1.6,1.9.8,3.5,1.8,5,2.6.3.2.6.3.8.5,6.7,3.3,12.4,5,17.8,5.3-1.8-2-3.5-4.1-5.2-6.1-1.8-2.1-6.8-7.9-5.8-15.3-.6-3.2.4-5.2,3-7.2,3.3-4.4,8.5-6.3,10.5-7.1,8.3-3.2,17.1-7.1,25.4-12.2.2-.1.4-.3.6-.5,9.3-7.5,18.5-16.6,24.1-26.9h0c8.3-15.2.4-33-14.9-35.3ZM155.9,63.3c0,0-.1.2-.2.2v-.3s0,0,.2.1ZM63.3,142.6l-8.9-23.3-6.1,3.2-2.9-7,18.1-9.4,3.3,6.6-3.8,2,10.7,23.1-10.4,4.7ZM99.9,123c-1,3.1-1.5,4.6-1.4,4.6l-9.9-2,2.2,4.4-10.4,4.7-13.1-29.1,8.8-3.4,3.3,6.4,4.8-10.8c2,.8,3.6,1.5,4.7,2,3.2,1.4,4.7,2.1,4.6,2.2l-5.8,13.1,13.9,3.2c-.5,1.3-1,2.9-1.6,4.7ZM120.8,114c-1.9,3.4-5.2,5.8-9.7,7.3-1.5.5-3,.8-4.4,1-1.2.1-1.8,0-1.7-.1l-2.4-6.6c.9-.1,1.8-.4,2.6-.7,1.9-.7,3.3-1.6,4.1-2.7.5-.8.4-1.3-.2-1.6-.3-.2-1.3-.3-2.8-.5-3.6-.5-6-1.7-7.3-3.5,0,0,0,0-.2-.1l-.5-.6c-.6-.8-1-1.7-1.4-2.7-1.1-3-.8-5.8,1-8.4,1.4-2.1,3.8-4,7.1-5.7,1.6-.8,3.2-1.5,4.7-2.1l3.9,9.9c.2,0,.2.2.1.3v-.3c-.3,0-.6-.1-1.1-.1-.9,0-1.9,0-3,.3-3,.7-4,2-3.1,3.8.1.6.9.9,2.1,1l4.2.2c4.2.2,6.8,1.5,8,3.8.4.9.7,1.8.8,2.7.3,2.1,0,3.9-1,5.6ZM125.3,78.2l8.8-5.3,8,19-8.6,4.1-8.2-17.8ZM145.7,103.1c-.5,1.7-1.4,2.8-2.6,3.4-2.9,1.3-4.9.7-6.1-2-.6-1.4-.8-2.8-.5-4.3.3-1.6,1.1-2.6,2.4-3.2,1.4-.7,2.7-.9,3.9-.7,1.3.2,2.3,1,2.8,2.2.6,1.3.7,2.8.2,4.5ZM139.5,71.7l8.8-5.3,8,19-8.6,4.1-8.2-17.8ZM159.9,96.7c-.5,1.7-1.4,2.8-2.6,3.4-2.9,1.3-4.9.7-6.1-2-.6-1.4-.8-2.8-.5-4.3.3-1.6,1.1-2.6,2.3-3.2,1.4-.7,2.7-.9,3.9-.7,1.3.2,2.3,1,2.8,2.2.6,1.3.7,2.8.2,4.5Z"/>
  <path class="cls-1" d="M107.4,340.2c-.1-.3-.2-.6-.3-1-1.2-2.9-2.5-5.6-4.1-8h0c-3.9-6-9.3-10.6-16.3-13.5-1.4-.6-3-.5-4.6-.5,0,0-.3-.1-.3,0-.6,0-1.2,0-1.8,0-.1.7-.2,1.5-.3,2.2.2.1.5.2.7.3,1.4.7,2.9,1.4,4.3,2,8.7,3.4,15.2,8.9,17.7,18.2.4,1.7-1.3,4-2.1,6.1-1.9-1.5-4.8-2.6-5.4-4.5-.9-2.9-.3-6.3-.3-9.5-.9-.1-1.9-.2-2.8-.3-.3,4.5-1.8,9.3-.7,13.3,1.5,5.4,4.8,11.9,12.1,8.9,6.3-2.5,6.3-8.2,4.3-13.8,0,0,0,0,0,0h0Z"/>
  <path class="cls-1" d="M298.8,283.8c-1.3-.2-2.7-.3-4.1-.3-9.6.1-17.9,4.6-23.1,11.7,0,0,0,0,0,0-3.5,4.9-5.6,11-5.7,17.7,0,.7,0,1.3,0,2,0,0,0,0,0,0,1.1,12.4,13.7,22.4,28.6,22.3,6.7,0,12.7-2.1,17.5-5.7,6.8-5.1,11.1-13.1,11.2-22.4,0-13.2-10.4-23.6-24.5-25.3ZM299.9,314.9c-.5.6-1.2,1.1-1.9,1.5-.4.2-.8.4-1.2.6-.4.2-.8.3-1.2.4-.9.2-1.8.3-2.7.3-1,0-2-.1-2.9-.5-1.2-.4-2.2-.9-3.1-1.8-.9-.8-1.4-1.8-1.8-2.9-.5-1.4-.5-3.3,0-4.8.6-1.6,1.5-3.1,2.8-4.2.5-.4,1-.8,1.5-1.1.5-.3,1.1-.5,1.7-.7.3-.1.7-.2,1-.3,0,0,.2,0,.3-.1.9-.3,1.9-.5,2.8-.4,1.3,0,2.3.3,3.5.9,1.7.8,2.9,2.6,3.4,4.4.9,3.1-.2,6.4-2.3,8.8h0Z"/>
  <path class="cls-1" d="M155.9,63.3c0,0-.1.2-.2.2v-.3s0,0,.2.1Z"/>
  <path class="cls-1" d="M66.9,214.7c-8.4,2.1-11.7,5.4-13.8,13.8-.5,2.1-3.5,2.1-4,0-2.1-8.4-5.4-11.7-13.8-13.8-2.1-.5-2.1-3.5,0-4,8.4-2.1,11.7-5.4,13.8-13.8.5-2.1,3.5-2.1,4,0,2.1,8.4,5.4,11.7,13.8,13.8,2.1.5,2.1,3.5,0,4Z"/>
  <path class="cls-1" d="M471.8,301c-11.5,1.7-16.3,5.7-20.1,16.7-1,2.7-4.9,2.4-5.3-.5-1.7-11.5-5.7-16.3-16.7-20.1-2.7-1-2.4-4.9.5-5.3,11.5-1.7,16.3-5.7,20.1-16.7,1-2.7,4.9-2.4,5.3.5,1.7,11.5,5.7,16.3,16.7,20.1,2.7,1,2.4,4.9-.5,5.3Z"/>
  <path class="cls-1" d="M107.5,364.9c-.9.2-3.5,2.7-6.3,5.5-1.5,1.5-3,3.2-4.4,4.6-2.1,2.2-3.6,4-3.6,4-5.5,0-6.3-3.3-6.3-3.3-.2-1.4.6-3.2,1.8-5,.8-1.2,1.9-2.4,3-3.6,3.3-3.5,7-6.4,7-6.4,0,0,11,3.7,8.8,4.2h0Z"/>
  <polygon class="cls-1" points="73.6 137.8 63.3 142.6 54.4 119.3 48.3 122.4 45.4 115.5 63.5 106.1 66.7 112.7 63 114.7 73.6 137.8"/>
  <path class="cls-1" d="M99.9,123c-1,3.1-1.5,4.6-1.4,4.6l-9.9-2,2.2,4.4-10.4,4.7-13.1-29.1,8.8-3.4,3.3,6.4,4.8-10.8c2,.8,3.6,1.5,4.7,2,3.2,1.4,4.7,2.1,4.6,2.2l-5.8,13.1,13.9,3.2c-.5,1.3-1,2.9-1.6,4.7Z"/>
  <path class="cls-1" d="M113.9,97v-.3c0,0,.1.2,0,.3Z"/>
  <path class="cls-1" d="M120.8,114c-1.9,3.4-5.2,5.8-9.7,7.3-1.5.5-3,.8-4.4,1-1.2.1-1.8,0-1.7-.1l-2.4-6.6c.9-.1,1.8-.4,2.6-.7,1.9-.7,3.3-1.6,4.1-2.7.5-.8.4-1.3-.2-1.6-.3-.2-1.3-.3-2.8-.5-3.6-.5-6-1.7-7.3-3.5,0,0,0,0-.2-.1l-.5-.6c-.6-.8-1-1.7-1.4-2.7-1.1-3-.8-5.8,1-8.4,1.4-2.1,3.8-4,7.1-5.7,1.6-.8,3.2-1.5,4.7-2.1l3.9,9.9c-.2,0-.5-.1-1-.1-.9,0-1.9,0-3,.3-3,.7-4,2-3.1,3.8.1.6.9.9,2.1,1l4.2.2c4.2.2,6.8,1.5,8,3.8.4.9.7,1.8.8,2.7.3,2.1,0,3.9-1,5.6Z"/>
  <path class="cls-1" d="M145.5,98.6c-.6-1.3-1.5-2-2.8-2.2-1.2-.2-2.5,0-3.9.7-1.3.6-2,1.6-2.4,3.2-.3,1.4-.1,2.9.5,4.3,1.2,2.6,3.2,3.3,6.1,2,1.3-.6,2.1-1.7,2.6-3.4.5-1.6.4-3.1-.2-4.5ZM134.1,72.9l-8.8,5.3,8.2,17.8,8.6-4.1-8-19Z"/>
  <path class="cls-1" d="M159.7,92.2c-.6-1.3-1.5-2-2.8-2.2-1.2-.2-2.5,0-3.9.7-1.3.6-2,1.6-2.3,3.2-.3,1.4-.1,2.9.5,4.3,1.2,2.6,3.2,3.3,6.1,2,1.3-.6,2.1-1.7,2.6-3.4.5-1.6.4-3.1-.2-4.5ZM148.3,66.4l-8.8,5.3,8.2,17.8,8.6-4.1-8-19Z"/>
</svg>