<?xml version="1.0" encoding="UTF-8"?>
<svg id="Layer_1" data-name="Layer 1" xmlns="http://www.w3.org/2000/svg" version="1.1" viewBox="0 0 500 500">
  <defs>
    <style>
      .cls-1 {
        fill: #002b22;
      }

      .cls-1, .cls-2 {
        stroke-width: 0px;
      }

      .cls-2 {
        fill: #efff3d;
      }
    </style>
  </defs>
  <path class="cls-1" d="M92.6,154.1l4.2,2.2c0,.2-.4.9-1.6,2-1.4,1.4-3.1,2.3-4.9,2.6-1.9.4-3.7-.2-5.2-1.7-.7-.6-1.3-1.4-1.9-2.3-.5-.8-.8-1.7-1-2.6-.4-2,.1-3.8,1.5-5.2,1-1.2,2.6-2,4.7-2.7.8-.2,1.8-.5,2.8-.6l.6,4.4c-.3,0-.7-.1-1.2-.1-.9,0-1.7.4-2.3,1-.5.4-.8,1-.9,1.6-.2.8,0,1.5.4,2.2.7,1,1.4,1.5,2.3,1.3.8-.1,1.7-.9,2.5-2.2Z"/>
  <path class="cls-2" d="M237.8,446.7c-34.8,0-52.5-6.4-61-9.5-.7-.3-1.4-.5-1.9-.7-18.1-6.1-33.4-16.3-45.4-30.2v-.2c-.6-.5-.9-.9-1.2-1.1-.1,0-.3.1-.4.2h-.1c-3.4,1.6-6.7,1.9-9.9,2.2-1.3.1-2.6.2-3.9.4l-21.3,3,8.6-14.4h-31.7l19.4-17.3c-2.2-1.9-3.6-4.3-4.2-6.7v-.5c-.1,0-.2-.5-.2-.5-.1-.8-.2-1.7-.2-2.5-12.3-10.1-18.4-23.4-18.7-40.6v-1.5c-.1-8.9,2-21,8.3-30.8-3.1,1.1-6.1,2.2-9.3,3.3l-18.7,6.7,5.3-19.2c.4-1.4,1.1-2.9,2.6-6.4,3.9-9.1,12.2-27.9,16-47.3,2.2-11.3,7-21.1,11.6-30.7,1.5-3.1,3-6.2,4.4-9.2-2-.5-4.1-1-6.1-1.5l-10.9-2.7,3.4-10.1c0-.5.2-1.2.5-2.1l1.8-5.4,5.5-1.4c1.1-.3,2.1-.5,3.2-.8,1.3-.3,2.7-.7,4-1,.9-.2,1.7-.4,2.6-.6,1.7-.4,3.4-.8,5-1.1.2,0,.4,0,.6-.1l1.5-.3c.8-.2,1.7-.3,2.5-.5,1-.2,2-.3,2.9-.5.7,0,1.3-.1,2-.1,4.7,0,8.5,2.3,11.2,3.9.3.2.5.3.8.5,6.4,3.2,11.8,4.8,17,5.1-1.7-1.9-3.4-3.9-5-5.8-1.9-2.2-7.2-8.4-5.2-16.2,2-8,9.9-11,12.6-12,17.2-6.7,36.3-16,48.3-34.9v-.2c.1,0,.3-.2.3-.2.2-.4.6-.8,1.1-1.4.4-.4.8-.8,1.2-1.2h0c1.2-1.1,2.6-2,4.2-2.7.6-.3,1.1-.5,1.5-.6h.2c.4-.2.8-.4,1.4-.5l1.3-.4h.2c.7-.1,1.3-.2,2-.3h.2c9.4-.5,19.1-1.1,28.6-1.1h.2c6,.1,11.9.5,18,.9.7,0,1.5.1,2.2.1-.5-2.7-1.1-6-1.1-9.5v-20.7l16.5,12.4c.7.5,1.7,1.1,2.8,1.7,4,2.1,7.7,4.5,11.3,8.6l2.7-14.4,13.8,13.8c.8.8,1.7,1.6,2.5,2.5,6.1,5.9,14.5,14.1,16.1,26.5,12.4-2.4,23.8-7.9,34.4-16.5l8.1-6.6,6.5,8.1c1.3,1.7,4.1,6.2.6,12.6-.5.9-1.1,1.9-2,3.2-1.4,2.1-3.4,4.9-5.8,8.1-.3.4-.5.7-.8,1.1,16.1,2.5,29.5,8.8,42.5,15,8.9,4.2,18,8.6,28,11.6l36.8,11.2-37.5,8.7c-1.8.4-3.5.8-5.2,1.2,10.8,11.1,14.9,22.7,18.7,33.3,2.4,6.7,4.6,13,8.5,18.8l15.5,23.3-26.9-7.7c-.2,0-.5-.1-.7-.2-4,18.4-6.8,34.5-8.9,50.8.5,4,8.1,16.6,14.4,23l10.1,10.1-12.8,6.4c-2,1-3.8,1.1-5.2,1.1s-.7,0-1.4,0c-.1,8.7-1.9,17.6-5.4,26.8,0,.3,0,.8.1,1.2.1,1.4.3,3,.2,4.9-.1,3-.1,4.7,3.9,8.7l8.3,8.3-9.2,7.2c-2.5,1.9-5.5,2.9-9.4,2.9s-8.5-1-12.9-1.9c-.3,0-.7-.1-1-.2-3.8,3.7-9.3,6.9-15,9.2.8,1.2,4.9,6.8,4.9,6.8l8.1,11.3-13.1,4.5c-5.6,1.9-11.1,2.8-16.9,2.8s-1.9,0-2.8,0l1.7,2.5-16.4,2.3c-1.8.3-3.6.4-5.3.4-9.4,0-16.6-3.6-22.7-8.4-16.1,9.5-34.4,16-55.6,19.7h-.4c0,0-.4.1-.4.1-10.7,1-21,1.5-30.5,1.5h0Z"/>
  <path class="cls-2" d="M135.6,192.7c-11.9,0-22.7-4.4-33-13.4h-.2c0-.1-.2-.3-.2-.3-.2-.2-.3-.3-.3-.3h-.1c0-.1-.1-.2-.1-.2-.2-.2-.4-.3-.4-.4l-.3-.2-.4-.3h0c0,0-.5-.2-.5-.2h-.2s-.1,0-.1,0h-.4s-.2,0-.2,0c0,0,0,0-.2,0h-.5s-.2,0-.2,0c-.2,0-.4,0-.6,0h0c-7.6,1.1-13.7,1.5-19.2,1.5s-10.6-.5-15.2-1.5h0c-19.2-4.3-28-14-32.1-21.5-4.2-7.7-7.7-21-.6-40.8,6.1-16.9,19.6-27.9,32.1-36.5h0c2-1.4,3.7-2.5,5.5-3.6.6-.4,1.4-.8,2.2-1.3.4-.2.8-.5,1.2-.7.5-.3,1.1-.6,1.6-.9.8-.4,1.5-.9,2.3-1.3.8-.4,1.6-.8,2.1-1.1.7-.3,1.3-.7,2-1,.7-.3,1.3-.6,2-.9,3-1.4,5.9-2.7,8.8-3.8.5-.2,1.1-.4,1.7-.7,0,0,.5-.2.6-.2.8-.3,1.7-.6,2.4-.9l1.6-.8h.8s.7-.2.7-.2c1.6-.5,3.3-1.1,5.1-1.5l1.3-.6h1.1c.2,0,.4,0,.6-.1l.9-.2c.3,0,.6-.2.9-.2.2,0,.4-.1.6-.2h.2c0,0,.2-.1.2-.1.2,0,.5-.1.7-.2.3,0,.6-.1.8-.2,1.2-.3,2.3-.5,3.5-.8.7-.1,1.4-.3,2.1-.4.6-.1,1.2-.2,1.9-.4,1-.2,2-.4,3-.5h.1c.3,0,.6-.1,1-.2.6-.1,1.3-.2,1.9-.3h.2c1.1-.2,2.2-.4,3.3-.5.9-.1,1.8-.2,2.8-.3,3.7-.4,7.3-.8,10.8-1l2.6-.2c.9,0,1.9,0,2.8-.1h0c1.4,0,2.9-.1,4.1-.1.4,0,.7,0,1,0,1.2,0,2.4,0,3.6,0,.9,0,1.8,0,2.7,0,2.1,0,4.2,0,6.2,0,.2,0,.5,0,.8,0,.7,0,1.3,0,2,.1.7,0,1.5.1,2.2.2.4,0,1,.1,1.6.2.3,0,1,.2,1,.2,1.1.2,2.1.4,3.2.7.5.1,1.1.3,1.6.5,0,0,.1,0,.2,0,.3.1.6.2.9.3.8.3,1.7.6,2.5,1,.5.2,1,.4,1.6.7s.2,0,.3.1c.3.2.7.3,1,.5.8.4,1.5.9,2.2,1.3,0,0,.3.2.3.2.7.5,1.4,1,2.2,1.5.3.2.6.5.9.7,0,0,.4.3.4.3h0c.2.2.4.4.6.6.3.3.6.5.9.8.5.5,1,1,1.4,1.5h0c.3.4.6.7.9,1.1.4.4.7.9,1.1,1.3.4.5.7.9,1,1.3.4.5.6,1,.9,1.3.3.5.6,1,.9,1.5l.5,1v.2c.6,1,1.1,2,1.5,3,.4,1,.8,2,1.1,3.2.3,1,.6,2,.8,2.8h0c0,.3.1.6.2.9.2,1.1.4,2,.5,2.9.4,2.9.6,5.9.4,8.8h0c0,.4,0,.8,0,1.3,0,.3,0,.5,0,.8h0c0,.1,0,.7,0,.7,0,.8-.2,1.6-.3,2.3,0,.6-.2,1.1-.3,1.5h0c-.1.6-.2,1.3-.4,2-.2,1-.5,1.8-.7,2.7,0,.2,0,.3-.1.5v.2l-.7,1.8c-.3.7-.5,1.3-.8,2-.3.7-.6,1.4-.8,1.8v.2c-.2.2-.3.4-.4.7-.3.6-.6,1.2-.9,1.7-7.5,13.1-18.3,23.8-33.3,32.6-7.1,4.3-14.5,7.7-21.5,10.9,2,2.9,4.6,5.7,7.6,9,1.9,2.1,4.1,4.5,6.4,7.1l10.5,12.3-15.6,4.3c-4.7,1.3-9.4,2-13.9,2h0Z"/>
  <path class="cls-2" d="M60.4,241.4c-5.7,0-10.6-3.9-11.9-9.4-1-4.2-1.3-4.5-5.6-5.5-5.5-1.3-9.4-6.2-9.4-11.9s3.9-10.6,9.4-11.9c4.2-1,4.5-1.3,5.5-5.6,1.3-5.5,6.2-9.4,11.9-9.4s10.6,3.9,11.9,9.4c1,4.2,1.3,4.5,5.6,5.5,5.5,1.3,9.4,6.2,9.4,11.9s-3.9,10.6-9.4,11.9c-4.2,1-4.5,1.3-5.5,5.6-1.3,5.5-6.2,9.4-11.9,9.4h0Z"/>
  <path class="cls-2" d="M439.7,326.6c-6.5,0-11.9-4.7-12.8-11.1-1.1-7.1-2.3-8.6-9.1-10.9-5.7-2-9.2-7.5-8.7-13.5.6-6,5.1-10.7,11-11.6,7.1-1.1,8.6-2.3,10.9-9.1,1.8-5.2,6.7-8.7,12.2-8.7s11.9,4.7,12.8,11.1c1.1,7.1,2.3,8.6,9.1,10.9,5.7,2,9.2,7.5,8.7,13.5-.6,6-5.1,10.7-11,11.6-7.1,1.1-8.6,2.3-10.9,9.1-1.8,5.2-6.7,8.7-12.2,8.7h0Z"/>
  <path class="cls-2" d="M58.5,229.5c-2-8-5.1-11.2-13.2-13.2-2-.5-2-3.3,0-3.8,8-2,11.2-5.1,13.2-13.2.5-2,3.3-2,3.8,0,2,8,5.1,11.2,13.2,13.2,2,.5,2,3.3,0,3.8-8,2-11.2,5.1-13.2,13.2-.5,2-3.3,2-3.8,0Z"/>
  <path class="cls-2" d="M39.8,118.9c5.1-13.9,16.4-23.3,28.2-31.5,1.7-1.1,3.4-2.3,5.1-3.3.6-.4,1.3-.8,2-1.2.4-.2.8-.5,1.1-.7.5-.3,1-.6,1.5-.8.7-.4,1.5-.8,2.2-1.2.6-.4,1.3-.7,1.9-1,.6-.3,1.2-.6,1.8-.9.6-.3,1.2-.6,1.8-.9,2.7-1.3,5.4-2.4,8.2-3.5.5-.2,1.1-.4,1.6-.6.2,0,.3-.1.5-.2.9-.4,1.9-.7,2.9-1,0,0,0,0,0,0,.7-.3,1.5-.5,2.2-.7,1.8-.6,3.7-1.2,5.6-1.7,0,0,0,0,0,0,.6-.2,1.1-.3,1.7-.5.3,0,.6-.2,1-.3.5-.1,1-.3,1.6-.4.6-.1,1.1-.3,1.7-.4,1.1-.3,2.1-.5,3.2-.7.6-.1,1.3-.3,2-.4.6-.1,1.1-.2,1.7-.3.9-.2,1.9-.4,2.8-.5.3,0,.6-.1.9-.1.7-.1,1.4-.2,2.2-.3,1-.2,2.1-.3,3.1-.4.9-.1,1.7-.2,2.6-.3,3.4-.4,6.9-.7,10.3-.9.9,0,1.7-.1,2.6-.2.9,0,1.7,0,2.6-.1h0c1.4,0,2.8-.1,4.2-.1.2,0,.5,0,.7,0,1.2,0,2.3,0,3.5,0h0c.9,0,1.7,0,2.6,0,2,0,4.1,0,6.1,0,0,0,.2,0,.2,0h0c.6,0,1.3,0,1.9.1.5,0,1.1,0,1.6.2.4,0,.8.1,1.2.2.3,0,.6.1.9.2.9.2,1.7.4,2.5.6.2,0,.5.1.7.2,0,0,.1,0,.2,0,.3.1.7.2,1,.3.6.2,1.1.4,1.6.6.4.2.8.4,1.2.5,0,0,.1,0,.2.1.2.1.5.2.7.4.6.3,1.1.6,1.6,1,0,0,.2.1.2.2.5.3,1,.7,1.5,1.1.2.2.5.4.7.5,0,0,0,0,0,0,.2.2.4.4.6.5.2.2.5.4.7.6.3.3.6.6.9.9.3.3.5.6.8.9.3.3.5.6.7.9.2.3.5.6.7.9.2.3.4.6.6,1,.2.3.4.7.6,1,.2.3.3.6.5.8.4.8.7,1.5,1,2.3.3.7.6,1.4.8,2.2.2.7.4,1.5.6,2.2,0,.2.1.5.2.7.2.7.3,1.5.4,2.2.3,2.3.5,4.6.4,6.8,0,.3,0,.6,0,.9,0,.4,0,.8,0,1.1h0c0,.7-.2,1.3-.3,1.9,0,.4-.1.8-.2,1.1-.1.5-.2,1-.3,1.5-.2.7-.3,1.4-.5,2-.2.6-.4,1.2-.6,1.8,0,0,0,0,0,0-.2.6-.4,1.1-.7,1.6-.2.5-.4.9-.6,1.4,0,.2-.2.3-.2.5-.2.5-.5.9-.8,1.4-7.1,12.5-17.6,21.8-29.6,28.9-6.6,4-13.8,7.3-20.7,10.5-9.4,4.4-10.3,5.6-4.5,14.3,3.8,5.9,9.2,10.8,15.2,17.8-15.2,4.2-27-.2-37.5-9.2-.3-.3-.7-.6-1-.9-.4-.3-.7-.6-1-.8-.3-.2-.6-.5-.9-.6,0,0,0,0,0,0-.3-.2-.6-.4-.9-.5-.4-.2-.7-.4-1.1-.5,0,0,0,0,0,0-.2-.1-.5-.2-.8-.3,0,0-.1,0-.2,0-.3-.1-.6-.2-.9-.2-.4,0-.7-.2-1.1-.2h0c-.3,0-.6,0-.9-.1-.2,0-.4,0-.6,0-.3,0-.5,0-.8,0s-.7,0-1.1,0c-.2,0-.3,0-.5,0-.5,0-.9.1-1.4.2-10.1,1.4-21.1,2.3-30.8.2-25.8-5.8-34.3-23.5-25.3-48.6h0Z"/>
  <path class="cls-2" d="M429.8,326c-.4.2-8.7,0-14-4.4,3.3,13.2,1.6,26.1-3.3,38.9-.9,2.4.2,5.6,0,8.4-.2,4.5-.1,9.5,6.9,16.5-3.1,2.4-17.5-2.5-22.2-2.4-.7,0-1.2.4,0,1.4-2.6,5.6-19.9,13.8-27.4,11.8,4.4,6.4,8.9,12.7,14.1,20-13.2,4.5-26,2.1-40.9-5.1,3.5,4.9,5.4,7.8,8.4,12.2-11.1,1.6-18.3-3.7-25.6-10.6-17.8,11.8-37.5,18.6-58.4,22.3-57.5,5.2-81-5.4-89.2-8.2-16-5.4-30-14.5-40.9-27.2-4.2-5.1-7.8-6.6-13.9-3.7-2.6,1.2-6.1,1-11,1.7,2.8-4.7,4.7-7.8,7-11.5h-22.8c4.7-4.2,9.1-8.2,15.2-13.8-2.7-1-5.3-2.1-7.6-3.2-2,2.1-3.4,3.8-3.4,3.8-5.2,0-6-3.1-6-3.1-.2-1.4.5-3,1.8-4.8-13.5-8.4-20.3-20-20.5-36.8v-1.4c-.2-9.4,2.8-20.7,8.7-27.9,2.8-3.3,7.1-5.4,9.6-8.7,2.8-3.8,4.4-9.9,6.1-14.3-14.3,5.1-26,9.1-39.2,13.8.9-3.1,13.6-28.2,18.7-54.4,3.4-17.4,14.2-32,19.8-49.2-4.5-1-11.1-2.6-17.6-4.2.2-.5.2-1,.4-1.6,2.4-.6,4.8-1.2,7.3-1.8.8-.2,1.7-.4,2.5-.6,1.6-.4,3.2-.8,4.8-1.1.1,0,.2,0,.3,0l1.6-.3c.8-.2,1.6-.3,2.4-.4.9-.2,1.7-.3,2.6-.4,2.3-.4,5.2,1.7,7.7,3.1,13.2,6.6,26.5,9.2,41.3,2.1-6.1-6.6-11.5-12.5-16.5-18.6-4.7-5.4-4.7-8.9,3.1-11.8,21.1-8.2,40.6-19,53.3-39,0-.1.2-.3.3-.4.1-.1.2-.2.4-.4.5-.4,1.1-.8,1.7-1,.2-.1.5-.2.7-.3.3,0,.5-.2.8-.2h0c.5-.2,1-.3,1.5-.3,9.4-.5,18.8-1,28-1,9.1.2,18.1,1,27.9,1.6,7-2.9,1.8-11.6,1.8-20.3,7,5.2,15.7,3.5,24,35.1.7-.2,5.6-26.4,5.6-26.4,8.7,8.7,19.3,16.6,14.7,33.4,20-.9,36.9-7.8,52.1-20.2.7.9-13.6,19.7-21.1,28,36.1-2.9,57.1,17.4,88.5,27-9.8,2.3-17.4,4.2-26,6.4,32.8,19.4,27.9,42,41.6,62.7-2.4-.7-5.9-1.6-11.3-3-4.9,21.4-8.6,41-11.4,62.5-1,7.1,10.5,24.4,17.4,31.4h0Z"/>
  <path class="cls-2" d="M461.4,298.6c-11,1.6-15.6,5.5-19.2,15.9-.9,2.6-4.7,2.3-5.1-.5-1.6-11-5.5-15.6-15.9-19.2-2.6-.9-2.3-4.7.5-5.1,11-1.6,15.6-5.5,19.2-15.9.9-2.6,4.7-2.3,5.1.5,1.6,11,5.5,15.6,15.9,19.2,2.6.9,2.3,4.7-.5,5.1Z"/>
  <path class="cls-1" d="M412.4,294.6c2.8-21.4,6.5-41,11.4-62.5,5.4,1.4,8.9,2.3,11.3,3-13.8-20.7-8.8-43.3-41.6-62.7,8.5-2.3,16.2-4.2,26-6.4-31.4-9.6-52.4-29.9-88.5-27,7.5-8.4,21.8-27.2,21.1-28-15.2,12.4-32.1,19.3-52.1,20.2,4.5-16.7-6-24.7-14.7-33.4,0,0-4.9,26.2-5.6,26.4-8.3-31.6-17-29.9-24-35.1,0,8.7,5.2,17.4-1.8,20.3-9.8-.5-18.8-1.4-27.9-1.6-9.2,0-18.6.5-28,1-.5,0-1,.1-1.5.3h0c-.3,0-.5.2-.8.2-.2,0-.5.2-.7.3-.7.3-1.3.6-1.7,1-.1.1-.3.2-.4.4-.1.1-.2.3-.3.4-12.7,20-32.2,30.8-53.3,39-7.8,3-7.8,6.4-3.1,11.8,5.1,6.1,10.5,12,16.5,18.6-14.8,7.1-28,4.5-41.3-2.1-2.4-1.4-5.4-3.5-7.7-3.1-.9.1-1.7.3-2.6.4-.8.1-1.6.3-2.4.4l-1.6.3c-.1,0-.2,0-.3,0-1.6.3-3.2.7-4.8,1.1-.8.2-1.7.4-2.5.6-2.4.6-4.9,1.2-7.3,1.8-.2.5-.2,1-.4,1.6,6.4,1.6,13.1,3.1,17.6,4.2-5.6,17.3-16.4,31.8-19.8,49.2-5.2,26.2-17.8,51.3-18.7,54.4,13.2-4.7,24.9-8.7,39.2-13.8-1.7,4.4-3.3,10.5-6.1,14.3-2.4,3.3-6.8,5.4-9.6,8.7-5.9,7.1-8.9,18.5-8.7,27.9v1.4c.3,16.8,7.1,28.4,20.5,36.8,2.4,1.5,4.9,2.9,7.7,4.1,2.4,1.1,4.9,2.2,7.6,3.2-6.1,5.6-10.5,9.6-15.2,13.8h22.8c-2.3,3.7-4.2,6.8-7,11.5,4.9-.7,8.4-.5,11-1.7,6.1-3,9.8-1.4,13.9,3.7,11,12.7,24.9,21.8,40.9,27.2,8.2,2.8,31.7,13.4,89.2,8.2,20.9-3.7,40.6-10.5,58.4-22.3,7.3,7,14.5,12.2,25.6,10.6-3-4.4-4.9-7.3-8.4-12.2,15,7.1,27.7,9.6,40.9,5.1-5.2-7.3-9.8-13.6-14.1-20,7.5,1.9,24.7-6.3,27.4-11.8-1.2-1-.7-1.4,0-1.4,4.7-.2,19.1,4.8,22.2,2.4-7-7-7-11.9-6.9-16.5.2-2.8-.9-5.9,0-8.4,4.9-12.7,6.6-25.6,3.3-38.9,5.3,4.4,13.7,4.6,14,4.4-7-7-18.5-24.2-17.4-31.4h0ZM325.5,286.7c14.3,17.4,8.3,41-12.5,48.9-.2,0-.4.2-.6.2-5.4,2.1-28.2,2.3-33.4.7-11.8-3.7-20.2-11-22.5-23.4h0c0,0,0-.1,0-.1,0-.2,0-.5-.1-.7-1.7-9.9,1.3-17.8,7.1-24.4,0,0,0,0,0,0,2.1-2.3,4.5-4.4,7.1-6.4,7.6-5.7,17-8.2,26.2-7.9h0c11.1.4,21.8,4.9,28.7,13.2h0ZM315.1,271.7c-23-7.3-42.3-2.4-59.6,17.1-2.3-5.8-4.4-9.8-5.6-13.9-2.8-8.7,0-13.6,8.9-13.1,16.5.9,32.9,3.1,49.3,5.1,2.6.4,4.9,2.6,7,4.9ZM256.4,224.7c3.1-5.2,7.8-4.7,15.2-1.9,9.4,3.8,14.5,9.2,19,16.7,3.1,4.9,6.6,9.8,9.8,14.5.9,1.4,1.6,2.6,2.6,4.4-17.6-1.6-34.7-2.8-51.6-4.7-1.7-.2-4.9-3.3-4.5-4.4,2.8-8.4,5.1-17.3,9.6-24.6h0ZM240.5,281.5c8.5,5.1,11.7,12,9.6,20.6-3.1,13.1,1.9,24,12.7,33.1,11.9,10,39.8,10,56.4,4,20.7-7.5,24.7-29.8,12.9-50.5,2.8.5,4.4,1,7.5,1.7-3.5-6.6-6.4-12-9.6-17.8,1.6-.4,2.6-.7,2.6-.5,12.4,16.9,21.4,34.7,17.8,56.4-1.4,8.2-5.8,13.9-13.9,15.5-27.2,5.8-54.2,3.5-80.8-3.7-9.6-2.6-15.3-10.1-17.1-20.6-1.9-12.9-2.1-25.6,1.9-38.3ZM231.8,283.4c-.7,1-3,2.3-3.7,1.9-1.4-.5-3-2.3-3.3-3.8-.7-3.5-.5-7-1-10.6-.5-3.3-1.4-6.6-2.1-10.3,9.9,3,15,15,10.1,22.8ZM166.6,298c0,0,.1-.2.2-.2,0,0,.2-.2.3-.2.2-.2.3-.4.5-.6.5-.4,1-.8,1.5-1.1.2-.2.5-.3.7-.4.6-.3,1.1-.5,1.7-.7,1.3-.4,2.4-.3,3.7,0,1.1.2,2.4,1,3.2,1.8,1,1,1.7,2.3,2,3.6.2.7.3,1.4.4,2.1,0,.3,0,.6,0,.8,0,1.1-.3,2.3-.9,3.3-.6.9-1.3,1.7-2.3,2.2-1.1.5-2,.8-3.2.8-.8,0-1.6,0-2.4-.3-.8-.2-1.5-.5-2.3-.8-.4-.2-.8-.4-1.2-.7-.6-.4-1.3-.9-1.8-1.5-.7-.9-1.3-1.6-1.5-2.7-.3-.9-.3-2.1,0-3.1.4-1,.6-1.4,1.3-2.2h0ZM151.1,271.4c7.5-3.5,10.5.4,14.1,6.3-5.9,3.5-11.5,6.8-17.8,10.6-2.1-7-5.4-12.7,3.7-16.9h0ZM133.9,288.6c6.8,2.3,11.1,4.7,9.9,14.1-1.7,13.6,10.6,24.6,25.4,24.6s24.7-12.7,24.6-26.5c-.2-3.7.5-7.3.9-13.1-.9-.7-3.5-1.9-4.9-3.8-1.2-1.9-1.2-4.7-1.7-7.1,2.8-.2,6.4-1.4,8,0,13.9,10.6,14,31.1,2,44-17.6,19.2-55.1,14-66.3-10.2,2.6.2,4.7.2,7.8.5-7.1-8.2-9-15.7-5.8-22.5h0ZM121.9,301.8c9.8,31.9,40.7,44.3,69.2,31.1,21.3-9.9,28.2-31.4,15.3-51-2.6-4-6.1-7.5-9.1-11.3.2-.5,0-1.4.5-1.7,3.8-3,8-5.8,12-8.7,2.1,4.5,5.1,8.9,6.1,13.8,3.8,17.1,1.6,34.1-3.5,50.7-2.8,9.2-9.8,14.3-18.8,14.6-15.2.5-30.5,1-45.5-.5-21.8-2.4-28.2-12.2-26.3-36.9ZM398.4,373c-5.9-3.5-4.3-6.2-3.9-12.5.2-3.5-.9-8.4-3.3-10.3-2.8-2.1-7.5-1.9-11.5-1.9-1.9-.2-3.8,1.2-5.8,2.1,4.7-8.5,9.6-17.1,14.3-25.6-10.1,6.3-16,15.3-18.8,26.1-4,15.2,4.5,23.7,19.7,20,5.8,7.2.9,11.1-11.8,13.9-1.6-3.3-3.4-8.6-5-11.9-1-.2-5.9,1.7-7,1.7,1.7,5.2,4.9,8.5,3.5,13.9-3.5-.4-11-1-15.8-1.3.7-4.2,1.4-7.1,1.9-10.1-3.7,1.9-5.2,4.7-7.5,7-9.6,9.1-18.1,20-29.3,26.7-46.5,27.2-95.6,27.4-145.3,8.9-27.2-10.1-44.3-30-48.1-59.8-.2-2.3-1.6-4.5-2.4-6.8-.7.2-1.4.4-2.1.7v12.2c-4.5,0-8.6-.5-12.2-1.3-3.4-.7-6.4-1.8-9.1-3.2-9.5-4.7-15.2-13.3-18.9-25.1-1.6-5.1-2.4-10.4-2.2-15.7,0-1.6.3-3.2.9-4.8h0c1.3-3.3,3.1-6.5,5.2-9.3,0,0,0,0,0,0,3-4.1,6.7-7.4,11-9.6,13.6,2.3,17.8,6.3,21.3,21.4.4,1.7.8,3.3,1.4,4.9,1.1,3.2,2.5,6,4.3,8.6,4.5,6.4,11.3,10.5,20.5,11.6,14.5,1.6,29.1,3.1,43.6,2.6,23.5-1,33.1-10.3,38.3-33.6.7-2.4,1.4-4.9,2.3-7.3.7,0,1.6.2,2.4.2.4,4.4.5,8.7,1,13.1,1.6,12.4,5.4,23.2,18.8,26.8,28.4,7.8,57.3,10.8,86.8,5.8,9.6-1.6,17.4-6.3,20.9-16.7,1.9,2.8,3.3,5.1,4.9,7.1,2.1-3.8,2.3-7.5,2.6-11.1,1.4-12.2,11.8-22,23.5-22.1,8.7-.2,22.7,11.7,24,20.7,2.1,15.3-2.2,32.3-13.2,44h0ZM373.8,350.8c2.3.5,4.5,1,6.6,1.7,2.6.9,5.2,1.9,7.8,2.8-1.4,2.3-2.6,6.1-4.5,6.6-2.8.7-7.1-.2-9.1-2.1-1.6-1.7-.7-5.9-.9-9.1h0Z"/>
  <path class="cls-1" d="M163,360.6c2.1,12.4,6.1,25.3,20.4,32.1,27.5,13.2,56.1,15.3,84.8,4.9,12.2-4.5,19.9-13.9,23.5-26.3-42.9-8.5-85.4-13.9-128.8-10.6ZM169.3,365.4c38.7-2.8,75.4,2.1,113.1,10.1-14.1,6.6-103.3-1-113.1-10.1Z"/>
  <path class="cls-1" d="M190.5,87.1c-.1-.8-.2-1.5-.4-2.2,0-.2-.1-.5-.2-.7-.2-.7-.4-1.5-.6-2.2-.2-.8-.5-1.5-.8-2.2-.3-.8-.7-1.5-1-2.3-.2-.3-.3-.6-.5-.8-.2-.4-.4-.7-.6-1s-.4-.7-.6-1c-.2-.3-.4-.6-.7-.9-.2-.3-.5-.6-.7-.9-.2-.3-.5-.6-.8-.9-.3-.3-.6-.6-.9-.9-.2-.2-.4-.4-.7-.6-.2-.2-.4-.4-.6-.5,0,0,0,0,0,0-.2-.2-.4-.4-.7-.5-.5-.4-1-.7-1.5-1.1,0,0-.2-.1-.2-.2-.5-.4-1.1-.7-1.6-1-.2-.1-.5-.2-.7-.4,0,0-.1,0-.2-.1-.4-.2-.8-.4-1.2-.5-.5-.2-1-.5-1.6-.6-.3-.1-.7-.2-1-.3,0,0-.1,0-.2,0-.2,0-.5-.2-.7-.2-.8-.2-1.6-.4-2.5-.6-.3,0-.6-.1-.9-.2-.4,0-.8-.1-1.2-.2-.5,0-1-.1-1.6-.2-.6,0-1.2,0-1.9-.1h0c0,0-.2,0-.2,0-2,0-4.1,0-6.1,0s-1.7,0-2.6,0h0c-1.2,0-2.3,0-3.5,0-.2,0-.5,0-.7,0-1.4,0-2.8,0-4.2.1h0c-.9,0-1.7,0-2.6.1-.9,0-1.7.1-2.6.2-3.5.2-6.9.5-10.3.9-.9,0-1.7.2-2.6.3-1,.1-2.1.3-3.1.4-.7.1-1.4.2-2.2.3-.3,0-.6,0-.9.1-.9.2-1.9.3-2.8.5-.6.1-1.1.2-1.7.3-.7.1-1.3.2-2,.4-1.1.2-2.2.5-3.2.7-.6.1-1.1.3-1.7.4-.5.1-1,.3-1.6.4-.3,0-.6.2-1,.3-.6.1-1.1.3-1.7.5,0,0,0,0,0,0-1.9.5-3.8,1.1-5.6,1.7-.8.2-1.5.5-2.2.7,0,0,0,0,0,0-1,.3-1.9.7-2.9,1-.2,0-.3.1-.5.2-.6.2-1.1.4-1.6.6-2.8,1.1-5.5,2.2-8.2,3.5-.6.3-1.2.6-1.8.9-.6.3-1.2.6-1.8.9-.6.3-1.3.6-1.9,1-.7.4-1.5.8-2.2,1.2-.5.3-1,.5-1.5.8-.4.2-.8.4-1.1.7-.7.4-1.3.8-2,1.2-1.7,1-3.4,2.2-5.1,3.3-11.8,8.2-23.2,17.6-28.2,31.5-9.1,25.1-.5,42.9,25.3,48.6,9.8,2.1,20.7,1.2,30.8-.2.5,0,1-.1,1.4-.2.2,0,.4,0,.5,0,.4,0,.8,0,1.1,0s.5,0,.8,0c.2,0,.4,0,.6,0,.3,0,.6,0,.9.1h0c.4,0,.7.1,1.1.2.3,0,.6.1.9.2,0,0,.1,0,.2,0,.2,0,.5.2.8.3,0,0,0,0,0,0,.4.2.7.3,1.1.5.3.2.6.3.9.5,0,0,0,0,0,0,.3.2.6.4.9.6.3.2.7.5,1,.8.3.3.7.6,1,.9,10.5,9.1,22.3,13.4,37.5,9.2-5.9-7-11.3-11.8-15.2-17.8-5.8-8.7-4.9-9.9,4.5-14.3,7-3.1,14.1-6.4,20.7-10.5,12-7.1,22.5-16.4,29.6-28.9.3-.5.5-.9.8-1.4,0-.2.2-.3.2-.5.2-.4.4-.9.6-1.4.2-.5.5-1.1.7-1.6,0,0,0,0,0,0,.2-.6.4-1.2.6-1.8.2-.7.4-1.3.5-2,.1-.5.2-1,.3-1.5,0-.4.1-.7.2-1.1.1-.6.2-1.3.3-1.9h0c0-.4,0-.8,0-1.1,0-.3,0-.6,0-.9.1-2.3,0-4.6-.4-6.8h0ZM183.2,103.1c-5.4,9.8-14.1,18.5-23,25.6-8.5,6.6-19.2,10.8-29.1,15.7-9.2,4.4-10.8,6.8-6.3,16.4,0,0,0,.2.1.2.8,2.2,2.1,4.1,3.1,5.4,2,3.2,4.4,6.5,6.8,10.2h-.2c-4.4,0-8.9-.9-14.1-3.1-4.3-1.9-8.1-4.5-11.4-8.2-3.7-4.2-6.8-4.4-11.8-3.3-13.4,3-27,4.2-39.9-2.4-12.5-6.4-17.2-14.7-15.7-27.6h0c.1-1.2.3-2.4.5-3.6.8-4.3,2.2-8.1,4.1-11.7,3.1-5.8,7.5-10.8,12.4-15.3,21.7-19.8,46.7-29.2,73.5-31.9,3.3-.3,6.6-.6,9.9-.7.6,0,1.3,0,2,0,2.7,0,5.3-.1,8,0,2.3,0,4.6,0,6.9.2h0c2.8.1,5.6.3,8.4.5.5,0,1,.1,1.5.2,14.5,2.2,22.1,19.1,14.2,33.6h0Z"/>
  <path class="cls-1" d="M114.1,336c-.1-.3-.2-.6-.3-.9-1.1-2.8-2.4-5.3-3.9-7.6h0c-3.7-5.7-8.9-10.1-15.6-12.8-1.3-.5-2.9-.5-4.4-.4,0,0-.2-.1-.3,0-.6,0-1.1,0-1.7,0-.1.7-.2,1.4-.3,2.1.2.1.4.2.7.3,1.4.6,2.7,1.3,4.1,1.9,8.3,3.2,14.5,8.5,16.8,17.4.4,1.6-1.3,3.8-2,5.8-1.8-1.4-4.6-2.5-5.2-4.3-.9-2.8-.2-6-.2-9-.9-.1-1.8-.2-2.7-.3-.3,4.3-1.7,8.9-.6,12.7,1.4,5.1,4.5,11.3,11.5,8.5,6-2.4,6-7.8,4.1-13.2,0,0,0,0,0,0h0Z"/>
  <path class="cls-1" d="M296.5,282.2c-1.3-.2-2.5-.2-3.9-.2-9.2.1-17.1,4.4-22,11.1,0,0,0,0,0,0-3.4,4.6-5.4,10.5-5.5,16.9,0,.6,0,1.3,0,1.9,0,0,0,0,0,0,1,11.8,13,21.4,27.3,21.2,6.4,0,12.1-2,16.7-5.5,6.4-4.8,10.5-12.5,10.6-21.4,0-12.6-9.9-22.5-23.3-24.2ZM297.6,311.9c-.5.6-1.1,1-1.8,1.4-.4.2-.7.4-1.1.5-.4.2-.7.3-1.1.4-.8.2-1.7.3-2.5.3-.9,0-1.9-.1-2.8-.5-1.1-.4-2.1-.9-3-1.7-.8-.8-1.3-1.7-1.7-2.8-.5-1.4-.5-3.2,0-4.6.6-1.5,1.4-3,2.7-4,.5-.4.9-.8,1.4-1,.5-.3,1-.5,1.6-.7.3-.1.6-.2,1-.3,0,0,.2,0,.3-.1.9-.3,1.8-.4,2.7-.4,1.2,0,2.2.3,3.3.8,1.6.8,2.8,2.5,3.2,4.2.8,3-.2,6.1-2.2,8.4h0Z"/>
  <path class="cls-1" d="M160.3,72c0,0-.2,0-.3-.1v.3c.1,0,.2-.2.3-.2h0Z"/>
  <path class="cls-1" d="M75.5,216.4c-8,2-11.2,5.1-13.2,13.2-.5,2-3.3,2-3.8,0-2-8-5.1-11.2-13.2-13.2-2-.5-2-3.3,0-3.8,8-2,11.2-5.1,13.2-13.2.5-2,3.3-2,3.8,0,2,8,5.1,11.2,13.2,13.2,2,.5,2,3.3,0,3.8Z"/>
  <path class="cls-1" d="M461.4,298.6c-11,1.6-15.6,5.5-19.2,15.9-.9,2.6-4.7,2.3-5.1-.5-1.6-11-5.5-15.6-15.9-19.2-2.6-.9-2.3-4.7.5-5.1,11-1.6,15.6-5.5,19.2-15.9.9-2.6,4.7-2.3,5.1.5,1.6,11,5.5,15.6,15.9,19.2,2.6.9,2.3,4.7-.5,5.1Z"/>
  <path class="cls-1" d="M114.1,359.6c-.9.2-3.4,2.6-6,5.3-1.4,1.5-2.9,3-4.2,4.4-2,2.1-3.4,3.8-3.4,3.8-5.2,0-6-3.1-6-3.1-.2-1.4.5-3,1.8-4.8.8-1.1,1.8-2.3,2.8-3.4,3.1-3.3,6.7-6.1,6.7-6.1,0,0,10.5,3.5,8.4,4h0Z"/>
  <path class="cls-1" d="M75.3,119.2l-3.6,1.9,10.2,22-9.9,4.5-8.5-22.2-5.8,3-2.8-6.6,17.2-8.9,3.1,6.3h0Z"/>
  <path class="cls-1" d="M75.9,112.4l8.4-3.2,3.1,6.1,4.5-10.3c2,.8,3.4,1.4,4.4,1.9,3,1.3,4.5,2,4.4,2.1l-5.6,12.5,13.2,3.1c-.4,1.2-.9,2.7-1.5,4.5-1,3-1.4,4.4-1.3,4.4l-9.4-1.9,2.1,4.2-9.9,4.5-12.5-27.7h0Z"/>
  <path class="cls-1" d="M106,113l-.5-.6c-.5-.8-1-1.6-1.3-2.5-1.1-2.9-.7-5.5,1-8,1.3-2,3.6-3.8,6.8-5.5,1.5-.8,3-1.5,4.5-2l3.8,9.7c.2-.2-.1-.4-1-.4-.9,0-1.8,0-2.8.3-2.9.7-3.8,1.9-2.9,3.7.1.6.8.9,2,1h4c4,.3,6.5,1.6,7.6,3.8.4.8.6,1.7.8,2.6.3,2,0,3.8-.9,5.3-1.8,3.2-4.9,5.5-9.3,6.9-1.5.5-2.9.8-4.2.9-1.2.1-1.7,0-1.6-.1l-2.3-6.3c.8-.1,1.7-.4,2.5-.7,1.8-.6,3.2-1.5,3.9-2.6.5-.7.4-1.3-.2-1.5-.3-.1-1.2-.3-2.7-.5-3.4-.5-5.7-1.6-6.9-3.3,0,0,0,0-.2-.1h0Z"/>
  <path class="cls-1" d="M147.1,99.3l-8.2,3.9-7.8-17,8.4-5,7.6,18.1ZM148.1,113.2c1.2-.5,2-1.6,2.5-3.3.4-1.6.4-3-.2-4.3-.5-1.2-1.4-1.9-2.7-2.1-1.1-.2-2.4,0-3.7.7-1.2.5-1.9,1.5-2.2,3-.3,1.4,0,2.7.5,4.1,1.1,2.5,3.1,3.1,5.8,1.9Z"/>
  <path class="cls-1" d="M160.7,93.1l-8.2,3.9-7.8-17,8.4-5,7.6,18.1ZM161.6,107.1c1.2-.5,2-1.6,2.5-3.3.4-1.6.4-3-.2-4.3-.5-1.2-1.4-1.9-2.7-2.1-1.1-.2-2.4,0-3.7.7-1.2.5-1.9,1.5-2.2,3-.3,1.4,0,2.7.5,4.1,1.1,2.5,3.1,3.1,5.8,1.9Z"/>
</svg>