<svg width="300" height="300" viewBox="0 0 300 300" fill="none" xmlns="http://www.w3.org/2000/svg">
<path d="M122.653 249.303C104.839 245.566 96.4741 240.394 92.4558 237.908C92.1113 237.694 91.8077 237.505 91.5374 237.347C82.9316 232.284 76.1978 225.442 71.5398 217.02L71.4866 216.923C71.3224 216.609 71.1863 216.381 71.0812 216.224C71.0105 216.24 70.9303 216.257 70.8401 216.278L70.7593 216.298C68.867 216.741 67.1227 216.537 65.4376 216.343C64.7823 216.267 64.1029 216.189 63.3773 216.141L52.1338 215.41L58.0612 208.941L41.8422 205.539L53.6413 198.784C52.7325 197.564 52.2606 196.19 52.1962 194.904L52.1838 194.656L52.1955 194.41C52.2137 193.973 52.2708 193.54 52.3689 193.116C47.1494 186.654 45.4446 179.161 47.1525 170.332L47.3096 169.583C48.1842 165.034 50.6028 159.043 54.8547 154.745C53.1775 154.967 51.4873 155.192 49.7335 155.428L39.4363 156.82L44.214 147.59C44.5591 146.924 45.0761 146.199 46.2042 144.605C49.1968 140.393 55.4229 131.624 59.4505 122.126C61.7917 116.606 65.2927 112.074 68.6763 107.693C69.7913 106.25 70.8765 104.847 71.9023 103.434C70.9071 102.962 69.906 102.488 68.9478 102.03L63.6567 99.5037L66.472 94.6749C66.5691 94.4316 66.7242 94.0718 66.9593 93.6675L68.462 91.0921L71.4407 90.9936C72.0151 90.9731 72.5925 90.9532 73.167 90.9327C73.8897 90.9065 74.6125 90.8804 75.3376 90.8577C75.8014 90.8386 76.2693 90.8294 76.74 90.8209C77.6746 90.7932 78.5697 90.7786 79.3975 90.7776C79.487 90.7749 79.5947 90.7729 79.7164 90.777L80.5353 90.7894C80.9819 90.7942 81.4266 90.8078 81.8712 90.8214C82.4165 90.8377 82.9293 90.8625 83.4286 90.8936C83.7738 90.9139 84.1193 90.9619 84.4628 91.034C86.844 91.5335 88.5444 93.101 89.7881 94.2447C89.9088 94.3558 90.0296 94.467 90.148 94.5746C93.0765 96.8779 95.6844 98.2986 98.2726 98.9948C97.6146 97.8207 96.9719 96.6467 96.3534 95.4748C95.6202 94.1623 93.5721 90.3945 95.4085 86.6232C97.2863 82.7717 101.651 82.0719 103.118 81.8432C112.606 80.2748 123.403 77.5372 131.56 69.1664L131.661 69.0621L131.767 68.9648C131.928 68.8116 132.162 68.6031 132.472 68.383C132.704 68.214 132.948 68.0568 133.205 67.9145L133.264 67.8809C133.977 67.4911 134.787 67.198 135.667 67.0027C136.005 66.9264 136.299 66.8839 136.492 66.8569L136.611 66.8421C136.806 66.8186 137.061 66.7892 137.365 66.7733L138.072 66.7346L138.151 66.7512C138.503 66.7545 138.85 66.7813 139.184 66.8239L139.285 66.8389C144.15 67.5806 149.173 68.3462 154.038 69.3667L154.141 69.3883C157.211 70.0967 160.149 70.9244 163.257 71.8003C163.63 71.9061 164.006 72.0126 164.383 72.1162C164.41 70.6749 164.465 68.9333 164.84 67.1481L167.057 56.5782L174.183 64.694C174.482 65.0357 174.93 65.4118 175.449 65.8456C177.251 67.3546 178.931 68.9731 180.325 71.4756L183.27 64.378L188.862 72.9383C189.196 73.4498 189.54 73.9602 189.883 74.4706C192.366 78.1519 195.796 83.2364 195.257 89.7658C201.878 89.8703 208.263 88.2916 214.628 84.9952L219.47 82.4889L221.929 87.3543C222.433 88.3522 223.338 90.9789 220.878 93.8377C220.537 94.2352 220.083 94.7069 219.494 95.2792C218.542 96.2046 217.205 97.42 215.636 98.7921C215.457 98.9475 215.28 99.1035 215.097 99.2583C223.051 102.254 229.219 106.944 235.228 111.512C239.315 114.62 243.54 117.832 248.293 120.451L265.91 130.152L245.804 130.581C244.846 130.601 243.919 130.624 243.009 130.648C247.359 137.501 248.213 143.878 248.993 149.703C249.485 153.377 249.949 156.846 251.3 160.241L256.723 173.845L243.767 167.017C243.656 166.96 243.543 166.899 243.421 166.837C239.407 175.847 236.255 183.741 233.409 191.874C233.243 193.994 235.748 201.236 238.331 205.186L242.429 211.459L235.182 213.362C234.046 213.661 233.096 213.529 232.397 213.382C232.291 213.36 232.048 213.309 231.697 213.211C230.707 217.638 228.843 221.995 226.077 226.368C226.052 226.547 226.03 226.784 226.008 226.976C225.936 227.687 225.843 228.566 225.588 229.518C225.209 231.035 225.016 231.896 226.629 234.362L229.975 239.484L224.479 242.169C223.011 242.885 221.346 243.035 219.385 242.624C217.423 242.212 215.143 241.216 212.986 240.261C212.832 240.192 212.666 240.12 212.495 240.044C210.156 241.524 206.997 242.6 203.851 243.157C204.158 243.859 205.61 247.161 205.61 247.161L208.524 253.802L201.328 254.689C198.256 255.069 195.32 254.95 192.355 254.327C191.879 254.228 191.403 254.116 190.93 253.989L191.533 255.455L182.876 254.874C181.93 254.81 181.003 254.683 180.119 254.498C175.316 253.49 172.023 250.862 169.389 247.753C160.114 250.881 150.082 252.222 138.853 251.843L138.631 251.837L138.409 251.811C132.826 251.161 127.526 250.313 122.652 249.291L122.653 249.303Z" fill="#EFFF3D"/>
<path d="M97.6423 108.414C91.5763 107.141 86.5164 103.747 82.1783 98.037L82.1063 97.9422L82.0377 97.8451C81.9553 97.7266 81.9187 97.6822 81.9163 97.6786L81.8529 97.6009L81.7925 97.5239C81.7006 97.4065 81.6372 97.3288 81.6022 97.2909L81.4654 97.1395L81.2653 96.9535L81.2239 96.9172L80.9979 96.7963L80.9129 96.7631L80.8466 96.7431L80.785 96.7301L80.6488 96.6924C80.6312 96.6887 80.5549 96.6727 80.5343 96.6683C80.5343 96.6683 80.5049 96.6622 80.4479 96.6564L80.2058 96.627L80.0972 96.6042C79.989 96.5938 79.8761 96.5916 79.7614 96.5828L79.7161 96.5795C75.7343 96.3021 72.5615 95.894 69.7076 95.2953C66.8419 94.6942 64.3481 93.9135 62.0823 92.9079L62.0401 92.8899C52.6977 88.6495 49.2014 82.7111 47.9096 78.4798C46.5756 74.0986 46.1976 66.914 51.9726 57.5624C56.9145 49.581 65.0176 45.3801 72.2927 42.3206L72.33 42.3038C73.4705 41.835 74.5145 41.4318 75.5217 41.0729C75.8901 40.9387 76.3045 40.7896 76.7613 40.6432C76.9933 40.5601 77.2306 40.4811 77.4607 40.4068C77.77 40.3062 78.0692 40.2095 78.363 40.124C78.7997 39.9857 79.2387 39.851 79.6753 39.728C80.1373 39.5858 80.5791 39.467 80.884 39.3869C81.258 39.2845 81.6243 39.1897 81.9964 39.0961C82.3686 39.0025 82.7525 38.9114 83.1257 38.8272C84.7868 38.4339 86.4445 38.1011 88.0526 37.8438C88.3513 37.7931 88.6684 37.7431 88.9948 37.692C88.9948 37.692 89.2576 37.6521 89.3271 37.6422C89.792 37.5742 90.2462 37.5131 90.6579 37.4646L91.5361 37.2381L91.9266 37.32C91.9455 37.3178 92.3189 37.2766 92.3189 37.2766C93.2041 37.1773 94.141 37.0948 95.1012 37.0327L95.8214 36.8435L96.3646 36.9574C96.4729 36.9526 96.5718 36.9488 96.6707 36.945L97.1516 36.9172C97.3064 36.9098 97.4736 36.9019 97.6402 36.897C97.7544 36.8934 97.8685 36.8898 97.9804 36.8826L98.1011 36.8772L98.224 36.8754C98.3529 36.8749 98.4824 36.8714 98.6148 36.8685C98.7625 36.8658 98.9131 36.8637 99.0579 36.8603C99.6877 36.8392 100.291 36.8401 100.904 36.8429C101.266 36.8422 101.629 36.848 101.999 36.855C102.327 36.8533 102.656 36.8611 102.995 36.8708C103.507 36.8832 104.041 36.8971 104.57 36.9162L104.63 36.9197C104.773 36.9251 104.956 36.9327 105.17 36.95C105.504 36.9649 105.843 36.984 106.176 37.0048L106.288 37.0129C106.863 37.0448 107.433 37.0783 108.019 37.1309C108.503 37.1619 108.991 37.2059 109.474 37.2552C111.39 37.4302 113.286 37.6534 115.112 37.9229L116.453 38.1214C116.943 38.1937 117.42 38.2723 117.905 38.3557L117.932 38.3612C118.673 38.48 119.406 38.6122 120.064 38.7349C120.266 38.765 120.436 38.8007 120.571 38.829C121.182 38.9389 121.798 39.0588 122.403 39.1857C122.86 39.2724 123.315 39.3679 123.767 39.4627C124.833 39.6863 125.892 39.9269 126.922 40.1613C127.016 40.181 127.16 40.2112 127.341 40.2676C127.679 40.3508 128.012 40.4422 128.339 40.5382C128.709 40.6435 129.071 40.7592 129.422 40.882C129.645 40.9594 129.916 41.0561 130.207 41.1723C130.366 41.2333 130.7 41.3676 130.7 41.3676C131.228 41.5826 131.733 41.8174 132.237 42.0763C132.496 42.1982 132.746 42.3364 132.988 42.4823C133.016 42.4972 133.04 42.5145 133.067 42.5295C133.218 42.6162 133.368 42.7029 133.515 42.792C133.914 43.0228 134.303 43.276 134.692 43.5662C134.909 43.7188 135.156 43.8965 135.419 44.1049C135.461 44.1382 135.503 44.1715 135.539 44.2037C135.695 44.3251 135.847 44.449 135.984 44.5697C136.346 44.8755 136.672 45.1739 136.979 45.4804C136.999 45.5 137.116 45.6164 137.116 45.6164C137.432 45.9342 137.747 46.276 138.057 46.6414C138.175 46.7796 138.31 46.9397 138.434 47.0944C138.456 47.1205 138.603 47.3078 138.603 47.3078L138.643 47.3682C138.715 47.463 138.796 47.5721 138.882 47.6911C139.008 47.8618 139.134 48.0353 139.25 48.2129C139.467 48.5251 139.653 48.8216 139.824 49.118L139.842 49.1493C139.963 49.3617 140.079 49.5669 140.187 49.7703C140.327 50.0235 140.458 50.2871 140.589 50.569C140.734 50.8569 140.846 51.1257 140.944 51.3637C141.071 51.6603 141.17 51.923 141.25 52.1391C141.35 52.4083 141.446 52.6923 141.541 53.0032L141.715 53.5579L141.743 53.6617C141.893 54.2145 142.022 54.784 142.124 55.351C142.237 55.9081 142.319 56.4802 142.372 57.092C142.423 57.6514 142.456 58.1518 142.468 58.6203L142.469 58.6603C142.472 58.8051 142.476 58.9499 142.477 59.1064C142.479 59.6954 142.464 60.1889 142.432 60.6634C142.336 62.2034 142.095 63.7315 141.716 65.2001L141.705 65.2529C141.66 65.409 141.605 65.615 141.534 65.8485C141.498 65.9759 141.461 66.1091 141.422 66.2358L141.411 66.2887L141.314 66.5902C141.185 66.9891 141.045 67.3767 140.903 67.7454C140.795 68.0415 140.69 68.2953 140.611 68.484L140.593 68.5233C140.479 68.7905 140.342 69.1081 140.183 69.4426C139.959 69.9259 139.75 70.3358 139.533 70.7256C139.493 70.8029 139.449 70.8796 139.409 70.9539L139.385 71.0655L138.859 71.8931C138.658 72.2095 138.444 72.5264 138.226 72.8392C137.991 73.1823 137.765 73.4844 137.613 73.6824L137.543 73.7718C137.463 73.8746 137.384 73.9745 137.301 74.0737C137.067 74.3586 136.86 74.6003 136.651 74.8354C131.43 80.729 124.72 85.023 116.134 87.9608C112.065 89.3877 107.899 90.3529 103.972 91.2181C104.663 92.8897 105.699 94.6274 106.885 96.6173C107.65 97.8965 108.513 99.3467 109.38 100.942L113.423 108.38L104.972 108.909C102.409 109.071 99.9394 108.905 97.6316 108.421L97.6423 108.414Z" fill="#EFFF3D"/>
<path d="M53.9764 125.251C51.0638 124.64 48.9692 122.131 48.8777 119.148C48.8002 116.872 48.6935 116.709 46.6218 115.713C43.946 114.441 42.4908 111.515 43.1018 108.602C43.7128 105.69 46.2212 103.595 49.2046 103.504C51.4799 103.426 51.6433 103.319 52.6389 101.248C53.9107 98.5748 56.8374 97.1166 59.7501 97.7276C62.6627 98.3386 64.7573 100.847 64.8464 103.827C64.9233 106.105 65.0306 106.266 67.1024 107.261C69.7781 108.534 71.2334 111.46 70.6224 114.372C70.0114 117.285 67.5029 119.38 64.5196 119.471C62.2442 119.549 62.0808 119.655 61.0853 121.727C59.8128 124.403 56.8867 125.858 53.9741 125.247L53.9764 125.251Z" fill="#EFFF3D"/>
<path d="M238.834 209.555C235.516 208.859 233.256 205.896 233.468 202.507C233.687 198.746 233.233 197.885 229.987 195.941C227.297 194.325 226.065 191.112 226.992 188.125C227.919 185.137 230.749 183.187 233.876 183.377C237.637 183.596 238.499 183.142 240.446 179.896C241.934 177.416 244.824 176.15 247.64 176.74C250.958 177.436 253.217 180.399 253.01 183.786C252.791 187.547 253.245 188.409 256.49 190.355C259.18 191.971 260.412 195.184 259.485 198.172C258.558 201.159 255.727 203.109 252.601 202.919C248.839 202.701 247.978 203.154 246.031 206.4C244.542 208.88 241.653 210.147 238.837 209.556L238.834 209.555Z" fill="#EFFF3D"/>
<path d="M54.2758 118.987C54.1286 114.677 52.8485 112.713 48.9603 110.849C47.9792 110.383 48.2822 108.938 49.3681 108.906C53.6781 108.758 55.6418 107.478 57.5057 103.59C57.9721 102.609 59.4167 102.912 59.4494 103.998C59.5967 108.308 60.8774 110.269 64.7649 112.135C65.7461 112.602 65.4431 114.046 64.3572 114.079C60.0472 114.226 58.0864 115.507 56.2195 119.395C55.7532 120.376 54.3086 120.073 54.2758 118.987Z" fill="#EFFF3D"/>
<path d="M56.5665 60.4021C60.6457 53.8153 67.4481 50.2183 74.3865 47.3027C75.3729 46.8965 76.368 46.5075 77.3521 46.1561C77.7241 46.0196 78.099 45.8836 78.4754 45.7695C78.6873 45.6944 78.9087 45.6182 79.1158 45.5513C79.3956 45.4598 79.6747 45.3712 79.9526 45.2885C80.3705 45.1524 80.7894 45.0257 81.2029 44.9102C81.5605 44.7982 81.9274 44.7004 82.2813 44.6061C82.6264 44.5099 82.9603 44.4236 83.3065 44.3368C83.6497 44.2494 84.0012 44.1668 84.3455 44.0889C85.8622 43.7265 87.3789 43.4225 88.9081 43.1761C89.2062 43.1283 89.505 43.0776 89.812 43.0316C89.8968 43.0219 89.9864 43.0039 90.0712 42.9941C90.5903 42.916 91.1158 42.8515 91.6506 42.7859C91.6594 42.7877 91.6701 42.7808 91.6789 42.7826C92.0801 42.7258 92.4888 42.692 92.8963 42.6487C93.907 42.5358 94.9298 42.453 95.9441 42.3961C95.9529 42.3979 95.9636 42.391 95.9724 42.3928C96.2757 42.3645 96.5847 42.3527 96.8931 42.3438C97.0726 42.3355 97.2404 42.3247 97.4205 42.3134C97.7025 42.299 97.9832 42.2905 98.2652 42.2761C98.5629 42.2741 98.8719 42.2623 99.1697 42.2604C99.7412 42.2393 100.317 42.2406 100.905 42.2443C101.249 42.2429 101.594 42.2479 101.944 42.257C102.242 42.2551 102.538 42.262 102.843 42.2678C103.343 42.2808 103.844 42.2907 104.342 42.3125C104.509 42.3199 104.664 42.3249 104.83 42.3412C105.207 42.3559 105.594 42.3819 105.969 42.4025C106.512 42.4334 107.063 42.4633 107.602 42.5119C108.052 42.542 108.498 42.5803 108.945 42.6251C110.735 42.7861 112.533 42.9977 114.32 43.2592C114.772 43.3264 115.224 43.3936 115.664 43.4584C116.116 43.5256 116.554 43.5991 117.004 43.6751L117.013 43.6769C117.734 43.7914 118.451 43.9234 119.174 44.0567C119.29 44.0719 119.408 44.0966 119.531 44.1224C120.131 44.2299 120.732 44.3467 121.328 44.4717L121.337 44.4736C121.776 44.5565 122.21 44.6477 122.648 44.7395C123.681 44.9563 124.72 45.1925 125.75 45.427C125.785 45.4343 125.829 45.4436 125.862 45.4598L125.871 45.4616C126.198 45.5394 126.518 45.6248 126.823 45.7165C127.096 45.792 127.357 45.8745 127.608 45.9639C127.808 46.0335 128.008 46.103 128.194 46.1789C128.35 46.2392 128.495 46.297 128.642 46.3555C129.063 46.5265 129.459 46.7138 129.846 46.9145C129.963 46.9668 130.082 47.0286 130.188 47.0966C130.221 47.1128 130.244 47.136 130.277 47.1522C130.436 47.2408 130.593 47.3287 130.749 47.429C131.016 47.5769 131.26 47.7415 131.501 47.9209C131.688 48.0521 131.875 48.1862 132.048 48.3238C132.08 48.3488 132.102 48.3719 132.134 48.397C132.237 48.4738 132.351 48.562 132.443 48.6487C132.696 48.8612 132.938 49.0776 133.168 49.3127C133.207 49.3484 133.236 49.3822 133.275 49.4179C133.497 49.6424 133.717 49.8816 133.918 50.12C134.014 50.2321 134.113 50.3477 134.2 50.458C134.207 50.4686 134.223 50.4812 134.228 50.5006C134.315 50.6109 134.404 50.7247 134.481 50.8419C134.575 50.9628 134.67 51.0961 134.753 51.224C134.883 51.4105 135.008 51.6023 135.125 51.8046C135.228 51.9856 135.329 52.1631 135.423 52.3423C135.526 52.5233 135.616 52.7077 135.697 52.8932C135.788 53.0717 135.87 53.2637 135.942 53.4474C136.023 53.6329 136.096 53.823 136.166 54.0155C136.236 54.208 136.301 54.3963 136.36 54.5957C136.409 54.7562 136.462 54.9144 136.511 55.0749C136.627 55.5008 136.722 55.9282 136.799 56.3644C136.884 56.7623 136.937 57.1658 136.974 57.5722C137.011 57.9691 137.04 58.3677 137.05 58.759C137.053 58.8791 137.055 59.0021 137.055 59.1309C137.056 59.5205 137.051 59.9117 137.023 60.3045C136.95 61.4999 136.766 62.6873 136.468 63.8448C136.425 64.0044 136.383 64.1611 136.332 64.3189C136.283 64.505 136.224 64.698 136.168 64.8793L136.164 64.8969C136.062 65.2095 135.948 65.5321 135.825 65.8404C135.758 66.0316 135.683 66.2121 135.609 66.3897C135.5 66.6458 135.393 66.8931 135.274 67.1379C135.122 67.4677 134.958 67.798 134.781 68.1135C134.63 68.3974 134.467 68.6789 134.299 68.9533C134.286 68.9691 134.284 68.9779 134.283 68.9867C134.117 69.2493 133.94 69.5095 133.769 69.7526C133.622 69.9731 133.465 70.1822 133.312 70.3832C133.25 70.462 133.197 70.5369 133.137 70.6069C132.963 70.8218 132.788 71.0273 132.604 71.2309C127.606 76.88 121.268 80.4826 114.351 82.8448C110.536 84.184 106.525 85.1113 102.624 85.9667C97.3443 87.1857 96.7675 87.7145 98.7745 92.7887C100.1 96.2301 102.339 99.3054 104.619 103.505C96.4192 104.016 90.826 100.519 86.4519 94.7618C86.3154 94.5646 86.1795 94.3797 86.0375 94.2089C85.8905 94.0187 85.7439 93.8408 85.6001 93.6788C85.4626 93.5304 85.3375 93.3816 85.1963 93.2508C85.1894 93.2401 85.1824 93.2295 85.1666 93.217C85.0343 93.0881 84.9036 92.9656 84.7676 92.8543C84.6019 92.7092 84.436 92.5794 84.2647 92.4607C84.2489 92.4482 84.2401 92.4464 84.2244 92.4338C84.1121 92.3551 83.9882 92.2739 83.8699 92.2093C83.8384 92.1843 83.805 92.1681 83.7804 92.1537C83.6388 92.0688 83.5053 92.0041 83.36 91.9368C83.1813 91.8533 83.0125 91.7811 82.8302 91.7153L82.8214 91.7135C82.6742 91.655 82.5194 91.6041 82.3597 91.5614C82.2559 91.5305 82.1491 91.4989 82.0346 91.4748C81.8926 91.4359 81.7604 91.4081 81.6166 91.378C81.4375 91.3404 81.2507 91.3104 81.0502 91.2867C80.971 91.2701 80.8781 91.2598 80.7882 91.2502C80.5437 91.2173 80.2956 91.202 80.0386 91.1849C74.7214 90.8143 69.014 90.083 64.2474 87.9642C51.6757 82.2555 49.216 72.2525 56.5413 60.3907L56.5665 60.4021Z" fill="#EFFF3D"/>
<path d="M233.816 208.153C233.618 208.204 229.359 207.218 227.129 204.378C227.402 211.507 225.126 217.914 221.266 223.894C220.558 225.048 220.756 226.763 220.369 228.172C219.795 230.47 219.297 233.017 222.114 237.329C220.249 238.241 213.438 234.161 211.012 233.744C210.657 233.669 210.352 233.792 210.863 234.457C208.929 237.028 199.227 239.367 195.601 237.582C197.138 241.347 198.781 245.042 200.668 249.343C193.409 250.239 187.167 247.627 180.27 242.367C181.529 245.236 182.192 246.957 183.239 249.503C177.369 249.109 174.274 245.67 171.281 241.321C160.92 245.474 150.123 246.836 139.037 246.466C109.068 242.971 98.1797 235.01 94.2916 232.708C86.6736 228.225 80.5167 222.097 76.2677 214.413C74.6723 211.381 72.9672 210.186 69.5312 211.047C68.0647 211.389 66.301 210.927 63.7302 210.762C65.6616 208.657 66.9762 207.256 68.5283 205.629L56.8544 203.18C59.7074 201.547 62.3658 199.965 66.0827 197.765C64.8092 196.968 63.6108 196.149 62.5118 195.324C61.2749 196.208 60.3501 196.891 60.3501 196.891C57.6753 196.329 57.5928 194.648 57.5928 194.648C57.6243 193.928 58.1959 193.147 59.0104 192.376C53.0234 186.636 50.7881 179.99 52.4582 171.372L52.6078 170.658C53.5293 165.828 56.2595 160.352 60.0557 157.336C61.8381 155.941 64.2878 155.339 65.8911 153.907C67.7294 152.245 69.1851 149.295 70.5422 147.253C62.6923 148.303 56.2933 149.101 49.0147 150.087C49.7972 148.578 58.9753 137.105 64.4277 124.249C68.0385 115.731 75.1305 109.424 79.8323 101.199C77.6278 100.179 74.4106 98.6669 71.2815 97.1737C71.4257 96.925 71.4817 96.6578 71.6288 96.4097C72.9313 96.3672 74.2356 96.3159 75.5475 96.2723C75.9895 96.2547 76.4362 96.2442 76.8852 96.2372C77.7368 96.2105 78.5954 96.1944 79.4438 96.1977C79.4985 96.1999 79.555 96.1934 79.6127 96.1963L80.4745 96.2085C80.8934 96.2136 81.3081 96.224 81.7251 96.2379C82.1881 96.2522 82.638 96.27 83.0972 96.302C84.2945 96.3661 85.5847 97.7556 86.6806 98.7273C92.744 103.534 99.2338 106.293 107.576 104.226C105.168 100.187 103.041 96.5773 101.111 92.9172C99.2858 89.6499 99.6596 87.8677 103.985 87.1934C115.645 85.2682 126.787 81.8366 135.44 72.9539C135.497 72.9015 135.556 72.8373 135.634 72.7892C135.699 72.7386 135.774 72.6899 135.861 72.6407C136.145 72.4857 136.485 72.37 136.854 72.2911C136.98 72.2623 137.106 72.2429 137.239 72.2218C137.384 72.2061 137.525 72.1897 137.668 72.1828L137.676 72.1847C137.96 72.1615 138.239 72.1617 138.483 72.1946C143.352 72.9369 148.22 73.6792 152.941 74.6696C157.556 75.7296 162.096 77.1478 167.031 78.4621C170.939 77.7462 169.202 72.7317 170.137 68.2747C173.14 71.6972 177.784 71.7396 178.631 88.8039C179.004 88.7904 184.349 75.9092 184.349 75.9092C187.871 81.3012 192.42 86.4857 188.309 94.5555C198.65 96.2588 208.041 94.5076 217.123 89.807C217.384 90.3278 208.06 98.4199 203.332 101.891C222.123 104.297 230.692 116.934 245.703 125.199C240.469 125.311 236.344 125.467 231.735 125.711C246.439 139.168 241.488 150.176 246.304 162.258C245.13 161.641 243.442 160.821 240.828 159.528C236.034 169.965 232.007 179.588 228.281 190.249C226.98 193.79 231.01 203.847 233.827 208.159L233.816 208.153Z" fill="#EFFF3D"/>
<path d="M252.928 197.529C247.148 197.19 244.376 198.656 241.397 203.622C240.653 204.86 238.766 204.281 238.855 202.837C239.194 197.057 237.728 194.285 232.761 191.306C231.523 190.561 232.102 188.675 233.546 188.764C239.327 189.103 242.099 187.636 245.078 182.67C245.822 181.432 247.708 182.011 247.62 183.455C247.281 189.235 248.747 192.007 253.713 194.987C254.952 195.731 254.372 197.617 252.928 197.529Z" fill="#EFFF3D"/>
<path d="M228.27 190.244C231.996 179.583 236.022 169.963 240.817 159.523C243.431 160.816 245.119 161.636 246.292 162.253C241.476 150.171 246.428 139.163 231.724 125.705C236.333 125.462 240.461 125.307 245.692 125.193C230.68 116.928 222.112 104.292 203.321 101.886C208.05 98.4116 217.377 90.3201 217.112 89.8016C208.033 94.5029 198.641 96.254 188.298 94.5501C192.409 86.4803 187.86 81.2929 184.338 75.9039C184.338 75.9039 178.993 88.785 178.62 88.7986C177.77 71.7336 173.129 71.6918 170.125 68.2693C169.19 72.7263 170.931 77.7415 167.02 78.4567C162.084 77.1425 157.545 75.7243 152.93 74.6643C148.206 73.6732 143.341 72.9316 138.472 72.1892C138.228 72.1564 137.95 72.1532 137.665 72.1793L137.656 72.1775C137.514 72.1844 137.373 72.2007 137.228 72.2164C137.096 72.2346 136.969 72.254 136.843 72.2857C136.473 72.3676 136.131 72.4797 135.85 72.6353C135.767 72.6822 135.689 72.7303 135.623 72.7838C135.548 72.8325 135.489 72.8967 135.429 72.9485C126.773 81.8306 115.634 85.2628 103.974 87.188C99.6456 87.8617 99.2717 89.6439 101.1 92.9118C103.029 96.572 105.157 100.182 107.565 104.221C99.2233 106.284 92.7329 103.528 86.6695 98.7219C85.5713 97.7467 84.2805 96.3602 83.0861 96.2966C82.6269 96.2646 82.1769 96.2469 81.714 96.2325C81.297 96.2186 80.8823 96.2082 80.4634 96.2031L79.6016 96.1909C79.5469 96.1887 79.4903 96.1952 79.4327 96.1923C78.5866 96.1926 77.7286 96.2057 76.8741 96.2318C76.4251 96.2388 75.9784 96.2493 75.5364 96.2669C74.2251 96.3076 72.9208 96.3589 71.6177 96.4043C71.4735 96.653 71.4175 96.9202 71.2704 97.1683C74.3995 98.6615 77.6167 100.173 79.8212 101.194C75.1194 109.418 68.0274 115.726 64.4166 124.244C58.9665 137.103 49.7861 148.572 49.0035 150.082C56.2816 149.098 62.6812 148.298 70.5311 147.247C69.171 149.289 67.7154 152.239 65.8799 153.901C64.2767 155.334 61.824 155.935 60.0446 157.33C56.2484 160.347 53.5181 165.822 52.5967 170.653L52.4471 171.366C50.7799 179.986 53.0123 186.631 58.9992 192.371C60.0529 193.383 61.2146 194.362 62.5036 195.319C63.6055 196.145 64.8011 196.963 66.0745 197.76C62.3583 199.957 59.6999 201.539 56.8462 203.175L68.5201 205.624C66.968 207.251 65.6534 208.652 63.722 210.757C66.2922 210.926 68.056 211.388 69.5231 211.042C72.959 210.181 74.6641 211.376 76.2596 214.408C80.5085 222.092 86.6654 228.221 94.2834 232.703C98.1709 235.008 109.063 242.967 139.029 246.461C150.115 246.834 160.915 245.47 171.273 241.316C174.269 245.666 177.36 249.107 183.231 249.499C182.183 246.952 181.521 245.232 180.262 242.362C187.159 247.622 193.404 250.235 200.66 249.339C198.771 245.034 197.127 241.342 195.593 237.578C199.219 239.362 208.921 237.023 210.855 234.452C210.344 233.787 210.649 233.664 211.004 233.739C213.427 234.155 220.238 238.235 222.106 237.324C219.289 233.012 219.786 230.465 220.36 228.167C220.748 226.759 220.55 225.043 221.258 223.889C225.118 217.906 227.391 211.501 227.12 204.373C229.354 207.214 233.61 208.199 233.808 208.149C230.991 203.836 226.961 193.78 228.262 190.239L228.27 190.244ZM184.706 176.872C190.162 187.32 184.557 198.74 173.079 200.547C172.973 200.57 172.866 200.585 172.752 200.598C169.765 201.087 158.072 198.729 155.569 197.364C149.955 194.185 146.42 189.574 146.566 182.99L146.575 182.946C146.575 182.946 146.579 182.928 146.572 182.918C146.578 182.8 146.578 182.668 146.584 182.55C146.792 177.309 149.164 173.582 152.833 170.854C152.843 170.847 152.854 170.84 152.866 170.825C154.165 169.868 155.623 169.039 157.198 168.309C161.718 166.226 166.788 165.919 171.436 167.054L171.454 167.057C177.083 168.425 182.079 171.892 184.71 176.87L184.706 176.872ZM180.967 168.088C169.99 161.877 159.575 162.297 148.659 170.426C148.116 167.241 147.477 164.967 147.303 162.699C146.811 157.943 148.761 155.75 153.25 156.97C161.621 159.192 169.755 162.106 177.926 164.844C179.224 165.303 180.142 166.704 180.967 168.088ZM155.984 137.727C158.148 135.388 160.499 136.163 163.941 138.372C168.342 141.343 170.346 144.648 171.859 148.965C172.938 151.797 174.197 154.667 175.299 157.408C175.595 158.215 175.82 158.912 176.167 159.917C167.336 157.228 158.733 154.77 150.294 151.979C149.42 151.704 148.154 149.761 148.445 149.265C150.769 145.286 152.879 140.984 155.981 137.729L155.984 137.727ZM141.78 165.078C145.57 168.601 146.468 172.449 144.475 176.62C141.47 182.966 142.878 189.113 147.429 194.918C152.45 201.32 166.707 204.311 175.87 203.023C187.279 201.416 191.721 190.44 187.886 178.563C189.257 179.13 190.002 179.565 191.53 180.259C190.458 176.5 189.523 173.42 188.537 170.141C189.376 170.13 189.947 170.066 189.929 170.154C194.443 180.126 197.169 190.188 192.962 200.932C191.371 204.969 188.525 207.444 184.17 207.367C169.65 207.392 156.082 203.335 143.213 196.823C138.593 194.459 136.455 190.01 136.687 184.477C137.09 177.676 138.366 171.155 141.78 165.078ZM137.121 165.121C136.654 165.581 135.363 165.963 135.045 165.71C134.388 165.293 133.773 164.232 133.762 163.393C133.781 161.536 134.243 159.773 134.368 157.846C134.456 156.096 134.365 154.311 134.402 152.364C139.164 154.944 140.458 161.634 137.121 165.121ZM102.216 165.607C102.26 165.57 102.303 165.542 102.354 165.516C102.408 165.481 102.468 165.457 102.522 165.432C102.631 165.353 102.734 165.271 102.84 165.201C103.119 165.027 103.417 164.893 103.721 164.773C103.852 164.718 103.994 164.671 104.13 164.635C104.443 164.56 104.766 164.48 105.097 164.467C105.787 164.424 106.381 164.558 107.003 164.821C107.566 165.058 108.104 165.563 108.431 166.08C108.824 166.692 109.033 167.417 109.078 168.14C109.093 168.505 109.065 168.873 109.035 169.238C109.013 169.384 109.001 169.528 108.962 169.67C108.806 170.241 108.563 170.816 108.136 171.256C107.759 171.634 107.264 171.993 106.734 172.124C106.115 172.282 105.653 172.308 105.008 172.2C104.6 172.142 104.189 171.982 103.814 171.809C103.42 171.643 103.076 171.384 102.727 171.133C102.531 171 102.35 170.84 102.184 170.667C101.918 170.387 101.628 170.075 101.44 169.729C101.168 169.215 100.969 168.775 100.937 168.183C100.903 167.673 101.005 167.054 101.294 166.612C101.599 166.136 101.748 165.953 102.211 165.615L102.216 165.607ZM97.1527 150.318C101.358 149.34 102.462 151.619 103.696 155.041C100.293 156.188 97.0862 157.284 93.4662 158.569C93.1452 154.781 92.0682 151.483 97.1498 150.318L97.1527 150.318ZM86.4789 157.29C89.712 159.179 91.6764 160.891 90.0444 165.573C87.6939 172.335 92.8436 179.277 100.419 180.866C107.101 182.267 114.438 177.014 115.824 169.957C116.128 168.068 116.876 166.269 117.672 163.368C117.3 162.919 116.095 162.013 115.587 160.883C115.171 159.772 115.469 158.348 115.461 157.043C116.906 157.255 118.908 157.022 119.56 157.903C125.549 164.833 123.387 175.314 115.856 180.616C104.8 188.531 86.1559 181.874 83.0526 168.29C84.37 168.659 85.4387 168.883 87.0072 169.399C84.2689 164.421 84.0921 160.383 86.4766 157.287L86.4789 157.29ZM78.9098 162.774C80.4803 180.128 94.9517 189.816 110.985 186.111C122.923 183.312 128.76 173.048 124.26 161.685C123.354 159.355 121.945 157.199 120.842 154.92C120.986 154.671 120.991 154.206 121.296 154.083C123.575 152.98 126.012 152.001 128.379 150.916C128.962 153.457 130.009 156.003 130.02 158.611C130.15 167.754 127.158 176.246 122.798 184.169C120.38 188.594 116.274 190.43 111.604 189.634C103.796 188.275 95.8981 186.897 88.4031 184.488C77.5253 180.903 75.2751 175.22 78.9098 162.774ZM212.729 228.85C210.073 226.432 211.216 225.231 212.069 222.06C212.531 220.296 212.52 217.688 211.478 216.446C210.275 215.078 207.852 214.661 205.802 214.231C204.84 213.938 203.711 214.442 202.636 214.683C205.957 210.821 209.368 206.979 212.692 203.118C206.851 205.243 202.849 209.241 200.263 214.467C196.588 221.789 200.037 227.073 208.184 226.827C210.385 231.151 207.434 232.622 200.629 232.684C200.183 230.822 199.807 227.908 199.361 226.046C198.845 225.845 196.143 226.302 195.609 226.19C195.94 229.052 197.189 231.08 195.896 233.693C194.151 233.14 190.35 232.018 187.98 231.334C188.783 229.271 189.459 227.831 190.044 226.372C187.968 226.96 186.865 228.215 185.465 229.132C179.593 232.738 174.049 237.436 167.633 239.627C140.923 248.538 115.777 243.355 92.3616 228.582C79.5432 220.498 72.9424 208.507 74.1777 192.858C74.3329 191.679 73.8621 190.373 73.6591 189.12C73.2853 189.133 72.908 189.149 72.5158 189.251L71.207 195.49C68.9048 194.979 66.8846 194.322 65.1181 193.523C63.4758 192.789 62.0489 191.92 60.8143 190.937C56.4579 187.491 54.4652 182.524 53.8461 176.08C53.5796 173.317 53.7301 170.511 54.3915 167.811C54.5916 166.988 54.8745 166.18 55.3715 165.448L55.3734 165.439C56.4158 163.889 57.6542 162.457 59.0366 161.229C59.0366 161.229 59.0402 161.227 59.0473 161.222C61.0242 159.47 63.2866 158.139 65.6909 157.491C72.3974 160.108 74.1079 162.607 74.2641 170.732C74.2778 171.645 74.3336 172.534 74.4433 173.384C74.6535 175.13 75.069 176.743 75.7013 178.215C77.3174 181.997 80.3281 184.814 84.9405 186.367C92.1684 188.72 99.4843 191.092 106.939 192.377C119.081 194.366 124.975 190.67 130.152 179.289C130.769 178.116 131.389 176.943 132.097 175.789C132.452 175.864 132.88 176.045 133.326 176.139C133.038 178.405 132.658 180.652 132.459 182.934C131.933 189.429 132.735 195.366 139.204 198.676C152.888 205.734 167.362 210.352 182.963 210.927C188.032 211.153 192.548 209.587 195.451 204.614C196.133 206.247 196.603 207.554 197.181 208.79C198.661 207.053 199.144 205.202 199.713 203.369C201.735 197.279 208.128 193.412 214.116 194.576C218.591 195.423 224.449 202.976 224.187 207.761C223.611 215.828 219.598 224.056 212.732 228.847L212.729 228.85ZM202.511 214.844C203.614 215.354 204.715 215.864 205.709 216.446C206.951 217.173 208.178 217.988 209.42 218.715C208.463 219.725 207.43 221.552 206.393 221.614C204.892 221.67 202.759 220.76 201.984 219.573C201.37 218.513 202.265 216.469 202.51 214.847L202.511 214.844Z" fill="#002B22"/>
<path d="M93.6385 197.216C93.3799 203.767 94.0459 210.792 100.625 215.798C113.283 225.525 127.675 229.66 143.5 227.398C150.225 226.39 155.154 222.4 158.352 216.465C137.347 207.501 116.182 200.176 93.6385 197.216ZM96.3247 200.382C116.407 203.105 134.687 209.545 153.073 217.681C145.146 219.553 100.341 206.062 96.3247 200.382Z" fill="#002B22"/>
<path d="M137.049 60.316C137.077 59.9203 137.084 59.5326 137.08 59.1425C137.08 59.0136 137.078 58.8906 137.076 58.7706C137.066 58.3792 137.036 57.9806 137 57.5837C136.966 57.1751 136.909 56.7738 136.824 56.3759C136.747 55.9398 136.652 55.5123 136.536 55.0864C136.487 54.9259 136.435 54.7677 136.386 54.6073C136.326 54.4078 136.262 54.2195 136.192 54.0271C136.122 53.8346 136.048 53.6444 135.967 53.4589C135.896 53.2753 135.813 53.0833 135.722 52.9047C135.641 52.7192 135.548 52.5342 135.448 52.3538C135.357 52.1753 135.253 51.9972 135.15 51.8162C135.033 51.6139 134.908 51.4221 134.779 51.2355C134.695 51.1076 134.6 50.9744 134.506 50.8534C134.43 50.7362 134.34 50.6224 134.253 50.5122C134.248 50.4927 134.232 50.4802 134.225 50.4695C134.138 50.3593 134.04 50.2436 133.943 50.1315C133.742 49.8931 133.523 49.6539 133.3 49.4294C133.261 49.3938 133.232 49.36 133.193 49.3243C132.964 49.0891 132.721 48.8727 132.468 48.6603C132.375 48.5764 132.262 48.4883 132.159 48.4085C132.128 48.3835 132.105 48.3603 132.073 48.3353C131.897 48.1972 131.711 48.063 131.526 47.9324C131.285 47.7531 131.041 47.5884 130.774 47.4406C130.617 47.3432 130.461 47.2552 130.302 47.1637C130.269 47.1475 130.246 47.1244 130.213 47.1082C130.107 47.0401 129.989 46.9784 129.871 46.9261C129.484 46.7254 129.088 46.5381 128.667 46.367C128.52 46.3086 128.376 46.2507 128.22 46.1904C128.03 46.1139 127.83 46.0444 127.633 45.9755C127.382 45.886 127.121 45.8036 126.848 45.728C126.543 45.6363 126.226 45.5516 125.896 45.4732L125.888 45.4713C125.854 45.4551 125.81 45.4459 125.775 45.4385C124.745 45.2041 123.707 44.9678 122.673 44.751C122.236 44.6592 121.801 44.5681 121.362 44.4851L121.353 44.4833C120.757 44.3582 120.156 44.2414 119.556 44.134C119.433 44.1081 119.316 44.0835 119.199 44.0683C118.473 43.9344 117.756 43.8023 117.038 43.6885L117.029 43.6866C116.579 43.6106 116.141 43.5371 115.689 43.4699C115.246 43.4046 114.797 43.338 114.346 43.2708C112.559 43.0063 110.76 42.7976 108.97 42.6367C108.524 42.589 108.078 42.5506 107.627 42.5235C107.088 42.4749 106.537 42.445 105.995 42.414C105.619 42.3905 105.233 42.3645 104.855 42.3527C104.69 42.3365 104.534 42.3315 104.367 42.324C103.869 42.3023 103.369 42.2923 102.869 42.2794C102.564 42.2706 102.268 42.2637 101.97 42.2686C101.619 42.2594 101.274 42.2515 100.93 42.2559C100.345 42.2527 99.7687 42.2544 99.1949 42.272C98.8972 42.2739 98.5881 42.2857 98.2904 42.2876C98.0084 42.302 97.7277 42.3106 97.4457 42.325C97.2662 42.3333 97.0984 42.3441 96.9183 42.3553C96.6099 42.3642 96.3009 42.376 95.9976 42.4044C95.9888 42.4025 95.9781 42.4095 95.9693 42.4076C94.9521 42.464 93.9293 42.5468 92.9215 42.6603C92.511 42.7029 92.1047 42.7403 91.7041 42.7942C91.6953 42.7923 91.6846 42.7993 91.6758 42.7974C91.141 42.863 90.6155 42.9275 90.0964 43.0056C90.0116 43.0154 89.922 43.0334 89.8372 43.0432C89.5302 43.0891 89.2315 43.1399 88.9333 43.1877C87.4012 43.4334 85.8874 43.7381 84.3707 44.1004C84.0293 44.179 83.6779 44.2616 83.3317 44.3484C82.9884 44.4358 82.6546 44.5221 82.3065 44.6176C81.9526 44.712 81.5857 44.8097 81.2281 44.9217C80.814 45.0402 80.3951 45.1669 79.9778 45.3001C79.6999 45.3828 79.4208 45.4714 79.1411 45.5629C78.931 45.6292 78.7096 45.7053 78.5006 45.781C78.1235 45.8981 77.7487 46.034 77.3773 46.1676C76.3932 46.5191 75.3988 46.9051 74.4117 47.3142C67.4733 50.2298 60.6709 53.8269 56.5917 60.4137C49.267 72.2725 51.7261 82.2785 64.2978 87.9872C69.065 90.103 74.7724 90.8344 80.089 91.2078C80.346 91.225 80.5941 91.2402 80.8386 91.2731C80.9285 91.2828 81.0214 91.2931 81.1006 91.3097C81.3011 91.3334 81.4908 91.364 81.667 91.4009C81.8109 91.4311 81.943 91.4588 82.085 91.4978C82.1995 91.5218 82.3063 91.5534 82.4101 91.5844C82.5698 91.6271 82.7246 91.678 82.8718 91.7364L82.8806 91.7383C83.0629 91.8041 83.2317 91.8763 83.4104 91.9598C83.5557 92.027 83.6892 92.0918 83.8308 92.1767C83.8554 92.191 83.8888 92.2072 83.9203 92.2323C84.0362 92.2934 84.1602 92.3745 84.2748 92.4568C84.2905 92.4693 84.2993 92.4712 84.3151 92.4837C84.4864 92.6024 84.6523 92.7322 84.818 92.8773C84.954 92.9886 85.0847 93.111 85.217 93.24C85.2328 93.2525 85.2398 93.2631 85.2467 93.2738C85.3879 93.4045 85.513 93.5534 85.6505 93.7018C85.7949 93.8608 85.9409 94.0416 86.0879 94.2319C86.2299 94.4027 86.3658 94.5875 86.5023 94.7847C90.877 100.539 96.4696 104.039 104.669 103.528C102.387 99.3277 100.148 96.2525 98.8249 92.8116C96.8179 87.7375 97.3947 87.2086 102.674 85.9896C106.575 85.1343 110.583 84.2063 114.401 82.8677C121.316 80.505 127.653 76.9024 132.654 71.2538C132.838 71.0502 133.01 70.8441 133.187 70.6299C133.248 70.5598 133.3 70.485 133.363 70.4062C133.515 70.2052 133.672 69.996 133.82 69.7756C133.99 69.5324 134.168 69.2723 134.333 69.0096C134.335 69.0008 134.337 68.992 134.349 68.9763C134.516 68.7048 134.68 68.4233 134.832 68.1365C135.008 67.821 135.173 67.4907 135.325 67.1609C135.441 66.9154 135.548 66.6681 135.659 66.4126C135.734 66.2321 135.808 66.0545 135.876 65.8634C135.996 65.5544 136.109 65.2319 136.215 64.9199L136.218 64.9022C136.275 64.718 136.334 64.525 136.382 64.3419C136.433 64.1841 136.476 64.0274 136.518 63.8677C136.816 62.7103 137.001 61.5229 137.074 60.3274L137.049 60.316ZM131.605 67.6773C127.795 72.089 122.407 75.6087 117.096 78.3078C112.02 80.7772 106.133 81.777 100.533 83.2077C95.3413 84.4452 94.278 85.5249 95.5666 90.9112C95.575 90.9589 95.594 90.9997 95.6024 91.0474C95.7851 92.2659 96.2181 93.3438 96.5962 94.1128C97.293 95.9786 98.1558 97.9007 99.0076 100.05L98.9195 100.032C96.691 99.5644 94.4824 98.6075 92.0139 96.9463C90.0314 95.5251 88.3658 93.7626 87.0622 91.5457C85.6403 89.0159 84.0533 88.5879 81.3575 88.5803C74.178 88.6559 67.0977 87.8205 61.2134 83.0518C55.5282 78.4444 54.0136 73.6974 56.1421 67.2623L56.1439 67.2535C56.3306 66.6704 56.5579 66.0835 56.8049 65.4763C57.6723 63.3869 58.8168 61.5548 60.1812 59.9314C62.3875 57.3044 65.1507 55.2233 68.1675 53.4377C81.4113 45.656 95.2112 43.5084 109.208 44.9948C110.92 45.1762 112.637 45.4076 114.353 45.7032C114.686 45.7546 115.03 45.8084 115.361 45.8686C116.732 46.1103 118.1 46.3879 119.456 46.7001C120.625 46.9453 121.792 47.2269 122.967 47.5285L122.976 47.5304C124.39 47.8914 125.802 48.2918 127.213 48.7075C127.468 48.7793 127.71 48.8669 127.953 48.9545C135.159 51.628 137.216 61.1113 131.608 67.6779L131.605 67.6773Z" fill="#002B22"/>
<path d="M71.2657 179.385C71.2449 179.221 71.2253 179.051 71.1946 178.876C70.9295 177.349 70.5347 175.899 70.0009 174.543L70.0027 174.534C68.6946 171.228 66.5537 168.443 63.4112 166.313C62.7997 165.896 62.0014 165.756 61.2119 165.618C61.2119 165.618 61.1015 165.531 61.0504 165.584C60.755 165.532 60.4595 165.479 60.1784 165.402C60.051 165.746 59.9124 166.1 59.7802 166.452C59.8836 166.529 59.983 166.596 60.0858 166.676C60.7234 167.144 61.3459 167.639 62.0055 168.075C65.9045 170.603 68.5227 173.991 68.7522 178.756C68.791 179.638 67.6978 180.583 67.1243 181.505C66.355 180.598 65.0468 179.748 64.9459 178.767C64.7865 177.262 65.4656 175.676 65.7908 174.126C65.3468 173.977 64.901 173.838 64.4605 173.687C63.8496 175.84 62.6299 178.03 62.7756 180.126C62.9642 182.909 63.877 186.405 67.7639 185.703C71.0696 185.112 71.6631 182.371 71.2772 179.418C71.279 179.409 71.2721 179.398 71.2651 179.388L71.2657 179.385Z" fill="#002B22"/>
<path d="M170.322 171.473C169.696 171.259 169.047 171.077 168.369 170.935C163.654 170.001 159.159 171.339 155.905 174.255C155.894 174.262 155.893 174.27 155.884 174.268C153.655 176.284 152.008 179.037 151.281 182.327C151.214 182.647 151.155 182.972 151.114 183.298C151.112 183.306 151.109 183.324 151.116 183.335C150.381 189.498 155.496 195.669 162.785 197.115C166.038 197.798 169.201 197.391 171.917 196.119C175.734 194.332 178.65 190.852 179.654 186.327C181.004 179.894 177.011 173.735 170.322 171.473ZM167.701 186.759C167.383 186.989 167.002 187.17 166.627 187.306C166.424 187.383 166.215 187.416 165.999 187.462C165.795 187.502 165.593 187.546 165.376 187.555C164.934 187.573 164.477 187.545 164.043 187.435C163.574 187.318 163.086 187.161 162.676 186.897C162.133 186.559 161.711 186.219 161.348 185.687C161.005 185.186 160.854 184.663 160.775 184.077C160.665 183.318 160.885 182.398 161.282 181.746C161.73 181.031 162.316 180.372 163.075 179.983C163.344 179.852 163.628 179.697 163.918 179.602C164.206 179.512 164.505 179.464 164.803 179.416C164.979 179.38 165.152 179.388 165.323 179.375C165.369 179.376 165.419 179.359 165.469 179.351C165.937 179.299 166.444 179.322 166.903 179.428C167.533 179.569 167.993 179.816 168.499 180.21C169.242 180.786 169.649 181.782 169.707 182.704C169.818 184.309 168.963 185.813 167.704 186.759L167.701 186.759Z" fill="#002B22"/>
<path d="M123.224 49.36C123.185 49.3243 123.145 49.2975 123.1 49.2788L123.117 49.4602C123.142 49.4287 123.177 49.3902 123.22 49.3623L123.224 49.36Z" fill="#002B22"/>
<path d="M64.3572 114.079C60.0472 114.226 58.0864 115.507 56.2195 119.395C55.7532 120.376 54.3086 120.073 54.2758 118.987C54.1286 114.677 52.8485 112.713 48.9603 110.849C47.9792 110.383 48.2822 108.938 49.3681 108.906C53.6781 108.758 55.6418 107.478 57.5057 103.59C57.9721 102.609 59.4167 102.912 59.4494 103.998C59.5967 108.308 60.8774 110.269 64.7649 112.135C65.7461 112.602 65.4431 114.046 64.3572 114.079Z" fill="#002B22"/>
<path d="M252.928 197.529C247.148 197.19 244.376 198.656 241.397 203.622C240.653 204.861 238.766 204.281 238.855 202.838C239.194 197.057 237.728 194.285 232.761 191.306C231.523 190.562 232.102 188.676 233.546 188.764C239.327 189.103 242.099 187.637 245.078 182.671C245.822 181.432 247.708 182.012 247.62 183.455C247.281 189.236 248.747 192.008 253.713 194.987C254.952 195.731 254.372 197.617 252.928 197.529Z" fill="#002B22"/>
<path d="M68.7677 191.468C68.308 191.482 66.7599 192.433 65.1181 193.523C64.23 194.118 63.3131 194.763 62.5095 195.32C61.2727 196.204 60.3478 196.887 60.3478 196.887C57.673 196.326 57.5905 194.644 57.5905 194.644C57.622 193.924 58.1936 193.143 59.0081 192.373C59.5404 191.881 60.174 191.388 60.8172 190.938C62.7669 189.578 64.8919 188.537 64.8919 188.537C64.8919 188.537 69.8647 191.441 68.77 191.472L68.7677 191.468Z" fill="#002B22"/>
<path d="M74.7057 64.3387L72.6502 64.9313L75.4997 77.2845L69.9544 78.5275L67.9931 66.2656L64.7195 67.1851L64.0228 63.4924L73.7954 60.7728L74.6998 64.3374L74.7057 64.3387Z" fill="#002B22"/>
<path d="M75.7112 60.9483L80.3405 60.1997L81.2742 63.654L84.703 58.8527C85.615 59.4732 86.3036 59.9609 86.7692 60.313C88.1713 61.3152 88.8467 61.8217 88.7977 61.8359L84.6137 67.6222L91.0537 70.6039C90.6939 71.1936 90.2819 71.9011 89.8176 72.7263C89.0095 74.1385 88.6204 74.8385 88.6558 74.8306L84.0255 72.8661L84.6611 75.2279L79.1158 76.4709L75.7141 60.9489L75.7112 60.9483Z" fill="#002B22"/>
<path d="M91.0257 64.4978L90.8395 64.143C90.6462 63.6764 90.5136 63.198 90.4394 62.7042C90.2071 61.1229 90.655 59.7915 91.7854 58.7136C92.6784 57.8465 94.0341 57.1561 95.8522 56.6424C96.726 56.3935 97.5667 56.2143 98.3679 56.1065L99.2835 61.4881C99.418 61.3876 99.256 61.2831 98.791 61.1763C98.3427 61.0486 97.8454 60.9933 97.3057 61.0088C95.7697 61.0544 95.14 61.5722 95.416 62.565C95.4303 62.8623 95.7364 63.0981 96.3389 63.2797L98.3494 63.7781C100.366 64.3083 101.53 65.1995 101.845 66.4456C101.949 66.915 101.988 67.389 101.954 67.8694C101.89 68.9196 101.542 69.7907 100.905 70.4754C99.6298 71.9215 97.7997 72.7698 95.4167 73.024C94.6127 73.1158 93.866 73.1247 93.1824 73.0518C92.5694 72.9784 92.3042 72.8983 92.3904 72.809L91.9061 69.3602C92.349 69.3826 92.8011 69.3609 93.263 69.2923C94.272 69.1729 95.038 68.8677 95.5626 68.3831C95.8747 68.05 95.8942 67.7813 95.6208 67.5799C95.4747 67.4726 95.0286 67.2901 94.285 67.036C92.5843 66.4341 91.5235 65.6169 91.1019 64.5874C91.1098 64.6228 91.086 64.5902 91.0286 64.4984L91.0257 64.4978Z" fill="#002B22"/>
<path d="M113.574 61.865L108.951 62.9825L106.794 53.4783L111.637 51.8121L113.574 61.865ZM112.566 69.1267C113.235 68.9759 113.78 68.5109 114.204 67.7323C114.599 66.9782 114.714 66.2391 114.552 65.5186C114.401 64.8494 114.019 64.3921 113.4 64.1427C112.843 63.9339 112.188 63.9131 111.436 64.0831C110.766 64.2339 110.277 64.6677 109.963 65.3896C109.676 66.0683 109.618 66.7855 109.785 67.5379C110.1 68.9435 111.028 69.4723 112.566 69.1267Z" fill="#002B22"/>
<path d="M121.15 60.1653L116.526 61.2828L114.369 51.7786L119.213 50.1124L121.15 60.1653ZM120.144 67.4276C120.814 67.2768 121.359 66.8118 121.783 66.0332C122.174 65.2785 122.292 64.54 122.131 63.8195C121.98 63.1503 121.597 62.693 120.979 62.4437C120.422 62.2348 119.767 62.214 119.014 62.384C118.345 62.5349 117.855 62.9686 117.541 63.6905C117.255 64.3692 117.196 65.0864 117.363 65.8388C117.679 67.2444 118.607 67.7733 120.144 67.4276Z" fill="#002B22"/>
</svg>
