<?xml version="1.0" encoding="UTF-8"?>
<svg id="Layer_1" data-name="Layer 1" xmlns="http://www.w3.org/2000/svg" version="1.1" xmlns:xlink="http://www.w3.org/1999/xlink" viewBox="0 0 198 198">
  <defs>
    <style>
      .cls-1 {
        fill: #002b22;
      }

      .cls-1, .cls-2, .cls-3 {
        stroke-width: 0px;
      }

      .cls-2 {
        fill: none;
      }

      .cls-4 {
        clip-path: url(#clippath);
      }

      .cls-3 {
        fill: #efff3d;
      }
    </style>
    <clipPath id="clippath">
      <rect class="cls-2" x="23.6" y="24" width="150" height="150" transform="translate(-31.2 47.3) rotate(-23.4)"/>
    </clipPath>
  </defs>
  <g class="cls-4">
    <g>
      <path class="cls-3" d="M133.3,146.7h0c-2.6-14.7-2.2-25.1,1.2-33.9,3.4-8.8,10.2-16.6,22.1-25.7,10.3-7.9,3.1-24-9.6-21.8h0c-14.7,2.6-25.1,2.2-33.9-1.2-8.8-3.4-16.6-10.2-25.7-22.1-7.9-10.3-24-3.1-21.8,9.6h0c2.6,14.7,2.2,25.1-1.2,33.9-3.4,8.8-10.2,16.6-22.1,25.7-10.3,7.9-3.1,24,9.6,21.8h0c14.7-2.6,25.1-2.2,33.9,1.2,8.8,3.4,16.6,10.2,25.7,22.1,7.9,10.3,24,3.1,21.8-9.6Z"/>
      <path class="cls-1" d="M121.1,166.2c-5.2,0-10.2-2.4-13.6-6.9-8.5-11.1-15.8-17.4-23.6-20.4-7.8-3-17.4-3.3-31.1-.9h-.1c-8,1.4-15.6-2.6-18.8-10.1-3.2-7.4-1.1-15.7,5.4-20.6,11.1-8.5,17.4-15.8,20.4-23.6,3-7.8,3.3-17.3.9-31h0s0-.2,0-.2c-1.4-8,2.7-15.6,10.1-18.8,7.4-3.2,15.7-1.1,20.6,5.4,8.5,11.1,15.8,17.4,23.6,20.4,7.8,3,17.3,3.3,31,.9h0s.2,0,.2,0c8-1.4,15.6,2.7,18.8,10.1,3.2,7.4,1.1,15.7-5.4,20.6-11.1,8.5-17.4,15.8-20.4,23.6-3,7.8-3.3,17.3-.9,31v.2c1.4,8-2.6,15.6-10.1,18.8-2.3,1-4.7,1.5-7,1.5ZM68.9,126.4c7.1,0,13.2,1.1,18.6,3.2,9.6,3.7,18.2,11,27.9,23.7,2.6,3.4,6.2,3.4,8.7,2.3,2.5-1.1,5-3.8,4.3-7.9h0c-2.7-15.8-2.3-27,1.4-36.6,3.7-9.6,11-18.2,23.7-27.9,3.4-2.6,3.4-6.2,2.3-8.7-1.1-2.5-3.8-5-7.9-4.3h0c-15.7,2.8-27,2.3-36.6-1.4-9.6-3.7-18.2-11-27.9-23.7-2.6-3.4-6.2-3.4-8.7-2.3-2.5,1.1-5,3.8-4.3,7.9h0c2.7,15.7,2.3,27-1.4,36.6-3.7,9.6-11,18.2-23.7,27.9-3.4,2.6-3.4,6.2-2.3,8.7,1.1,2.5,3.8,5,7.9,4.3h0c6.7-1.2,12.6-1.8,17.9-1.8Z"/>
    </g>
  </g>
</svg>