<svg width="198" height="198" viewBox="0 0 198 198" fill="none" xmlns="http://www.w3.org/2000/svg">
<g clip-path="url(#clip0_1_169)">
<path d="M133.287 146.335L133.286 146.331C130.712 131.606 131.04 121.22 134.458 112.451C137.875 103.682 144.662 95.814 156.518 86.714C166.802 78.8603 159.612 62.6892 146.95 64.8923L146.946 64.893C132.221 67.4675 121.836 67.1397 113.066 63.7216C104.297 60.3039 96.429 53.5177 87.3289 41.6607C79.4752 31.3776 63.3044 38.568 65.5075 51.2292L65.5082 51.2332C68.0827 65.958 67.7549 76.3437 64.3368 85.1133C60.9191 93.8818 54.1331 101.75 42.2763 110.85C31.9926 118.704 39.183 134.875 51.8444 132.672L51.8484 132.671C66.5732 130.097 76.9589 130.425 85.7285 133.843C94.497 137.26 102.365 144.046 111.465 155.903C119.319 166.187 135.49 158.996 133.287 146.335Z" fill="black" stroke="#F2F8F8" stroke-width="10"/>
</g>
<defs>
<clipPath id="clip0_1_169">
<rect width="150" height="150" fill="white" transform="translate(0 59.5928) rotate(-23.4085)"/>
</clipPath>
</defs>
</svg>
